999
DXF file created by HALCON
  0
SECTION
  2
HEADER
  9
$ACADVER
  1
AC1009
  0
ENDSEC
  0
SECTION
  2
TABLES
  0
TABLE
  2
LTYPE
 70
1
  0
LTYPE
  2
CONTINUOUS
 70
0
  3
Solid line
 72
65
 73
0
 40
0
  0
ENDTAB
  0
TABLE
  2
LAYER
 70
1
  0
LAYER
  2
0
 70
0
 62
7
  6
CONTINUOUS
  0
ENDTAB
  0
TABLE
  2
APPID
 70
2
  0
APPID
  2
ACAD
 70
64
  0
APPID
  2
HALCON
 70
64
  0
ENDTAB
  0
ENDSEC
  0
SECTION
  2
BLOCKS
  0
ENDSEC
  0
SECTION
  2
ENTITIES
  0
POLYLINE
  8
0
 66
1
 10
0.0
 20
0.0
 30
0.0
 70
0
  0
VERTEX
  8
0
 10
916.02764893
 20
334.67019653
 30
0.0
  0
VERTEX
  8
0
 10
915.03564453
 20
334.99984741
 30
0.0
  0
VERTEX
  8
0
 10
914.99920654
 20
335.01202393
 30
0.0
  0
VERTEX
  8
0
 10
913.99395752
 20
335.20898438
 30
0.0
  0
VERTEX
  8
0
 10
913.00384521
 20
335.38900757
 30
0.0
  0
VERTEX
  8
0
 10
911.99597168
 20
335.53469849
 30
0.0
  0
VERTEX
  8
0
 10
911.01470947
 20
335.53344727
 30
0.0
  0
VERTEX
  8
0
 10
909.98620605
 20
335.42086792
 30
0.0
  0
VERTEX
  8
0
 10
909.04064941
 20
335.43914795
 30
0.0
  0
VERTEX
  8
0
 10
908.00360107
 20
335.75384521
 30
0.0
  0
VERTEX
  8
0
 10
907.52874756
 20
335.96456909
 30
0.0
  0
VERTEX
  8
0
 10
906.99902344
 20
336.16119385
 30
0.0
  0
VERTEX
  8
0
 10
905.98675537
 20
336.36953735
 30
0.0
  0
VERTEX
  8
0
 10
905.00476074
 20
336.41748047
 30
0.0
  0
VERTEX
  8
0
 10
903.99523926
 20
336.36068726
 30
0.0
  0
VERTEX
  8
0
 10
902.99987793
 20
336.28833008
 30
0.0
  0
VERTEX
  8
0
 10
902.00024414
 20
336.28689575
 30
0.0
  0
VERTEX
  8
0
 10
901.02160645
 20
336.41375732
 30
0.0
  0
VERTEX
  8
0
 10
900.02929688
 20
336.7401123
 30
0.0
  0
VERTEX
  8
0
 10
899.58135986
 20
336.99505615
 30
0.0
  0
VERTEX
  8
0
 10
898.99163818
 20
337.4140625
 30
0.0
  0
VERTEX
  8
0
 10
898.11798096
 20
337.9984436
 30
0.0
  0
VERTEX
  8
0
 10
897.99450684
 20
338.05371094
 30
0.0
  0
VERTEX
  8
0
 10
896.9934082
 20
338.30239868
 30
0.0
  0
VERTEX
  8
0
 10
896.01904297
 20
338.56570435
 30
0.0
  0
VERTEX
  8
0
 10
895.00952148
 20
338.90563965
 30
0.0
  0
VERTEX
  8
0
 10
894.83496094
 20
338.99612427
 30
0.0
  0
VERTEX
  8
0
 10
894.00549316
 20
339.55288696
 30
0.0
  0
VERTEX
  8
0
 10
893.33935547
 20
339.9855957
 30
0.0
  0
VERTEX
  8
0
 10
892.98583984
 20
340.14923096
 30
0.0
  0
VERTEX
  8
0
 10
891.99243164
 20
340.40139771
 30
0.0
  0
VERTEX
  8
0
 10
891.00286865
 20
340.58197021
 30
0.0
  0
VERTEX
  8
0
 10
890.01361084
 20
340.7946167
 30
0.0
  0
VERTEX
  8
0
 10
889.34423828
 20
340.99298096
 30
0.0
  0
VERTEX
  8
0
 10
888.99780273
 20
341.11074829
 30
0.0
  0
VERTEX
  8
0
 10
887.99066162
 20
341.36706543
 30
0.0
  0
VERTEX
  8
0
 10
886.99591064
 20
341.52554321
 30
0.0
  0
VERTEX
  8
0
 10
886.00140381
 20
341.62069702
 30
0.0
  0
VERTEX
  8
0
 10
885.01800537
 20
341.77688599
 30
0.0
  0
VERTEX
  8
0
 10
884.21899414
 20
341.99746704
 30
0.0
  0
VERTEX
  8
0
 10
883.99749756
 20
342.07098389
 30
0.0
  0
VERTEX
  8
0
 10
883.00518799
 20
342.37014771
 30
0.0
  0
VERTEX
  8
0
 10
882.01702881
 20
342.72521973
 30
0.0
  0
VERTEX
  8
0
 10
881.4019165
 20
342.99795532
 30
0.0
  0
VERTEX
  8
0
 10
880.99853516
 20
343.20471191
 30
0.0
  0
VERTEX
  8
0
 10
879.99230957
 20
343.68606567
 30
0.0
  0
VERTEX
  8
0
 10
879.29125977
 20
343.99298096
 30
0.0
  0
VERTEX
  8
0
 10
878.99682617
 20
344.09457397
 30
0.0
  0
VERTEX
  8
0
 10
877.99121094
 20
344.33535767
 30
0.0
  0
VERTEX
  8
0
 10
876.99688721
 20
344.46218872
 30
0.0
  0
VERTEX
  8
0
 10
876.00042725
 20
344.48101807
 30
0.0
  0
VERTEX
  8
0
 10
875.0536499
 20
344.63433838
 30
0.0
  0
VERTEX
  8
0
 10
874.07873535
 20
345.00601196
 30
0.0
  0
VERTEX
  8
0
 10
874.00500488
 20
345.06707764
 30
0.0
  0
VERTEX
  8
0
 10
873.14208984
 20
345.99182129
 30
0.0
  0
VERTEX
  8
0
 10
873.00653076
 20
346.13647461
 30
0.0
  0
VERTEX
  8
0
 10
872.16040039
 20
346.99642944
 30
0.0
  0
VERTEX
  8
0
 10
871.99267578
 20
347.14611816
 30
0.0
  0
VERTEX
  8
0
 10
871.00280762
 20
347.91949463
 30
0.0
  0
VERTEX
  8
0
 10
870.89978027
 20
347.99255371
 30
0.0
  0
VERTEX
  8
0
 10
870.01544189
 20
348.61560059
 30
0.0
  0
VERTEX
  8
0
 10
869.49658203
 20
348.99569702
 30
0.0
  0
VERTEX
  8
0
 10
868.9956665
 20
349.37930298
 30
0.0
  0
VERTEX
  8
0
 10
868.15179443
 20
349.99822998
 30
0.0
  0
VERTEX
  8
0
 10
867.99267578
 20
350.08959961
 30
0.0
  0
VERTEX
  8
0
 10
867.03460693
 20
350.60205078
 30
0.0
  0
VERTEX
  8
0
 10
866.39770508
 20
350.9994812
 30
0.0
  0
VERTEX
  8
0
 10
865.99371338
 20
351.29391479
 30
0.0
  0
VERTEX
  8
0
 10
865.00042725
 20
351.98965454
 30
0.0
  0
VERTEX
  8
0
 10
864.98596191
 20
351.99871826
 30
0.0
  0
VERTEX
  8
0
 10
864.01898193
 20
352.59494019
 30
0.0
  0
VERTEX
  8
0
 10
863.41088867
 20
352.9894104
 30
0.0
  0
VERTEX
  8
0
 10
862.99926758
 20
353.27035522
 30
0.0
  0
VERTEX
  8
0
 10
862.00280762
 20
353.91610718
 30
0.0
  0
VERTEX
  8
0
 10
861.87670898
 20
353.99139404
 30
0.0
  0
VERTEX
  8
0
 10
861.02124023
 20
354.51925659
 30
0.0
  0
VERTEX
  8
0
 10
860.29516602
 20
354.99734497
 30
0.0
  0
VERTEX
  8
0
 10
859.99682617
 20
355.20352173
 30
0.0
  0
VERTEX
  8
0
 10
858.99841309
 20
355.85757446
 30
0.0
  0
VERTEX
  8
0
 10
858.76574707
 20
355.98086548
 30
0.0
  0
VERTEX
  8
0
 10
857.98626709
 20
356.2689209
 30
0.0
  0
VERTEX
  8
0
 10
857.0256958
 20
356.62161255
 30
0.0
  0
VERTEX
  8
0
 10
856.08209229
 20
357.00216675
 30
0.0
  0
VERTEX
  8
0
 10
855.99945068
 20
357.04400635
 30
0.0
  0
VERTEX
  8
0
 10
855.02026367
 20
357.60171509
 30
0.0
  0
VERTEX
  8
0
 10
854.38397217
 20
357.99197388
 30
0.0
  0
VERTEX
  8
0
 10
853.99121094
 20
358.23046875
 30
0.0
  0
VERTEX
  8
0
 10
853.01324463
 20
358.78500366
 30
0.0
  0
VERTEX
  8
0
 10
852.65686035
 20
358.98382568
 30
0.0
  0
VERTEX
  8
0
 10
852.02716064
 20
359.41390991
 30
0.0
  0
VERTEX
  8
0
 10
851.24468994
 20
360.02359009
 30
0.0
  0
VERTEX
  8
0
 10
851.00646973
 20
360.27301025
 30
0.0
  0
VERTEX
  8
0
 10
850.45294189
 20
361.00247192
 30
0.0
  0
VERTEX
  8
0
 10
849.98919678
 20
361.60876465
 30
0.0
  0
VERTEX
  8
0
 10
849.72033691
 20
362.02462769
 30
0.0
  0
VERTEX
  8
0
 10
849.11688232
 20
362.97381592
 30
0.0
  0
VERTEX
  8
0
 10
848.99658203
 20
363.0748291
 30
0.0
  0
VERTEX
  8
0
 10
848.06066895
 20
363.57727051
 30
0.0
  0
VERTEX
  8
0
 10
847.82684326
 20
363.99890137
 30
0.0
  0
VERTEX
  8
0
 10
848.06390381
 20
364.42150879
 30
0.0
  0
VERTEX
  8
0
 10
849.01171875
 20
364.69210815
 30
0.0
  0
VERTEX
  8
0
 10
850.01043701
 20
364.72946167
 30
0.0
  0
VERTEX
  8
0
 10
850.98345947
 20
364.75244141
 30
0.0
  0
VERTEX
  8
0
 10
851.99755859
 20
364.97692871
 30
0.0
  0
VERTEX
  8
0
 10
852.01538086
 20
364.99679565
 30
0.0
  0
VERTEX
  8
0
 10
851.99621582
 20
365.03198242
 30
0.0
  0
VERTEX
  8
0
 10
850.96630859
 20
365.37368774
 30
0.0
  0
VERTEX
  8
0
 10
850.02636719
 20
365.40551758
 30
0.0
  0
VERTEX
  8
0
 10
848.97802734
 20
365.34042358
 30
0.0
  0
VERTEX
  8
0
 10
848.00933838
 20
365.1706543
 30
0.0
  0
VERTEX
  8
0
 10
847.00244141
 20
365.02478027
 30
0.0
  0
VERTEX
  8
0
 10
846.9465332
 20
365.00561523
 30
0.0
  0
VERTEX
  8
0
 10
845.98376465
 20
364.82192993
 30
0.0
  0
VERTEX
  8
0
 10
844.99822998
 20
364.82220459
 30
0.0
  0
VERTEX
  8
0
 10
844.01531982
 20
365.05847168
 30
0.0
  0
VERTEX
  8
0
 10
843.04888916
 20
365.44732666
 30
0.0
  0
VERTEX
  8
0
 10
842.12463379
 20
366.00463867
 30
0.0
  0
VERTEX
  8
0
 10
842.00091553
 20
366.10449219
 30
0.0
  0
VERTEX
  8
0
 10
840.99987793
 20
366.98782349
 30
0.0
  0
VERTEX
  8
0
 10
840.98535156
 20
366.99920654
 30
0.0
  0
VERTEX
  8
0
 10
840.01055908
 20
367.69433594
 30
0.0
  0
VERTEX
  8
0
 10
839.60772705
 20
368.00076294
 30
0.0
  0
VERTEX
  8
0
 10
839.0
 20
368.5
 30
0.0
  0
VERTEX
  8
0
 10
838.37915039
 20
368.98193359
 30
0.0
  0
VERTEX
  8
0
 10
838.00097656
 20
369.25341797
 30
0.0
  0
VERTEX
  8
0
 10
837.00213623
 20
369.90853882
 30
0.0
  0
VERTEX
  8
0
 10
836.87921143
 20
370.00958252
 30
0.0
  0
VERTEX
  8
0
 10
836.00537109
 20
370.90066528
 30
0.0
  0
VERTEX
  8
0
 10
835.9296875
 20
371.00540161
 30
0.0
  0
VERTEX
  8
0
 10
835.37939453
 20
371.98849487
 30
0.0
  0
VERTEX
  8
0
 10
834.97515869
 20
372.62249756
 30
0.0
  0
VERTEX
  8
0
 10
834.67437744
 20
372.98858643
 30
0.0
  0
VERTEX
  8
0
 10
833.99658203
 20
373.66690063
 30
0.0
  0
VERTEX
  8
0
 10
833.64001465
 20
373.9927063
 30
0.0
  0
VERTEX
  8
0
 10
833.0057373
 20
374.55297852
 30
0.0
  0
VERTEX
  8
0
 10
832.51605225
 20
375.01599121
 30
0.0
  0
VERTEX
  8
0
 10
831.99212646
 20
375.54251099
 30
0.0
  0
VERTEX
  8
0
 10
831.51678467
 20
375.9569397
 30
0.0
  0
VERTEX
  8
0
 10
831.02124023
 20
376.35079956
 30
0.0
  0
VERTEX
  8
0
 10
830.19573975
 20
377.05975342
 30
0.0
  0
VERTEX
  8
0
 10
829.99029541
 20
377.32873535
 30
0.0
  0
VERTEX
  8
0
 10
829.88873291
 20
377.99822998
 30
0.0
  0
VERTEX
  8
0
 10
830.04138184
 20
378.32574463
 30
0.0
  0
VERTEX
  8
0
 10
831.02630615
 20
378.49838257
 30
0.0
  0
VERTEX
  8
0
 10
831.99816895
 20
378.4828186
 30
0.0
  0
VERTEX
  8
0
 10
832.96295166
 20
378.77975464
 30
0.0
  0
VERTEX
  8
0
 10
833.32897949
 20
379.02056885
 30
0.0
  0
VERTEX
  8
0
 10
834.0055542
 20
379.80123901
 30
0.0
  0
VERTEX
  8
0
 10
834.11157227
 20
380.01693726
 30
0.0
  0
VERTEX
  8
0
 10
834.23760986
 20
381.00012207
 30
0.0
  0
VERTEX
  8
0
 10
834.11291504
 20
381.98291016
 30
0.0
  0
VERTEX
  8
0
 10
834.00592041
 20
382.20269775
 30
0.0
  0
VERTEX
  8
0
 10
833.35253906
 20
382.99087524
 30
0.0
  0
VERTEX
  8
0
 10
832.96130371
 20
383.35107422
 30
0.0
  0
VERTEX
  8
0
 10
832.04467773
 20
384.00088501
 30
0.0
  0
VERTEX
  8
0
 10
831.9977417
 20
384.0206604
 30
0.0
  0
VERTEX
  8
0
 10
830.9911499
 20
384.17895508
 30
0.0
  0
VERTEX
  8
0
 10
830.01812744
 20
384.12701416
 30
0.0
  0
VERTEX
  8
0
 10
829.80871582
 20
384.02474976
 30
0.0
  0
VERTEX
  8
0
 10
828.9855957
 20
383.29074097
 30
0.0
  0
VERTEX
  8
0
 10
828.63830566
 20
382.96951294
 30
0.0
  0
VERTEX
  8
0
 10
827.90759277
 20
382.55700684
 30
0.0
  0
VERTEX
  8
0
 10
827.08520508
 20
382.51727295
 30
0.0
  0
VERTEX
  8
0
 10
826.05700684
 20
382.99938965
 30
0.0
  0
VERTEX
  8
0
 10
825.99853516
 20
383.03997803
 30
0.0
  0
VERTEX
  8
0
 10
825.01647949
 20
383.68841553
 30
0.0
  0
VERTEX
  8
0
 10
824.63079834
 20
384.03747559
 30
0.0
  0
VERTEX
  8
0
 10
823.98565674
 20
384.79504395
 30
0.0
  0
VERTEX
  8
0
 10
823.80957031
 20
384.99798584
 30
0.0
  0
VERTEX
  8
0
 10
822.99554443
 20
385.79537964
 30
0.0
  0
VERTEX
  8
0
 10
822.76513672
 20
385.9815979
 30
0.0
  0
VERTEX
  8
0
 10
822.04223633
 20
386.55270386
 30
0.0
  0
VERTEX
  8
0
 10
821.56756592
 20
387.01693726
 30
0.0
  0
VERTEX
  8
0
 10
820.99377441
 20
387.7421875
 30
0.0
  0
VERTEX
  8
0
 10
820.81481934
 20
388.01281738
 30
0.0
  0
VERTEX
  8
0
 10
820.20617676
 20
388.99331665
 30
0.0
  0
VERTEX
  8
0
 10
820.00640869
 20
389.32455444
 30
0.0
  0
VERTEX
  8
0
 10
819.61407471
 20
390.01635742
 30
0.0
  0
VERTEX
  8
0
 10
819.09973145
 20
390.99099731
 30
0.0
  0
VERTEX
  8
0
 10
818.99707031
 20
391.15222168
 30
0.0
  0
VERTEX
  8
0
 10
818.30340576
 20
392.00350952
 30
0.0
  0
VERTEX
  8
0
 10
817.99053955
 20
392.37231445
 30
0.0
  0
VERTEX
  8
0
 10
817.54388428
 20
393.05523682
 30
0.0
  0
VERTEX
  8
0
 10
817.0581665
 20
393.99810791
 30
0.0
  0
VERTEX
  8
0
 10
816.99859619
 20
394.13391113
 30
0.0
  0
VERTEX
  8
0
 10
816.52984619
 20
394.9753418
 30
0.0
  0
VERTEX
  8
0
 10
815.99963379
 20
395.82165527
 30
0.0
  0
VERTEX
  8
0
 10
815.89941406
 20
396.00997925
 30
0.0
  0
VERTEX
  8
0
 10
815.44012451
 20
396.97103882
 30
0.0
  0
VERTEX
  8
0
 10
814.98217773
 20
397.78814697
 30
0.0
  0
VERTEX
  8
0
 10
814.82952881
 20
398.00628662
 30
0.0
  0
VERTEX
  8
0
 10
814.07348633
 20
399.00854492
 30
0.0
  0
VERTEX
  8
0
 10
814.00494385
 20
399.1315918
 30
0.0
  0
VERTEX
  8
0
 10
813.66760254
 20
400.00216675
 30
0.0
  0
VERTEX
  8
0
 10
813.26959229
 20
400.98986816
 30
0.0
  0
VERTEX
  8
0
 10
812.98760986
 20
401.60116577
 30
0.0
  0
VERTEX
  8
0
 10
812.79644775
 20
402.01171875
 30
0.0
  0
VERTEX
  8
0
 10
812.32800293
 20
402.98416138
 30
0.0
  0
VERTEX
  8
0
 10
811.97735596
 20
403.61987305
 30
0.0
  0
VERTEX
  8
0
 10
811.74621582
 20
404.01858521
 30
0.0
  0
VERTEX
  8
0
 10
811.1618042
 20
404.98510742
 30
0.0
  0
VERTEX
  8
0
 10
811.00305176
 20
405.22372437
 30
0.0
  0
VERTEX
  8
0
 10
810.42315674
 20
406.03182983
 30
0.0
  0
VERTEX
  8
0
 10
809.987854
 20
406.70947266
 30
0.0
  0
VERTEX
  8
0
 10
809.84082031
 20
407.01150513
 30
0.0
  0
VERTEX
  8
0
 10
809.3671875
 20
407.98812866
 30
0.0
  0
VERTEX
  8
0
 10
808.98486328
 20
408.72750854
 30
0.0
  0
VERTEX
  8
0
 10
808.84686279
 20
409.01397705
 30
0.0
  0
VERTEX
  8
0
 10
808.4864502
 20
410.02047729
 30
0.0
  0
VERTEX
  8
0
 10
808.23120117
 20
410.99703979
 30
0.0
  0
VERTEX
  8
0
 10
808.02044678
 20
411.99771118
 30
0.0
  0
VERTEX
  8
0
 10
808.00134277
 20
412.04382324
 30
0.0
  0
VERTEX
  8
0
 10
807.41046143
 20
413.00473022
 30
0.0
  0
VERTEX
  8
0
 10
806.98553467
 20
413.68066406
 30
0.0
  0
VERTEX
  8
0
 10
806.80487061
 20
414.01608276
 30
0.0
  0
VERTEX
  8
0
 10
806.33306885
 20
415.00723267
 30
0.0
  0
VERTEX
  8
0
 10
805.99176025
 20
415.8079834
 30
0.0
  0
VERTEX
  8
0
 10
805.91674805
 20
416.00387573
 30
0.0
  0
VERTEX
  8
0
 10
805.53344727
 20
416.99810791
 30
0.0
  0
VERTEX
  8
0
 10
805.13909912
 20
417.9942627
 30
0.0
  0
VERTEX
  8
0
 10
805.00213623
 20
418.30749512
 30
0.0
  0
VERTEX
  8
0
 10
804.71960449
 20
419.01831055
 30
0.0
  0
VERTEX
  8
0
 10
804.43756104
 20
420.00686646
 30
0.0
  0
VERTEX
  8
0
 10
804.23681641
 20
420.99853516
 30
0.0
  0
VERTEX
  8
0
 10
804.03967285
 20
421.99591064
 30
0.0
  0
VERTEX
  8
0
 10
804.00018311
 20
422.09765625
 30
0.0
  0
VERTEX
  8
0
 10
803.51953125
 20
423.03012085
 30
0.0
  0
VERTEX
  8
0
 10
803.17541504
 20
424.01815796
 30
0.0
  0
VERTEX
  8
0
 10
802.99932861
 20
424.93325806
 30
0.0
  0
VERTEX
  8
0
 10
802.99713135
 20
424.99996948
 30
0.0
  0
VERTEX
  8
0
 10
802.99938965
 20
425.0909729
 30
0.0
  0
VERTEX
  8
0
 10
803.0279541
 20
426.00082397
 30
0.0
  0
VERTEX
  8
0
 10
802.99957275
 20
426.31240845
 30
0.0
  0
VERTEX
  8
0
 10
802.79675293
 20
426.98623657
 30
0.0
  0
VERTEX
  8
0
 10
802.49414063
 20
428.01882935
 30
0.0
  0
VERTEX
  8
0
 10
802.20300293
 20
428.99334717
 30
0.0
  0
VERTEX
  8
0
 10
801.98980713
 20
429.75674438
 30
0.0
  0
VERTEX
  8
0
 10
801.92938232
 20
430.00521851
 30
0.0
  0
VERTEX
  8
0
 10
801.73754883
 20
431.00018311
 30
0.0
  0
VERTEX
  8
0
 10
801.55664063
 20
431.99691772
 30
0.0
  0
VERTEX
  8
0
 10
801.32330322
 20
432.99041748
 30
0.0
  0
VERTEX
  8
0
 10
801.02563477
 20
433.99835205
 30
0.0
  0
VERTEX
  8
0
 10
801.00189209
 20
434.06051636
 30
0.0
  0
VERTEX
  8
0
 10
800.66253662
 20
435.0222168
 30
0.0
  0
VERTEX
  8
0
 10
800.45080566
 20
436.00588989
 30
0.0
  0
VERTEX
  8
0
 10
800.33148193
 20
436.9972229
 30
0.0
  0
VERTEX
  8
0
 10
800.21142578
 20
437.99691772
 30
0.0
  0
VERTEX
  8
0
 10
800.02685547
 20
438.9977417
 30
0.0
  0
VERTEX
  8
0
 10
800.0020752
 20
439.07785034
 30
0.0
  0
VERTEX
  8
0
 10
799.68725586
 20
440.02325439
 30
0.0
  0
VERTEX
  8
0
 10
799.46166992
 20
441.00100708
 30
0.0
  0
VERTEX
  8
0
 10
799.29815674
 20
441.99530029
 30
0.0
  0
VERTEX
  8
0
 10
799.15008545
 20
443.00592041
 30
0.0
  0
VERTEX
  8
0
 10
799.01348877
 20
443.99978638
 30
0.0
  0
VERTEX
  8
0
 10
798.99969482
 20
444.11761475
 30
0.0
  0
VERTEX
  8
0
 10
798.84112549
 20
444.9921875
 30
0.0
  0
VERTEX
  8
0
 10
798.67712402
 20
446.01043701
 30
0.0
  0
VERTEX
  8
0
 10
798.59625244
 20
446.99957275
 30
0.0
  0
VERTEX
  8
0
 10
798.56915283
 20
447.99975586
 30
0.0
  0
VERTEX
  8
0
 10
798.54083252
 20
449.00057983
 30
0.0
  0
VERTEX
  8
0
 10
798.4697876
 20
450.0007019
 30
0.0
  0
VERTEX
  8
0
 10
798.42730713
 20
451.00024414
 30
0.0
  0
VERTEX
  8
0
 10
798.42480469
 20
451.99969482
 30
0.0
  0
VERTEX
  8
0
 10
798.60467529
 20
452.95318604
 30
0.0
  0
VERTEX
  8
0
 10
799.2041626
 20
453.64279175
 30
0.0
  0
VERTEX
  8
0
 10
800.00482178
 20
453.93222046
 30
0.0
  0
VERTEX
  8
0
 10
800.14257813
 20
454.02865601
 30
0.0
  0
VERTEX
  8
0
 10
800.20141602
 20
454.97842407
 30
0.0
  0
VERTEX
  8
0
 10
800.00964355
 20
455.11437988
 30
0.0
  0
VERTEX
  8
0
 10
799.18395996
 20
455.4085083
 30
0.0
  0
VERTEX
  8
0
 10
798.55328369
 20
456.06350708
 30
0.0
  0
VERTEX
  8
0
 10
798.35180664
 20
456.99990845
 30
0.0
  0
VERTEX
  8
0
 10
798.33935547
 20
458.00006104
 30
0.0
  0
VERTEX
  8
0
 10
798.31536865
 20
458.99978638
 30
0.0
  0
VERTEX
  8
0
 10
798.28497314
 20
459.99993896
 30
0.0
  0
VERTEX
  8
0
 10
798.29193115
 20
460.99859619
 30
0.0
  0
VERTEX
  8
0
 10
798.29199219
 20
462.00112915
 30
0.0
  0
VERTEX
  8
0
 10
798.26196289
 20
462.99765015
 30
0.0
  0
VERTEX
  8
0
 10
798.22943115
 20
464.00146484
 30
0.0
  0
VERTEX
  8
0
 10
798.24908447
 20
464.99993896
 30
0.0
  0
VERTEX
  8
0
 10
798.27313232
 20
465.99917603
 30
0.0
  0
VERTEX
  8
0
 10
798.28442383
 20
467.00186157
 30
0.0
  0
VERTEX
  8
0
 10
798.29711914
 20
467.99884033
 30
0.0
  0
VERTEX
  8
0
 10
798.35675049
 20
469.00161743
 30
0.0
  0
VERTEX
  8
0
 10
798.45257568
 20
469.99542236
 30
0.0
  0
VERTEX
  8
0
 10
798.55218506
 20
471.00265503
 30
0.0
  0
VERTEX
  8
0
 10
798.69592285
 20
471.99789429
 30
0.0
  0
VERTEX
  8
0
 10
798.85858154
 20
472.99597168
 30
0.0
  0
VERTEX
  8
0
 10
798.99816895
 20
473.67785645
 30
0.0
  0
VERTEX
  8
0
 10
799.09240723
 20
473.99328613
 30
0.0
  0
VERTEX
  8
0
 10
799.34307861
 20
475.02182007
 30
0.0
  0
VERTEX
  8
0
 10
799.41772461
 20
475.99459839
 30
0.0
  0
VERTEX
  8
0
 10
799.39483643
 20
477.00506592
 30
0.0
  0
VERTEX
  8
0
 10
799.42919922
 20
477.99258423
 30
0.0
  0
VERTEX
  8
0
 10
799.54345703
 20
479.00793457
 30
0.0
  0
VERTEX
  8
0
 10
799.64428711
 20
480.00009155
 30
0.0
  0
VERTEX
  8
0
 10
799.67919922
 20
481.00015259
 30
0.0
  0
VERTEX
  8
0
 10
799.80712891
 20
481.98275757
 30
0.0
  0
VERTEX
  8
0
 10
800.00024414
 20
482.77349854
 30
0.0
  0
VERTEX
  8
0
 10
800.07763672
 20
483.00265503
 30
0.0
  0
VERTEX
  8
0
 10
800.43023682
 20
483.9810791
 30
0.0
  0
VERTEX
  8
0
 10
800.84344482
 20
485.00100708
 30
0.0
  0
VERTEX
  8
0
 10
800.98944092
 20
485.34838867
 30
0.0
  0
VERTEX
  8
0
 10
801.16986084
 20
486.01324463
 30
0.0
  0
VERTEX
  8
0
 10
801.32666016
 20
487.00012207
 30
0.0
  0
VERTEX
  8
0
 10
801.41174316
 20
488.00003052
 30
0.0
  0
VERTEX
  8
0
 10
801.44085693
 20
489.00009155
 30
0.0
  0
VERTEX
  8
0
 10
801.46563721
 20
490.00021362
 30
0.0
  0
VERTEX
  8
0
 10
801.64550781
 20
490.94754028
 30
0.0
  0
VERTEX
  8
0
 10
802.00891113
 20
491.73208618
 30
0.0
  0
VERTEX
  8
0
 10
802.15228271
 20
492.02111816
 30
0.0
  0
VERTEX
  8
0
 10
802.51678467
 20
492.99060059
 30
0.0
  0
VERTEX
  8
0
 10
802.878479
 20
493.99285889
 30
0.0
  0
VERTEX
  8
0
 10
802.98474121
 20
494.26358032
 30
0.0
  0
VERTEX
  8
0
 10
803.22839355
 20
495.01568604
 30
0.0
  0
VERTEX
  8
0
 10
803.54034424
 20
495.97113037
 30
0.0
  0
VERTEX
  8
0
 10
803.91204834
 20
496.99899292
 30
0.0
  0
VERTEX
  8
0
 10
803.98822021
 20
497.18756104
 30
0.0
  0
VERTEX
  8
0
 10
804.26031494
 20
498.00549316
 30
0.0
  0
VERTEX
  8
0
 10
804.61505127
 20
498.97647095
 30
0.0
  0
VERTEX
  8
0
 10
805.00775146
 20
499.88964844
 30
0.0
  0
VERTEX
  8
0
 10
805.05493164
 20
500.00595093
 30
0.0
  0
VERTEX
  8
0
 10
805.30187988
 20
501.01464844
 30
0.0
  0
VERTEX
  8
0
 10
805.45074463
 20
501.99951172
 30
0.0
  0
VERTEX
  8
0
 10
805.66278076
 20
502.95916748
 30
0.0
  0
VERTEX
  8
0
 10
806.0123291
 20
503.81564331
 30
0.0
  0
VERTEX
  8
0
 10
806.10443115
 20
504.01235962
 30
0.0
  0
VERTEX
  8
0
 10
806.47216797
 20
505.00421143
 30
0.0
  0
VERTEX
  8
0
 10
806.82055664
 20
505.98980713
 30
0.0
  0
VERTEX
  8
0
 10
806.99005127
 20
506.44369507
 30
0.0
  0
VERTEX
  8
0
 10
807.19555664
 20
507.00921631
 30
0.0
  0
VERTEX
  8
0
 10
807.5168457
 20
507.99084473
 30
0.0
  0
VERTEX
  8
0
 10
807.87738037
 20
508.98742676
 30
0.0
  0
VERTEX
  8
0
 10
807.97998047
 20
509.22979736
 30
0.0
  0
VERTEX
  8
0
 10
808.35601807
 20
510.00115967
 30
0.0
  0
VERTEX
  8
0
 10
808.81121826
 20
510.99829102
 30
0.0
  0
VERTEX
  8
0
 10
808.98834229
 20
511.41113281
 30
0.0
  0
VERTEX
  8
0
 10
809.171875
 20
512.01293945
 30
0.0
  0
VERTEX
  8
0
 10
809.47424316
 20
512.96588135
 30
0.0
  0
VERTEX
  8
0
 10
809.88494873
 20
513.98583984
 30
0.0
  0
VERTEX
  8
0
 10
809.98657227
 20
514.15734863
 30
0.0
  0
VERTEX
  8
0
 10
810.60681152
 20
514.9798584
 30
0.0
  0
VERTEX
  8
0
 10
810.99438477
 20
515.47503662
 30
0.0
  0
VERTEX
  8
0
 10
811.43804932
 20
516.00323486
 30
0.0
  0
VERTEX
  8
0
 10
812.00378418
 20
516.69348145
 30
0.0
  0
VERTEX
  8
0
 10
812.18597412
 20
517.02722168
 30
0.0
  0
VERTEX
  8
0
 10
812.45733643
 20
518.0123291
 30
0.0
  0
VERTEX
  8
0
 10
812.5680542
 20
519.00018311
 30
0.0
  0
VERTEX
  8
0
 10
812.74713135
 20
519.96221924
 30
0.0
  0
VERTEX
  8
0
 10
813.0112915
 20
520.58837891
 30
0.0
  0
VERTEX
  8
0
 10
813.31091309
 20
521.00476074
 30
0.0
  0
VERTEX
  8
0
 10
814.00128174
 20
521.93304443
 30
0.0
  0
VERTEX
  8
0
 10
814.05163574
 20
522.00048828
 30
0.0
  0
VERTEX
  8
0
 10
814.82641602
 20
522.99066162
 30
0.0
  0
VERTEX
  8
0
 10
814.97766113
 20
523.20654297
 30
0.0
  0
VERTEX
  8
0
 10
815.47570801
 20
524.0135498
 30
0.0
  0
VERTEX
  8
0
 10
816.0020752
 20
524.97875977
 30
0.0
  0
VERTEX
  8
0
 10
816.01318359
 20
525.00109863
 30
0.0
  0
VERTEX
  8
0
 10
816.56335449
 20
525.96154785
 30
0.0
  0
VERTEX
  8
0
 10
817.0055542
 20
526.59204102
 30
0.0
  0
VERTEX
  8
0
 10
817.31481934
 20
527.02960205
 30
0.0
  0
VERTEX
  8
0
 10
817.90332031
 20
527.99761963
 30
0.0
  0
VERTEX
  8
0
 10
817.99530029
 20
528.16918945
 30
0.0
  0
VERTEX
  8
0
 10
818.50482178
 20
528.95684814
 30
0.0
  0
VERTEX
  8
0
 10
818.99041748
 20
529.60852051
 30
0.0
  0
VERTEX
  8
0
 10
819.30480957
 20
530.01574707
 30
0.0
  0
VERTEX
  8
0
 10
819.9630127
 20
530.99810791
 30
0.0
  0
VERTEX
  8
0
 10
819.99609375
 20
531.05230713
 30
0.0
  0
VERTEX
  8
0
 10
820.62231445
 20
531.95397949
 30
0.0
  0
VERTEX
  8
0
 10
821.02471924
 20
532.3505249
 30
0.0
  0
VERTEX
  8
0
 10
821.99932861
 20
532.99328613
 30
0.0
  0
VERTEX
  8
0
 10
822.00665283
 20
533.00067139
 30
0.0
  0
VERTEX
  8
0
 10
822.57781982
 20
534.01281738
 30
0.0
  0
VERTEX
  8
0
 10
823.00744629
 20
534.80804443
 30
0.0
  0
VERTEX
  8
0
 10
823.10473633
 20
535.00366211
 30
0.0
  0
VERTEX
  8
0
 10
823.65136719
 20
535.97497559
 30
0.0
  0
VERTEX
  8
0
 10
823.99743652
 20
536.519104
 30
0.0
  0
VERTEX
  8
0
 10
824.35528564
 20
536.99938965
 30
0.0
  0
VERTEX
  8
0
 10
825.00335693
 20
537.8692627
 30
0.0
  0
VERTEX
  8
0
 10
825.09979248
 20
538.00408936
 30
0.0
  0
VERTEX
  8
0
 10
825.80377197
 20
538.99188232
 30
0.0
  0
VERTEX
  8
0
 10
826.01379395
 20
539.23571777
 30
0.0
  0
VERTEX
  8
0
 10
826.79724121
 20
540.01324463
 30
0.0
  0
VERTEX
  8
0
 10
826.98065186
 20
540.24102783
 30
0.0
  0
VERTEX
  8
0
 10
827.47979736
 20
540.97833252
 30
0.0
  0
VERTEX
  8
0
 10
827.99414063
 20
541.72265625
 30
0.0
  0
VERTEX
  8
0
 10
828.20544434
 20
541.99267578
 30
0.0
  0
VERTEX
  8
0
 10
829.00042725
 20
542.99182129
 30
0.0
  0
VERTEX
  8
0
 10
829.00671387
 20
543.00067139
 30
0.0
  0
VERTEX
  8
0
 10
829.65777588
 20
543.97576904
 30
0.0
  0
VERTEX
  8
0
 10
830.00054932
 20
544.42468262
 30
0.0
  0
VERTEX
  8
0
 10
830.51824951
 20
544.99615479
 30
0.0
  0
VERTEX
  8
0
 10
830.97869873
 20
545.53662109
 30
0.0
  0
VERTEX
  8
0
 10
831.36932373
 20
545.97998047
 30
0.0
  0
VERTEX
  8
0
 10
832.02325439
 20
546.67553711
 30
0.0
  0
VERTEX
  8
0
 10
832.38665771
 20
547.00177002
 30
0.0
  0
VERTEX
  8
0
 10
832.98486328
 20
547.50268555
 30
0.0
  0
VERTEX
  8
0
 10
833.53796387
 20
548.00250244
 30
0.0
  0
VERTEX
  8
0
 10
834.02416992
 20
548.42144775
 30
0.0
  0
VERTEX
  8
0
 10
834.7456665
 20
549.02191162
 30
0.0
  0
VERTEX
  8
0
 10
835.00982666
 20
549.23455811
 30
0.0
  0
VERTEX
  8
0
 10
835.87640381
 20
550.00134277
 30
0.0
  0
VERTEX
  8
0
 10
835.99243164
 20
550.11682129
 30
0.0
  0
VERTEX
  8
0
 10
836.77307129
 20
550.99719238
 30
0.0
  0
VERTEX
  8
0
 10
836.98956299
 20
551.26049805
 30
0.0
  0
VERTEX
  8
0
 10
837.59533691
 20
551.98156738
 30
0.0
  0
VERTEX
  8
0
 10
837.97570801
 20
552.45849609
 30
0.0
  0
VERTEX
  8
0
 10
838.40374756
 20
553.00158691
 30
0.0
  0
VERTEX
  8
0
 10
839.01416016
 20
553.82873535
 30
0.0
  0
VERTEX
  8
0
 10
839.16656494
 20
553.99041748
 30
0.0
  0
VERTEX
  8
0
 10
840.01904297
 20
554.65216064
 30
0.0
  0
VERTEX
  8
0
 10
840.50317383
 20
555.02636719
 30
0.0
  0
VERTEX
  8
0
 10
841.00653076
 20
555.40283203
 30
0.0
  0
VERTEX
  8
0
 10
841.74127197
 20
556.00476074
 30
0.0
  0
VERTEX
  8
0
 10
842.00708008
 20
556.20916748
 30
0.0
  0
VERTEX
  8
0
 10
842.99987793
 20
556.95507813
 30
0.0
  0
VERTEX
  8
0
 10
843.0614624
 20
556.99871826
 30
0.0
  0
VERTEX
  8
0
 10
843.99151611
 20
557.65332031
 30
0.0
  0
VERTEX
  8
0
 10
844.45709229
 20
558.00878906
 30
0.0
  0
VERTEX
  8
0
 10
845.00830078
 20
558.45129395
 30
0.0
  0
VERTEX
  8
0
 10
845.68688965
 20
559.00775146
 30
0.0
  0
VERTEX
  8
0
 10
846.01690674
 20
559.24163818
 30
0.0
  0
VERTEX
  8
0
 10
846.99810791
 20
559.88580322
 30
0.0
  0
VERTEX
  8
0
 10
847.17706299
 20
559.99908447
 30
0.0
  0
VERTEX
  8
0
 10
848.00640869
 20
560.52404785
 30
0.0
  0
VERTEX
  8
0
 10
848.77191162
 20
561.01605225
 30
0.0
  0
VERTEX
  8
0
 10
849.01348877
 20
561.15246582
 30
0.0
  0
VERTEX
  8
0
 10
850.0032959
 20
561.68035889
 30
0.0
  0
VERTEX
  8
0
 10
850.64379883
 20
562.0201416
 30
0.0
  0
VERTEX
  8
0
 10
851.0022583
 20
562.22259521
 30
0.0
  0
VERTEX
  8
0
 10
851.99938965
 20
562.85015869
 30
0.0
  0
VERTEX
  8
0
 10
852.23468018
 20
563.00415039
 30
0.0
  0
VERTEX
  8
0
 10
853.02319336
 20
563.48608398
 30
0.0
  0
VERTEX
  8
0
 10
853.94604492
 20
564.00445557
 30
0.0
  0
VERTEX
  8
0
 10
854.00054932
 20
564.03625488
 30
0.0
  0
VERTEX
  8
0
 10
855.00482178
 20
564.70062256
 30
0.0
  0
VERTEX
  8
0
 10
855.45281982
 20
565.02490234
 30
0.0
  0
VERTEX
  8
0
 10
856.01464844
 20
565.43200684
 30
0.0
  0
VERTEX
  8
0
 10
856.77355957
 20
566.00323486
 30
0.0
  0
VERTEX
  8
0
 10
856.99951172
 20
566.16943359
 30
0.0
  0
VERTEX
  8
0
 10
857.99835205
 20
566.9331665
 30
0.0
  0
VERTEX
  8
0
 10
858.07867432
 20
567.00299072
 30
0.0
  0
VERTEX
  8
0
 10
859.00439453
 20
567.90466309
 30
0.0
  0
VERTEX
  8
0
 10
859.10998535
 20
567.99975586
 30
0.0
  0
VERTEX
  8
0
 10
859.9887085
 20
568.7432251
 30
0.0
  0
VERTEX
  8
0
 10
860.28594971
 20
568.97991943
 30
0.0
  0
VERTEX
  8
0
 10
860.98040771
 20
569.56079102
 30
0.0
  0
VERTEX
  8
0
 10
861.48321533
 20
570.0090332
 30
0.0
  0
VERTEX
  8
0
 10
862.02984619
 20
570.49841309
 30
0.0
  0
VERTEX
  8
0
 10
862.64086914
 20
570.99945068
 30
0.0
  0
VERTEX
  8
0
 10
863.01806641
 20
571.22479248
 30
0.0
  0
VERTEX
  8
0
 10
864.01947021
 20
571.65979004
 30
0.0
  0
VERTEX
  8
0
 10
865.00048828
 20
571.98272705
 30
0.0
  0
VERTEX
  8
0
 10
865.0715332
 20
571.99938965
 30
0.0
  0
VERTEX
  8
0
 10
865.98449707
 20
572.23724365
 30
0.0
  0
VERTEX
  8
0
 10
867.00341797
 20
572.55236816
 30
0.0
  0
VERTEX
  8
0
 10
867.9899292
 20
572.93371582
 30
0.0
  0
VERTEX
  8
0
 10
868.0859375
 20
573.00537109
 30
0.0
  0
VERTEX
  8
0
 10
868.85723877
 20
573.99737549
 30
0.0
  0
VERTEX
  8
0
 10
869.00872803
 20
574.16882324
 30
0.0
  0
VERTEX
  8
0
 10
869.85083008
 20
574.99505615
 30
0.0
  0
VERTEX
  8
0
 10
870.01196289
 20
575.10473633
 30
0.0
  0
VERTEX
  8
0
 10
870.99005127
 20
575.58837891
 30
0.0
  0
VERTEX
  8
0
 10
871.82098389
 20
576.01275635
 30
0.0
  0
VERTEX
  8
0
 10
872.00891113
 20
576.07550049
 30
0.0
  0
VERTEX
  8
0
 10
872.99212646
 20
576.11895752
 30
0.0
  0
VERTEX
  8
0
 10
873.69006348
 20
575.99761963
 30
0.0
  0
VERTEX
  8
0
 10
873.99890137
 20
575.96020508
 30
0.0
  0
VERTEX
  8
0
 10
874.39526367
 20
576.00030518
 30
0.0
  0
VERTEX
  8
0
 10
874.99945068
 20
576.18359375
 30
0.0
  0
VERTEX
  8
0
 10
876.01208496
 20
576.43640137
 30
0.0
  0
VERTEX
  8
0
 10
876.97290039
 20
576.72320557
 30
0.0
  0
VERTEX
  8
0
 10
877.72918701
 20
577.02410889
 30
0.0
  0
VERTEX
  8
0
 10
877.972229
 20
577.22113037
 30
0.0
  0
VERTEX
  8
0
 10
878.64678955
 20
577.9932251
 30
0.0
  0
VERTEX
  8
0
 10
879.0456543
 20
578.23382568
 30
0.0
  0
VERTEX
  8
0
 10
879.95501709
 20
578.23608398
 30
0.0
  0
VERTEX
  8
0
 10
880.38525391
 20
577.99920654
 30
0.0
  0
VERTEX
  8
0
 10
881.07897949
 20
577.45220947
 30
0.0
  0
VERTEX
  8
0
 10
881.8828125
 20
576.99243164
 30
0.0
  0
VERTEX
  8
0
 10
882.00585938
 20
576.9743042
 30
0.0
  0
VERTEX
  8
0
 10
882.0111084
 20
577.00042725
 30
0.0
  0
VERTEX
  8
0
 10
882.00140381
 20
577.05206299
 30
0.0
  0
VERTEX
  8
0
 10
881.64990234
 20
578.04901123
 30
0.0
  0
VERTEX
  8
0
 10
881.7064209
 20
578.93450928
 30
0.0
  0
VERTEX
  8
0
 10
882.04064941
 20
579.28320313
 30
0.0
  0
VERTEX
  8
0
 10
882.9677124
 20
579.70861816
 30
0.0
  0
VERTEX
  8
0
 10
883.56915283
 20
580.02520752
 30
0.0
  0
VERTEX
  8
0
 10
884.01409912
 20
580.34649658
 30
0.0
  0
VERTEX
  8
0
 10
884.87445068
 20
581.00543213
 30
0.0
  0
VERTEX
  8
0
 10
885.01037598
 20
581.07574463
 30
0.0
  0
VERTEX
  8
0
 10
886.01184082
 20
581.37506104
 30
0.0
  0
VERTEX
  8
0
 10
886.99884033
 20
581.59423828
 30
0.0
  0
VERTEX
  8
0
 10
887.99456787
 20
581.79608154
 30
0.0
  0
VERTEX
  8
0
 10
888.85253906
 20
582.00152588
 30
0.0
  0
VERTEX
  8
0
 10
888.99682617
 20
582.05059814
 30
0.0
  0
VERTEX
  8
0
 10
890.01300049
 20
582.42401123
 30
0.0
  0
VERTEX
  8
0
 10
891.00134277
 20
582.75024414
 30
0.0
  0
VERTEX
  8
0
 10
891.87969971
 20
583.00457764
 30
0.0
  0
VERTEX
  8
0
 10
892.00140381
 20
583.03790283
 30
0.0
  0
VERTEX
  8
0
 10
893.00732422
 20
583.27630615
 30
0.0
  0
VERTEX
  8
0
 10
894.00231934
 20
583.45330811
 30
0.0
  0
VERTEX
  8
0
 10
894.99993896
 20
583.57824707
 30
0.0
  0
VERTEX
  8
0
 10
896.00042725
 20
583.68218994
 30
0.0
  0
VERTEX
  8
0
 10
897.00140381
 20
583.7598877
 30
0.0
  0
VERTEX
  8
0
 10
897.99688721
 20
583.84765625
 30
0.0
  0
VERTEX
  8
0
 10
898.99865723
 20
583.95983887
 30
0.0
  0
VERTEX
  8
0
 10
899.21429443
 20
584.0
 30
0.0
  0
VERTEX
  8
0
 10
900.00592041
 20
584.14025879
 30
0.0
  0
VERTEX
  8
0
 10
900.99816895
 20
584.28570557
 30
0.0
  0
VERTEX
  8
0
 10
901.99822998
 20
584.41900635
 30
0.0
  0
VERTEX
  8
0
 10
903.0010376
 20
584.57397461
 30
0.0
  0
VERTEX
  8
0
 10
903.99841309
 20
584.74298096
 30
0.0
  0
VERTEX
  8
0
 10
904.99597168
 20
584.9354248
 30
0.0
  0
VERTEX
  8
0
 10
905.22613525
 20
585.00701904
 30
0.0
  0
VERTEX
  8
0
 10
906.00726318
 20
585.32452393
 30
0.0
  0
VERTEX
  8
0
 10
907.01495361
 20
585.66235352
 30
0.0
  0
VERTEX
  8
0
 10
908.00524902
 20
585.88214111
 30
0.0
  0
VERTEX
  8
0
 10
908.91662598
 20
586.00067139
 30
0.0
  0
VERTEX
  8
0
 10
909.00006104
 20
586.00482178
 30
0.0
  0
VERTEX
  8
0
 10
909.99102783
 20
586.09088135
 30
0.0
  0
VERTEX
  8
0
 10
911.00714111
 20
586.2076416
 30
0.0
  0
VERTEX
  8
0
 10
911.99700928
 20
586.37426758
 30
0.0
  0
VERTEX
  8
0
 10
913.00463867
 20
586.47497559
 30
0.0
  0
VERTEX
  8
0
 10
913.9911499
 20
586.46368408
 30
0.0
  0
VERTEX
  8
0
 10
915.00860596
 20
586.40905762
 30
0.0
  0
VERTEX
  8
0
 10
915.99639893
 20
586.39910889
 30
0.0
  0
VERTEX
  8
0
 10
917.00366211
 20
586.48144531
 30
0.0
  0
VERTEX
  8
0
 10
918.00012207
 20
586.55877686
 30
0.0
  0
VERTEX
  8
0
 10
918.99707031
 20
586.63049316
 30
0.0
  0
VERTEX
  8
0
 10
919.98803711
 20
586.78833008
 30
0.0
  0
VERTEX
  8
0
 10
920.8024292
 20
587.01300049
 30
0.0
  0
VERTEX
  8
0
 10
921.00366211
 20
587.05224609
 30
0.0
  0
VERTEX
  8
0
 10
921.99688721
 20
587.06799316
 30
0.0
  0
VERTEX
  8
0
 10
922.53460693
 20
587.00549316
 30
0.0
  0
VERTEX
  8
0
 10
923.0
 20
586.96691895
 30
0.0
  0
VERTEX
  8
0
 10
923.46563721
 20
587.00457764
 30
0.0
  0
VERTEX
  8
0
 10
924.00463867
 20
587.0914917
 30
0.0
  0
VERTEX
  8
0
 10
924.99578857
 20
587.1192627
 30
0.0
  0
VERTEX
  8
0
 10
925.99969482
 20
587.02478027
 30
0.0
  0
VERTEX
  8
0
 10
926.13061523
 20
587.00085449
 30
0.0
  0
VERTEX
  8
0
 10
926.99487305
 20
586.8125
 30
0.0
  0
VERTEX
  8
0
 10
928.00518799
 20
586.59173584
 30
0.0
  0
VERTEX
  8
0
 10
929.00543213
 20
586.41674805
 30
0.0
  0
VERTEX
  8
0
 10
929.99835205
 20
586.29083252
 30
0.0
  0
VERTEX
  8
0
 10
931.00091553
 20
586.19750977
 30
0.0
  0
VERTEX
  8
0
 10
931.996521
 20
586.06854248
 30
0.0
  0
VERTEX
  8
0
 10
932.37738037
 20
586.01159668
 30
0.0
  0
VERTEX
  8
0
 10
933.00042725
 20
585.89208984
 30
0.0
  0
VERTEX
  8
0
 10
934.003479
 20
585.75146484
 30
0.0
  0
VERTEX
  8
0
 10
934.99957275
 20
585.63787842
 30
0.0
  0
VERTEX
  8
0
 10
936.00036621
 20
585.55163574
 30
0.0
  0
VERTEX
  8
0
 10
937.00042725
 20
585.47070313
 30
0.0
  0
VERTEX
  8
0
 10
937.99768066
 20
585.37677002
 30
0.0
  0
VERTEX
  8
0
 10
939.00299072
 20
585.30426025
 30
0.0
  0
VERTEX
  8
0
 10
939.99938965
 20
585.27526855
 30
0.0
  0
VERTEX
  8
0
 10
941.00048828
 20
585.27996826
 30
0.0
  0
VERTEX
  8
0
 10
942.00006104
 20
585.2822876
 30
0.0
  0
VERTEX
  8
0
 10
942.99847412
 20
585.29614258
 30
0.0
  0
VERTEX
  8
0
 10
944.00036621
 20
585.35021973
 30
0.0
  0
VERTEX
  8
0
 10
944.99169922
 20
585.33294678
 30
0.0
  0
VERTEX
  8
0
 10
945.99749756
 20
585.19177246
 30
0.0
  0
VERTEX
  8
0
 10
946.72674561
 20
584.99798584
 30
0.0
  0
VERTEX
  8
0
 10
946.99395752
 20
584.90478516
 30
0.0
  0
VERTEX
  8
0
 10
948.01904297
 20
584.54681396
 30
0.0
  0
VERTEX
  8
0
 10
949.00921631
 20
584.31658936
 30
0.0
  0
VERTEX
  8
0
 10
950.00006104
 20
584.21484375
 30
0.0
  0
VERTEX
  8
0
 10
950.99224854
 20
584.11767578
 30
0.0
  0
VERTEX
  8
0
 10
951.63812256
 20
584.0065918
 30
0.0
  0
VERTEX
  8
0
 10
951.99981689
 20
583.9130249
 30
0.0
  0
VERTEX
  8
0
 10
952.99523926
 20
583.65466309
 30
0.0
  0
VERTEX
  8
0
 10
953.98010254
 20
583.32232666
 30
0.0
  0
VERTEX
  8
0
 10
954.72998047
 20
582.99359131
 30
0.0
  0
VERTEX
  8
0
 10
955.00689697
 20
582.86126709
 30
0.0
  0
VERTEX
  8
0
 10
956.01025391
 20
582.43963623
 30
0.0
  0
VERTEX
  8
0
 10
957.00567627
 20
582.08917236
 30
0.0
  0
VERTEX
  8
0
 10
957.33441162
 20
582.00579834
 30
0.0
  0
VERTEX
  8
0
 10
958.00030518
 20
581.88726807
 30
0.0
  0
VERTEX
  8
0
 10
959.00018311
 20
581.72210693
 30
0.0
  0
VERTEX
  8
0
 10
959.9989624
 20
581.55432129
 30
0.0
  0
VERTEX
  8
0
 10
960.99664307
 20
581.36499023
 30
0.0
  0
VERTEX
  8
0
 10
961.99401855
 20
581.1282959
 30
0.0
  0
VERTEX
  8
0
 10
962.42181396
 20
581.0100708
 30
0.0
  0
VERTEX
  8
0
 10
962.98748779
 20
580.79840088
 30
0.0
  0
VERTEX
  8
0
 10
963.99194336
 20
580.36761475
 30
0.0
  0
VERTEX
  8
0
 10
964.73937988
 20
579.99737549
 30
0.0
  0
VERTEX
  8
0
 10
965.00952148
 20
579.8873291
 30
0.0
  0
VERTEX
  8
0
 10
965.99731445
 20
579.56317139
 30
0.0
  0
VERTEX
  8
0
 10
966.98571777
 20
579.21850586
 30
0.0
  0
VERTEX
  8
0
 10
967.49725342
 20
579.00756836
 30
0.0
  0
VERTEX
  8
0
 10
968.01470947
 20
578.81762695
 30
0.0
  0
VERTEX
  8
0
 10
968.996521
 20
578.54699707
 30
0.0
  0
VERTEX
  8
0
 10
969.98034668
 20
578.25360107
 30
0.0
  0
VERTEX
  8
0
 10
970.60974121
 20
577.99871826
 30
0.0
  0
VERTEX
  8
0
 10
971.00952148
 20
577.82110596
 30
0.0
  0
VERTEX
  8
0
 10
971.97753906
 20
577.38391113
 30
0.0
  0
VERTEX
  8
0
 10
972.75598145
 20
576.99926758
 30
0.0
  0
VERTEX
  8
0
 10
973.00756836
 20
576.87579346
 30
0.0
  0
VERTEX
  8
0
 10
974.00244141
 20
576.46069336
 30
0.0
  0
VERTEX
  8
0
 10
974.99633789
 20
576.06292725
 30
0.0
  0
VERTEX
  8
0
 10
975.13568115
 20
576.00909424
 30
0.0
  0
VERTEX
  8
0
 10
975.99871826
 20
575.66345215
 30
0.0
  0
VERTEX
  8
0
 10
977.00628662
 20
575.2878418
 30
0.0
  0
VERTEX
  8
0
 10
977.81799316
 20
574.99938965
 30
0.0
  0
VERTEX
  8
0
 10
977.99310303
 20
574.92498779
 30
0.0
  0
VERTEX
  8
0
 10
979.00549316
 20
574.41778564
 30
0.0
  0
VERTEX
  8
0
 10
979.83825684
 20
574.00390625
 30
0.0
  0
VERTEX
  8
0
 10
980.00189209
 20
573.9354248
 30
0.0
  0
VERTEX
  8
0
 10
980.9954834
 20
573.56506348
 30
0.0
  0
VERTEX
  8
0
 10
981.98022461
 20
573.1394043
 30
0.0
  0
VERTEX
  8
0
 10
982.20007324
 20
573.00915527
 30
0.0
  0
VERTEX
  8
0
 10
982.9954834
 20
572.36120605
 30
0.0
  0
VERTEX
  8
0
 10
983.45715332
 20
572.02484131
 30
0.0
  0
VERTEX
  8
0
 10
984.01733398
 20
571.69598389
 30
0.0
  0
VERTEX
  8
0
 10
985.00183105
 20
571.24749756
 30
0.0
  0
VERTEX
  8
0
 10
985.61468506
 20
571.00177002
 30
0.0
  0
VERTEX
  8
0
 10
985.99835205
 20
570.84832764
 30
0.0
  0
VERTEX
  8
0
 10
986.98046875
 20
570.40240479
 30
0.0
  0
VERTEX
  8
0
 10
987.75244141
 20
569.98986816
 30
0.0
  0
VERTEX
  8
0
 10
988.00579834
 20
569.83874512
 30
0.0
  0
VERTEX
  8
0
 10
988.98895264
 20
569.21704102
 30
0.0
  0
VERTEX
  8
0
 10
989.31268311
 20
569.00872803
 30
0.0
  0
VERTEX
  8
0
 10
989.99499512
 20
568.52844238
 30
0.0
  0
VERTEX
  8
0
 10
990.75482178
 20
568.00689697
 30
0.0
  0
VERTEX
  8
0
 10
991.00109863
 20
567.84558105
 30
0.0
  0
VERTEX
  8
0
 10
991.98596191
 20
567.21813965
 30
0.0
  0
VERTEX
  8
0
 10
992.25982666
 20
566.97540283
 30
0.0
  0
VERTEX
  8
0
 10
993.00201416
 20
566.07965088
 30
0.0
  0
VERTEX
  8
0
 10
993.07073975
 20
566.00439453
 30
0.0
  0
VERTEX
  8
0
 10
994.00506592
 20
565.14135742
 30
0.0
  0
VERTEX
  8
0
 10
994.17834473
 20
565.01580811
 30
0.0
  0
VERTEX
  8
0
 10
994.99578857
 20
564.53869629
 30
0.0
  0
VERTEX
  8
0
 10
995.94268799
 20
564.00115967
 30
0.0
  0
VERTEX
  8
0
 10
995.99993896
 20
563.96936035
 30
0.0
  0
VERTEX
  8
0
 10
996.96807861
 20
563.38677979
 30
0.0
  0
VERTEX
  8
0
 10
997.52105713
 20
563.01098633
 30
0.0
  0
VERTEX
  8
0
 10
998.01922607
 20
562.6685791
 30
0.0
  0
VERTEX
  8
0
 10
998.99542236
 20
562.08947754
 30
0.0
  0
VERTEX
  8
0
 10
999.14678955
 20
562.01251221
 30
0.0
  0
VERTEX
  8
0
 10
999.98931885
 20
561.57495117
 30
0.0
  0
VERTEX
  8
0
 10
1000.99816895
 20
561.03668213
 30
0.0
  0
VERTEX
  8
0
 10
1001.05560303
 20
560.99902344
 30
0.0
  0
VERTEX
  8
0
 10
1001.98425293
 20
560.26000977
 30
0.0
  0
VERTEX
  8
0
 10
1002.26275635
 20
559.98834229
 30
0.0
  0
VERTEX
  8
0
 10
1003.00598145
 20
559.11016846
 30
0.0
  0
VERTEX
  8
0
 10
1003.11206055
 20
559.0090332
 30
0.0
  0
VERTEX
  8
0
 10
1003.99005127
 20
558.33306885
 30
0.0
  0
VERTEX
  8
0
 10
1004.40350342
 20
557.99371338
 30
0.0
  0
VERTEX
  8
0
 10
1004.99371338
 20
557.45172119
 30
0.0
  0
VERTEX
  8
0
 10
1005.45361328
 20
556.9909668
 30
0.0
  0
VERTEX
  8
0
 10
1006.00994873
 20
556.41644287
 30
0.0
  0
VERTEX
  8
0
 10
1006.43249512
 20
556.01849365
 30
0.0
  0
VERTEX
  8
0
 10
1007.01586914
 20
555.56951904
 30
0.0
  0
VERTEX
  8
0
 10
1007.87139893
 20
555.00604248
 30
0.0
  0
VERTEX
  8
0
 10
1007.99713135
 20
554.92901611
 30
0.0
  0
VERTEX
  8
0
 10
1008.97692871
 20
554.29858398
 30
0.0
  0
VERTEX
  8
0
 10
1009.37731934
 20
554.00537109
 30
0.0
  0
VERTEX
  8
0
 10
1009.9921875
 20
553.46832275
 30
0.0
  0
VERTEX
  8
0
 10
1010.51446533
 20
552.99346924
 30
0.0
  0
VERTEX
  8
0
 10
1011.00280762
 20
552.52746582
 30
0.0
  0
VERTEX
  8
0
 10
1011.55126953
 20
552.00457764
 30
0.0
  0
VERTEX
  8
0
 10
1011.98535156
 20
551.574646
 30
0.0
  0
VERTEX
  8
0
 10
1012.49829102
 20
550.96691895
 30
0.0
  0
VERTEX
  8
0
 10
1013.02600098
 20
550.26452637
 30
0.0
  0
VERTEX
  8
0
 10
1013.22869873
 20
549.99810791
 30
0.0
  0
VERTEX
  8
0
 10
1014.0012207
 20
549.14746094
 30
0.0
  0
VERTEX
  8
0
 10
1014.13500977
 20
548.9987793
 30
0.0
  0
VERTEX
  8
0
 10
1015.00030518
 20
548.03826904
 30
0.0
  0
VERTEX
  8
0
 10
1015.03503418
 20
547.99981689
 30
0.0
  0
VERTEX
  8
0
 10
1015.94317627
 20
547.00024414
 30
0.0
  0
VERTEX
  8
0
 10
1016.00073242
 20
546.93890381
 30
0.0
  0
VERTEX
  8
0
 10
1016.91021729
 20
546.00024414
 30
0.0
  0
VERTEX
  8
0
 10
1017.0
 20
545.90814209
 30
0.0
  0
VERTEX
  8
0
 10
1017.89080811
 20
545.00079346
 30
0.0
  0
VERTEX
  8
0
 10
1017.99578857
 20
544.88739014
 30
0.0
  0
VERTEX
  8
0
 10
1018.7746582
 20
543.9989624
 30
0.0
  0
VERTEX
  8
0
 10
1018.99359131
 20
543.73236084
 30
0.0
  0
VERTEX
  8
0
 10
1019.48553467
 20
542.95581055
 30
0.0
  0
VERTEX
  8
0
 10
1019.96466064
 20
542.0010376
 30
0.0
  0
VERTEX
  8
0
 10
1020.00158691
 20
541.92022705
 30
0.0
  0
VERTEX
  8
0
 10
1020.46557617
 20
540.9934082
 30
0.0
  0
VERTEX
  8
0
 10
1020.953125
 20
540.00256348
 30
0.0
  0
VERTEX
  8
0
 10
1021.00140381
 20
539.91766357
 30
0.0
  0
VERTEX
  8
0
 10
1021.62579346
 20
539.0032959
 30
0.0
  0
VERTEX
  8
0
 10
1022.00665283
 20
538.4708252
 30
0.0
  0
VERTEX
  8
0
 10
1022.33886719
 20
537.98620605
 30
0.0
  0
VERTEX
  8
0
 10
1022.98504639
 20
537.00030518
 30
0.0
  0
VERTEX
  8
0
 10
1023.00036621
 20
536.97784424
 30
0.0
  0
VERTEX
  8
0
 10
1023.73455811
 20
536.00732422
 30
0.0
  0
VERTEX
  8
0
 10
1023.99829102
 20
535.671875
 30
0.0
  0
VERTEX
  8
0
 10
1024.51831055
 20
534.97564697
 30
0.0
  0
VERTEX
  8
0
 10
1025.00769043
 20
534.26153564
 30
0.0
  0
VERTEX
  8
0
 10
1025.16308594
 20
533.99188232
 30
0.0
  0
VERTEX
  8
0
 10
1025.68676758
 20
532.98693848
 30
0.0
  0
VERTEX
  8
0
 10
1026.02233887
 20
532.3168335
 30
0.0
  0
VERTEX
  8
0
 10
1026.18249512
 20
531.99682617
 30
0.0
  0
VERTEX
  8
0
 10
1026.74597168
 20
530.9977417
 30
0.0
  0
VERTEX
  8
0
 10
1027.01416016
 20
530.54180908
 30
0.0
  0
VERTEX
  8
0
 10
1027.31726074
 20
529.98376465
 30
0.0
  0
VERTEX
  8
0
 10
1027.83544922
 20
529.0043335
 30
0.0
  0
VERTEX
  8
0
 10
1028.0189209
 20
528.70013428
 30
0.0
  0
VERTEX
  8
0
 10
1028.53735352
 20
528.01171875
 30
0.0
  0
VERTEX
  8
0
 10
1029.01135254
 20
527.46899414
 30
0.0
  0
VERTEX
  8
0
 10
1029.4708252
 20
527.00823975
 30
0.0
  0
VERTEX
  8
0
 10
1029.98266602
 20
526.50140381
 30
0.0
  0
VERTEX
  8
0
 10
1030.44543457
 20
525.98065186
 30
0.0
  0
VERTEX
  8
0
 10
1031.00732422
 20
525.25836182
 30
0.0
  0
VERTEX
  8
0
 10
1031.18908691
 20
524.99029541
 30
0.0
  0
VERTEX
  8
0
 10
1031.83410645
 20
523.99975586
 30
0.0
  0
VERTEX
  8
0
 10
1032.0065918
 20
523.74023438
 30
0.0
  0
VERTEX
  8
0
 10
1032.50927734
 20
522.99255371
 30
0.0
  0
VERTEX
  8
0
 10
1033.00463867
 20
522.25622559
 30
0.0
  0
VERTEX
  8
0
 10
1033.14501953
 20
521.98614502
 30
0.0
  0
VERTEX
  8
0
 10
1033.46484375
 20
520.97717285
 30
0.0
  0
VERTEX
  8
0
 10
1033.67419434
 20
520.00463867
 30
0.0
  0
VERTEX
  8
0
 10
1033.86645508
 20
519.01068115
 30
0.0
  0
VERTEX
  8
0
 10
1034.02185059
 20
518.60888672
 30
0.0
  0
VERTEX
  8
0
 10
1034.39880371
 20
518.02124023
 30
0.0
  0
VERTEX
  8
0
 10
1035.00915527
 20
517.23944092
 30
0.0
  0
VERTEX
  8
0
 10
1035.22888184
 20
517.00567627
 30
0.0
  0
VERTEX
  8
0
 10
1035.99035645
 20
516.26477051
 30
0.0
  0
VERTEX
  8
0
 10
1036.2355957
 20
515.98895264
 30
0.0
  0
VERTEX
  8
0
 10
1036.984375
 20
514.99987793
 30
0.0
  0
VERTEX
  8
0
 10
1037.00012207
 20
514.97833252
 30
0.0
  0
VERTEX
  8
0
 10
1037.69470215
 20
513.99029541
 30
0.0
  0
VERTEX
  8
0
 10
1038.01611328
 20
513.54290771
 30
0.0
  0
VERTEX
  8
0
 10
1038.36706543
 20
512.97564697
 30
0.0
  0
VERTEX
  8
0
 10
1038.92712402
 20
511.99865723
 30
0.0
  0
VERTEX
  8
0
 10
1039.00280762
 20
511.85391235
 30
0.0
  0
VERTEX
  8
0
 10
1039.38439941
 20
510.974823
 30
0.0
  0
VERTEX
  8
0
 10
1039.73217773
 20
509.99969482
 30
0.0
  0
VERTEX
  8
0
 10
1040.00244141
 20
509.05334473
 30
0.0
  0
VERTEX
  8
0
 10
1040.0144043
 20
508.99905396
 30
0.0
  0
VERTEX
  8
0
 10
1040.13269043
 20
507.9960022
 30
0.0
  0
VERTEX
  8
0
 10
1040.13586426
 20
507.00476074
 30
0.0
  0
VERTEX
  8
0
 10
1040.08276367
 20
505.99520874
 30
0.0
  0
VERTEX
  8
0
 10
1040.04492188
 20
505.00067139
 30
0.0
  0
VERTEX
  8
0
 10
1040.1060791
 20
504.00204468
 30
0.0
  0
VERTEX
  8
0
 10
1040.20361328
 20
502.99887085
 30
0.0
  0
VERTEX
  8
0
 10
1040.32019043
 20
502.00088501
 30
0.0
  0
VERTEX
  8
0
 10
1040.4576416
 20
501.00357056
 30
0.0
  0
VERTEX
  8
0
 10
1040.63964844
 20
500.00259399
 30
0.0
  0
VERTEX
  8
0
 10
1040.87109375
 20
499.00323486
 30
0.0
  0
VERTEX
  8
0
 10
1041.01623535
 20
498.52853394
 30
0.0
  0
VERTEX
  8
0
 10
1041.22290039
 20
498.00436401
 30
0.0
  0
VERTEX
  8
0
 10
1041.68408203
 20
497.00497437
 30
0.0
  0
VERTEX
  8
0
 10
1042.02062988
 20
496.37286377
 30
0.0
  0
VERTEX
  8
0
 10
1042.22717285
 20
495.98742676
 30
0.0
  0
VERTEX
  8
0
 10
1042.76538086
 20
495.00152588
 30
0.0
  0
VERTEX
  8
0
 10
1043.01708984
 20
494.56341553
 30
0.0
  0
VERTEX
  8
0
 10
1043.2845459
 20
493.96640015
 30
0.0
  0
VERTEX
  8
0
 10
1043.54638672
 20
492.99090576
 30
0.0
  0
VERTEX
  8
0
 10
1043.65856934
 20
492.00039673
 30
0.0
  0
VERTEX
  8
0
 10
1043.77160645
 20
491.00888062
 30
0.0
  0
VERTEX
  8
0
 10
1043.9666748
 20
490.00302124
 30
0.0
  0
VERTEX
  8
0
 10
1044.00048828
 20
489.91809082
 30
0.0
  0
VERTEX
  8
0
 10
1044.47119141
 20
488.97735596
 30
0.0
  0
VERTEX
  8
0
 10
1044.91174316
 20
488.0043335
 30
0.0
  0
VERTEX
  8
0
 10
1045.00366211
 20
487.81030273
 30
0.0
  0
VERTEX
  8
0
 10
1045.41003418
 20
486.97689819
 30
0.0
  0
VERTEX
  8
0
 10
1045.82470703
 20
486.0
 30
0.0
  0
VERTEX
  8
0
 10
1046.01623535
 20
485.52471924
 30
0.0
  0
VERTEX
  8
0
 10
1046.20861816
 20
484.98669434
 30
0.0
  0
VERTEX
  8
0
 10
1046.52209473
 20
483.99835205
 30
0.0
  0
VERTEX
  8
0
 10
1046.78344727
 20
482.99865723
 30
0.0
  0
VERTEX
  8
0
 10
1047.00830078
 20
482.13031006
 30
0.0
  0
VERTEX
  8
0
 10
1047.0489502
 20
481.99993896
 30
0.0
  0
VERTEX
  8
0
 10
1047.38549805
 20
480.98669434
 30
0.0
  0
VERTEX
  8
0
 10
1047.67797852
 20
480.00289917
 30
0.0
  0
VERTEX
  8
0
 10
1047.94506836
 20
479.00119019
 30
0.0
  0
VERTEX
  8
0
 10
1048.00231934
 20
478.81896973
 30
0.0
  0
VERTEX
  8
0
 10
1048.26025391
 20
477.99121094
 30
0.0
  0
VERTEX
  8
0
 10
1048.5098877
 20
476.99459839
 30
0.0
  0
VERTEX
  8
0
 10
1048.66906738
 20
475.99639893
 30
0.0
  0
VERTEX
  8
0
 10
1048.78991699
 20
475.00204468
 30
0.0
  0
VERTEX
  8
0
 10
1048.92272949
 20
474.00350952
 30
0.0
  0
VERTEX
  8
0
 10
1049.00842285
 20
473.62414551
 30
0.0
  0
VERTEX
  8
0
 10
1049.17468262
 20
472.99365234
 30
0.0
  0
VERTEX
  8
0
 10
1049.36791992
 20
471.99328613
 30
0.0
  0
VERTEX
  8
0
 10
1049.46337891
 20
470.99914551
 30
0.0
  0
VERTEX
  8
0
 10
1049.41760254
 20
470.00759888
 30
0.0
  0
VERTEX
  8
0
 10
1049.30212402
 20
468.99533081
 30
0.0
  0
VERTEX
  8
0
 10
1049.29406738
 20
468.01464844
 30
0.0
  0
VERTEX
  8
0
 10
1049.57324219
 20
467.05462646
 30
0.0
  0
VERTEX
  8
0
 10
1049.99926758
 20
466.37304688
 30
0.0
  0
VERTEX
  8
0
 10
1050.24914551
 20
465.96865845
 30
0.0
  0
VERTEX
  8
0
 10
1050.49743652
 20
464.98330688
 30
0.0
  0
VERTEX
  8
0
 10
1050.64746094
 20
464.00683594
 30
0.0
  0
VERTEX
  8
0
 10
1050.68029785
 20
462.98681641
 30
0.0
  0
VERTEX
  8
0
 10
1050.54589844
 20
462.09683228
 30
0.0
  0
VERTEX
  8
0
 10
1049.99829102
 20
461.07775879
 30
0.0
  0
VERTEX
  8
0
 10
1049.9486084
 20
460.99282837
 30
0.0
  0
VERTEX
  8
0
 10
1049.60388184
 20
459.99093628
 30
0.0
  0
VERTEX
  8
0
 10
1049.31652832
 20
458.99981689
 30
0.0
  0
VERTEX
  8
0
 10
1049.05834961
 20
458.00027466
 30
0.0
  0
VERTEX
  8
0
 10
1049.00854492
 20
457.77609253
 30
0.0
  0
VERTEX
  8
0
 10
1048.90576172
 20
456.99588013
 30
0.0
  0
VERTEX
  8
0
 10
1048.88220215
 20
456.00186157
 30
0.0
  0
VERTEX
  8
0
 10
1048.95251465
 20
455.00054932
 30
0.0
  0
VERTEX
  8
0
 10
1049.00427246
 20
454.61175537
 30
0.0
  0
VERTEX
  8
0
 10
1049.06921387
 20
453.99752808
 30
0.0
  0
VERTEX
  8
0
 10
1049.14758301
 20
453.00039673
 30
0.0
  0
VERTEX
  8
0
 10
1049.14953613
 20
452.00094604
 30
0.0
  0
VERTEX
  8
0
 10
1049.07128906
 20
451.00479126
 30
0.0
  0
VERTEX
  8
0
 10
1049.01086426
 20
450.6812439
 30
0.0
  0
VERTEX
  8
0
 10
1048.8470459
 20
449.99649048
 30
0.0
  0
VERTEX
  8
0
 10
1048.67492676
 20
448.9961853
 30
0.0
  0
VERTEX
  8
0
 10
1048.51477051
 20
448.00506592
 30
0.0
  0
VERTEX
  8
0
 10
1048.2791748
 20
447.02056885
 30
0.0
  0
VERTEX
  8
0
 10
1048.00280762
 20
446.24465942
 30
0.0
  0
VERTEX
  8
0
 10
1047.89172363
 20
446.0012207
 30
0.0
  0
VERTEX
  8
0
 10
1047.39526367
 20
445.02252197
 30
0.0
  0
VERTEX
  8
0
 10
1047.00622559
 20
444.3371582
 30
0.0
  0
VERTEX
  8
0
 10
1046.83630371
 20
443.98477173
 30
0.0
  0
VERTEX
  8
0
 10
1046.53320313
 20
442.99032593
 30
0.0
  0
VERTEX
  8
0
 10
1046.33984375
 20
441.99713135
 30
0.0
  0
VERTEX
  8
0
 10
1046.17102051
 20
441.00634766
 30
0.0
  0
VERTEX
  8
0
 10
1046.00146484
 20
440.11077881
 30
0.0
  0
VERTEX
  8
0
 10
1045.97424316
 20
440.00067139
 30
0.0
  0
VERTEX
  8
0
 10
1045.70385742
 20
439.00390625
 30
0.0
  0
VERTEX
  8
0
 10
1045.38415527
 20
438.01040649
 30
0.0
  0
VERTEX
  8
0
 10
1045.0098877
 20
437.00015259
 30
0.0
  0
VERTEX
  8
0
 10
1045.00195313
 20
436.97622681
 30
0.0
  0
VERTEX
  8
0
 10
1044.74523926
 20
435.99966431
 30
0.0
  0
VERTEX
  8
0
 10
1044.51342773
 20
434.99411011
 30
0.0
  0
VERTEX
  8
0
 10
1044.36755371
 20
433.99511719
 30
0.0
  0
VERTEX
  8
0
 10
1044.30761719
 20
432.99996948
 30
0.0
  0
VERTEX
  8
0
 10
1044.28137207
 20
432.00079346
 30
0.0
  0
VERTEX
  8
0
 10
1044.24963379
 20
430.99932861
 30
0.0
  0
VERTEX
  8
0
 10
1044.28344727
 20
430.00643921
 30
0.0
  0
VERTEX
  8
0
 10
1044.39086914
 20
428.99710083
 30
0.0
  0
VERTEX
  8
0
 10
1044.46618652
 20
427.99871826
 30
0.0
  0
VERTEX
  8
0
 10
1044.47668457
 20
426.99771118
 30
0.0
  0
VERTEX
  8
0
 10
1044.39367676
 20
426.00305176
 30
0.0
  0
VERTEX
  8
0
 10
1044.2364502
 20
425.01620483
 30
0.0
  0
VERTEX
  8
0
 10
1044.00244141
 20
424.19058228
 30
0.0
  0
VERTEX
  8
0
 10
1043.93786621
 20
423.9987793
 30
0.0
  0
VERTEX
  8
0
 10
1043.61462402
 20
423.00704956
 30
0.0
  0
VERTEX
  8
0
 10
1043.24182129
 20
422.01040649
 30
0.0
  0
VERTEX
  8
0
 10
1043.01672363
 20
421.45806885
 30
0.0
  0
VERTEX
  8
0
 10
1042.83435059
 20
420.99636841
 30
0.0
  0
VERTEX
  8
0
 10
1042.4453125
 20
420.02468872
 30
0.0
  0
VERTEX
  8
0
 10
1041.99914551
 20
419.05380249
 30
0.0
  0
VERTEX
  8
0
 10
1041.97229004
 20
418.99874878
 30
0.0
  0
VERTEX
  8
0
 10
1041.5045166
 20
418.00823975
 30
0.0
  0
VERTEX
  8
0
 10
1041.01062012
 20
417.0
 30
0.0
  0
VERTEX
  8
0
 10
1041.0020752
 20
416.97854614
 30
0.0
  0
VERTEX
  8
0
 10
1040.7154541
 20
415.99841309
 30
0.0
  0
VERTEX
  8
0
 10
1040.38122559
 20
415.01843262
 30
0.0
  0
VERTEX
  8
0
 10
1039.99987793
 20
414.05004883
 30
0.0
  0
VERTEX
  8
0
 10
1039.97937012
 20
413.99914551
 30
0.0
  0
VERTEX
  8
0
 10
1039.60241699
 20
413.00845337
 30
0.0
  0
VERTEX
  8
0
 10
1039.17944336
 20
412.00769043
 30
0.0
  0
VERTEX
  8
0
 10
1039.02075195
 20
411.63607788
 30
0.0
  0
VERTEX
  8
0
 10
1038.79211426
 20
410.98840332
 30
0.0
  0
VERTEX
  8
0
 10
1038.54638672
 20
409.99841309
 30
0.0
  0
VERTEX
  8
0
 10
1038.2713623
 20
409.02508545
 30
0.0
  0
VERTEX
  8
0
 10
1038.00561523
 20
408.31533813
 30
0.0
  0
VERTEX
  8
0
 10
1037.87353516
 20
407.99285889
 30
0.0
  0
VERTEX
  8
0
 10
1037.52636719
 20
407.00738525
 30
0.0
  0
VERTEX
  8
0
 10
1037.14294434
 20
406.01187134
 30
0.0
  0
VERTEX
  8
0
 10
1037.01586914
 20
405.7232666
 30
0.0
  0
VERTEX
  8
0
 10
1036.62976074
 20
405.01223755
 30
0.0
  0
VERTEX
  8
0
 10
1036.0657959
 20
404.00375366
 30
0.0
  0
VERTEX
  8
0
 10
1036.00817871
 20
403.90090942
 30
0.0
  0
VERTEX
  8
0
 10
1035.48181152
 20
403.01992798
 30
0.0
  0
VERTEX
  8
0
 10
1035.0057373
 20
402.26409912
 30
0.0
  0
VERTEX
  8
0
 10
1034.8626709
 20
401.98742676
 30
0.0
  0
VERTEX
  8
0
 10
1034.43664551
 20
401.02294922
 30
0.0
  0
VERTEX
  8
0
 10
1033.9987793
 20
400.09158325
 30
0.0
  0
VERTEX
  8
0
 10
1033.95141602
 20
399.99822998
 30
0.0
  0
VERTEX
  8
0
 10
1033.44165039
 20
399.01705933
 30
0.0
  0
VERTEX
  8
0
 10
1033.00402832
 20
398.22924805
 30
0.0
  0
VERTEX
  8
0
 10
1032.87084961
 20
397.99902344
 30
0.0
  0
VERTEX
  8
0
 10
1032.29309082
 20
397.01913452
 30
0.0
  0
VERTEX
  8
0
 10
1032.01245117
 20
396.57189941
 30
0.0
  0
VERTEX
  8
0
 10
1031.59875488
 20
396.01345825
 30
0.0
  0
VERTEX
  8
0
 10
1031.00134277
 20
395.21514893
 30
0.0
  0
VERTEX
  8
0
 10
1030.86376953
 20
394.98629761
 30
0.0
  0
VERTEX
  8
0
 10
1030.35791016
 20
394.02655029
 30
0.0
  0
VERTEX
  8
0
 10
1030.01525879
 20
393.39926147
 30
0.0
  0
VERTEX
  8
0
 10
1029.77868652
 20
392.99655151
 30
0.0
  0
VERTEX
  8
0
 10
1029.24230957
 20
392.01010132
 30
0.0
  0
VERTEX
  8
0
 10
1029.01916504
 20
391.58410645
 30
0.0
  0
VERTEX
  8
0
 10
1028.74243164
 20
390.9876709
 30
0.0
  0
VERTEX
  8
0
 10
1028.33337402
 20
390.01644897
 30
0.0
  0
VERTEX
  8
0
 10
1028.00671387
 20
389.25476074
 30
0.0
  0
VERTEX
  8
0
 10
1027.89489746
 20
388.99740601
 30
0.0
  0
VERTEX
  8
0
 10
1027.45922852
 20
388.02816772
 30
0.0
  0
VERTEX
  8
0
 10
1027.00048828
 20
387.14431763
 30
0.0
  0
VERTEX
  8
0
 10
1026.92993164
 20
386.99414063
 30
0.0
  0
VERTEX
  8
0
 10
1026.49658203
 20
386.03765869
 30
0.0
  0
VERTEX
  8
0
 10
1025.99682617
 20
385.11193848
 30
0.0
  0
VERTEX
  8
0
 10
1025.92297363
 20
384.99804688
 30
0.0
  0
VERTEX
  8
0
 10
1025.25830078
 20
384.00842285
 30
0.0
  0
VERTEX
  8
0
 10
1025.00976563
 20
383.63705444
 30
0.0
  0
VERTEX
  8
0
 10
1024.5345459
 20
383.03103638
 30
0.0
  0
VERTEX
  8
0
 10
1023.98632813
 20
382.42544556
 30
0.0
  0
VERTEX
  8
0
 10
1023.52893066
 20
381.99765015
 30
0.0
  0
VERTEX
  8
0
 10
1023.01397705
 20
381.51449585
 30
0.0
  0
VERTEX
  8
0
 10
1022.49224854
 20
381.00762939
 30
0.0
  0
VERTEX
  8
0
 10
1021.97192383
 20
380.55337524
 30
0.0
  0
VERTEX
  8
0
 10
1021.24212646
 20
379.98815918
 30
0.0
  0
VERTEX
  8
0
 10
1021.00061035
 20
379.8036499
 30
0.0
  0
VERTEX
  8
0
 10
1020.05200195
 20
378.99911499
 30
0.0
  0
VERTEX
  8
0
 10
1020.00091553
 20
378.95257568
 30
0.0
  0
VERTEX
  8
0
 10
1019.02478027
 20
377.99902344
 30
0.0
  0
VERTEX
  8
0
 10
1019.00115967
 20
377.97210693
 30
0.0
  0
VERTEX
  8
0
 10
1018.25640869
 20
377.01269531
 30
0.0
  0
VERTEX
  8
0
 10
1017.99804688
 20
376.71157837
 30
0.0
  0
VERTEX
  8
0
 10
1017.31176758
 20
376.00073242
 30
0.0
  0
VERTEX
  8
0
 10
1017.01098633
 20
375.6711731
 30
0.0
  0
VERTEX
  8
0
 10
1016.42376709
 20
375.00411987
 30
0.0
  0
VERTEX
  8
0
 10
1015.96282959
 20
374.5586853
 30
0.0
  0
VERTEX
  8
0
 10
1015.26489258
 20
374.009552
 30
0.0
  0
VERTEX
  8
0
 10
1014.9876709
 20
373.87954712
 30
0.0
  0
VERTEX
  8
0
 10
1014.05059814
 20
373.47741699
 30
0.0
  0
VERTEX
  8
0
 10
1013.1484375
 20
372.99212646
 30
0.0
  0
VERTEX
  8
0
 10
1013.0256958
 20
372.86166382
 30
0.0
  0
VERTEX
  8
0
 10
1012.4609375
 20
372.01904297
 30
0.0
  0
VERTEX
  8
0
 10
1011.98522949
 20
371.3565979
 30
0.0
  0
VERTEX
  8
0
 10
1011.68017578
 20
371.00466919
 30
0.0
  0
VERTEX
  8
0
 10
1011.00671387
 20
370.29199219
 30
0.0
  0
VERTEX
  8
0
 10
1010.74475098
 20
369.99423218
 30
0.0
  0
VERTEX
  8
0
 10
1009.99920654
 20
369.072052
 30
0.0
  0
VERTEX
  8
0
 10
1009.94256592
 20
368.99862671
 30
0.0
  0
VERTEX
  8
0
 10
1009.17858887
 20
368.01028442
 30
0.0
  0
VERTEX
  8
0
 10
1008.9866333
 20
367.81951904
 30
0.0
  0
VERTEX
  8
0
 10
1007.99914551
 20
367.06729126
 30
0.0
  0
VERTEX
  8
0
 10
1007.9050293
 20
367.00030518
 30
0.0
  0
VERTEX
  8
0
 10
1006.99200439
 20
366.38891602
 30
0.0
  0
VERTEX
  8
0
 10
1006.40118408
 20
365.98095703
 30
0.0
  0
VERTEX
  8
0
 10
1005.99017334
 20
365.70556641
 30
0.0
  0
VERTEX
  8
0
 10
1005.00091553
 20
365.01473999
 30
0.0
  0
VERTEX
  8
0
 10
1004.98181152
 20
365.00039673
 30
0.0
  0
VERTEX
  8
0
 10
1004.0055542
 20
364.17861938
 30
0.0
  0
VERTEX
  8
0
 10
1003.80895996
 20
363.99581909
 30
0.0
  0
VERTEX
  8
0
 10
1002.99194336
 20
363.17050171
 30
0.0
  0
VERTEX
  8
0
 10
1002.8079834
 20
363.00424194
 30
0.0
  0
VERTEX
  8
0
 10
1001.98272705
 20
362.38693237
 30
0.0
  0
VERTEX
  8
0
 10
1001.42779541
 20
361.98370361
 30
0.0
  0
VERTEX
  8
0
 10
1000.98046875
 20
361.71203613
 30
0.0
  0
VERTEX
  8
0
 10
1000.00604248
 20
361.13668823
 30
0.0
  0
VERTEX
  8
0
 10
999.78234863
 20
360.99386597
 30
0.0
  0
VERTEX
  8
0
 10
998.99841309
 20
360.41430664
 30
0.0
  0
VERTEX
  8
0
 10
998.45458984
 20
359.98587036
 30
0.0
  0
VERTEX
  8
0
 10
997.99597168
 20
359.61386108
 30
0.0
  0
VERTEX
  8
0
 10
997.27740479
 20
358.99337769
 30
0.0
  0
VERTEX
  8
0
 10
997.00311279
 20
358.74423218
 30
0.0
  0
VERTEX
  8
0
 10
996.24255371
 20
357.99456787
 30
0.0
  0
VERTEX
  8
0
 10
995.99816895
 20
357.7461853
 30
0.0
  0
VERTEX
  8
0
 10
995.27935791
 20
357.00775146
 30
0.0
  0
VERTEX
  8
0
 10
994.98638916
 20
356.75354004
 30
0.0
  0
VERTEX
  8
0
 10
994.00134277
 20
356.02124023
 30
0.0
  0
VERTEX
  8
0
 10
993.97436523
 20
356.00140381
 30
0.0
  0
VERTEX
  8
0
 10
992.99499512
 20
355.26763916
 30
0.0
  0
VERTEX
  8
0
 10
992.63061523
 20
354.99246216
 30
0.0
  0
VERTEX
  8
0
 10
991.98718262
 20
354.53540039
 30
0.0
  0
VERTEX
  8
0
 10
991.22540283
 20
353.97888184
 30
0.0
  0
VERTEX
  8
0
 10
990.98620605
 20
353.81503296
 30
0.0
  0
VERTEX
  8
0
 10
990.00073242
 20
353.10925293
 30
0.0
  0
VERTEX
  8
0
 10
989.84936523
 20
352.99331665
 30
0.0
  0
VERTEX
  8
0
 10
989.00909424
 20
352.26647949
 30
0.0
  0
VERTEX
  8
0
 10
988.71337891
 20
352.01119995
 30
0.0
  0
VERTEX
  8
0
 10
987.93927002
 20
351.50482178
 30
0.0
  0
VERTEX
  8
0
 10
987.00354004
 20
351.06234741
 30
0.0
  0
VERTEX
  8
0
 10
986.84851074
 20
350.99557495
 30
0.0
  0
VERTEX
  8
0
 10
985.99060059
 20
350.55236816
 30
0.0
  0
VERTEX
  8
0
 10
984.99920654
 20
350.06088257
 30
0.0
  0
VERTEX
  8
0
 10
984.86682129
 20
349.99963379
 30
0.0
  0
VERTEX
  8
0
 10
983.9730835
 20
349.71514893
 30
0.0
  0
VERTEX
  8
0
 10
983.01989746
 20
349.43508911
 30
0.0
  0
VERTEX
  8
0
 10
982.01422119
 20
349.12521362
 30
0.0
  0
VERTEX
  8
0
 10
981.78875732
 20
349.00033569
 30
0.0
  0
VERTEX
  8
0
 10
980.95794678
 20
348.48171997
 30
0.0
  0
VERTEX
  8
0
 10
980.01745605
 20
347.99813843
 30
0.0
  0
VERTEX
  8
0
 10
979.99963379
 20
347.98934937
 30
0.0
  0
VERTEX
  8
0
 10
978.97723389
 20
347.45443726
 30
0.0
  0
VERTEX
  8
0
 10
978.00518799
 20
346.98797607
 30
0.0
  0
VERTEX
  8
0
 10
976.99108887
 20
346.57037354
 30
0.0
  0
VERTEX
  8
0
 10
976.01080322
 20
346.1472168
 30
0.0
  0
VERTEX
  8
0
 10
975.71331787
 20
345.99645996
 30
0.0
  0
VERTEX
  8
0
 10
974.96075439
 20
345.64889526
 30
0.0
  0
VERTEX
  8
0
 10
974.0
 20
345.33517456
 30
0.0
  0
VERTEX
  8
0
 10
973.01043701
 20
345.08407593
 30
0.0
  0
VERTEX
  8
0
 10
972.82861328
 20
344.99572754
 30
0.0
  0
VERTEX
  8
0
 10
971.98602295
 20
344.36499023
 30
0.0
  0
VERTEX
  8
0
 10
971.47875977
 20
343.98831177
 30
0.0
  0
VERTEX
  8
0
 10
970.96612549
 20
343.72076416
 30
0.0
  0
VERTEX
  8
0
 10
969.98968506
 20
343.37588501
 30
0.0
  0
VERTEX
  8
0
 10
969.00567627
 20
343.1322937
 30
0.0
  0
VERTEX
  8
0
 10
968.47406006
 20
342.97964478
 30
0.0
  0
VERTEX
  8
0
 10
967.99859619
 20
342.79940796
 30
0.0
  0
VERTEX
  8
0
 10
966.98620605
 20
342.41760254
 30
0.0
  0
VERTEX
  8
0
 10
966.00500488
 20
342.07659912
 30
0.0
  0
VERTEX
  8
0
 10
965.80523682
 20
341.99581909
 30
0.0
  0
VERTEX
  8
0
 10
964.98278809
 20
341.61529541
 30
0.0
  0
VERTEX
  8
0
 10
964.00390625
 20
341.19616699
 30
0.0
  0
VERTEX
  8
0
 10
963.5279541
 20
340.974823
 30
0.0
  0
VERTEX
  8
0
 10
962.98260498
 20
340.71841431
 30
0.0
  0
VERTEX
  8
0
 10
961.99328613
 20
340.28503418
 30
0.0
  0
VERTEX
  8
0
 10
961.23059082
 20
339.98364258
 30
0.0
  0
VERTEX
  8
0
 10
960.99267578
 20
339.90591431
 30
0.0
  0
VERTEX
  8
0
 10
959.99609375
 20
339.60998535
 30
0.0
  0
VERTEX
  8
0
 10
958.99591064
 20
339.37426758
 30
0.0
  0
VERTEX
  8
0
 10
957.99932861
 20
339.17919922
 30
0.0
  0
VERTEX
  8
0
 10
957.00012207
 20
339.00701904
 30
0.0
  0
VERTEX
  8
0
 10
956.96307373
 20
338.99938965
 30
0.0
  0
VERTEX
  8
0
 10
955.99945068
 20
338.76602173
 30
0.0
  0
VERTEX
  8
0
 10
955.0045166
 20
338.5088501
 30
0.0
  0
VERTEX
  8
0
 10
954.0088501
 20
338.20669556
 30
0.0
  0
VERTEX
  8
0
 10
953.45544434
 20
337.97772217
 30
0.0
  0
VERTEX
  8
0
 10
952.97967529
 20
337.79891968
 30
0.0
  0
VERTEX
  8
0
 10
951.99084473
 20
337.55175781
 30
0.0
  0
VERTEX
  8
0
 10
951.00018311
 20
337.42547607
 30
0.0
  0
VERTEX
  8
0
 10
949.99957275
 20
337.36193848
 30
0.0
  0
VERTEX
  8
0
 10
949.0012207
 20
337.28631592
 30
0.0
  0
VERTEX
  8
0
 10
948.00939941
 20
337.14819336
 30
0.0
  0
VERTEX
  8
0
 10
947.36737061
 20
336.97976685
 30
0.0
  0
VERTEX
  8
0
 10
946.9911499
 20
336.85928345
 30
0.0
  0
VERTEX
  8
0
 10
945.98803711
 20
336.61434937
 30
0.0
  0
VERTEX
  8
0
 10
945.00219727
 20
336.44927979
 30
0.0
  0
VERTEX
  8
0
 10
944.00585938
 20
336.29824829
 30
0.0
  0
VERTEX
  8
0
 10
943.00024414
 20
336.09182739
 30
0.0
  0
VERTEX
  8
0
 10
942.61987305
 20
335.99206543
 30
0.0
  0
VERTEX
  8
0
 10
941.99560547
 20
335.83346558
 30
0.0
  0
VERTEX
  8
0
 10
940.99542236
 20
335.61743164
 30
0.0
  0
VERTEX
  8
0
 10
939.99645996
 20
335.49325562
 30
0.0
  0
VERTEX
  8
0
 10
939.00366211
 20
335.49258423
 30
0.0
  0
VERTEX
  8
0
 10
937.99664307
 20
335.55599976
 30
0.0
  0
VERTEX
  8
0
 10
936.99975586
 20
335.61245728
 30
0.0
  0
VERTEX
  8
0
 10
936.00012207
 20
335.63116455
 30
0.0
  0
VERTEX
  8
0
 10
935.01074219
 20
335.71951294
 30
0.0
  0
VERTEX
  8
0
 10
934.00305176
 20
335.91598511
 30
0.0
  0
VERTEX
  8
0
 10
933.72631836
 20
335.98709106
 30
0.0
  0
VERTEX
  8
0
 10
932.99346924
 20
336.12445068
 30
0.0
  0
VERTEX
  8
0
 10
931.99951172
 20
336.20883179
 30
0.0
  0
VERTEX
  8
0
 10
931.0
 20
336.22079468
 30
0.0
  0
VERTEX
  8
0
 10
930.0012207
 20
336.18545532
 30
0.0
  0
VERTEX
  8
0
 10
929.00518799
 20
336.08633423
 30
0.0
  0
VERTEX
  8
0
 10
928.57543945
 20
335.98806763
 30
0.0
  0
VERTEX
  8
0
 10
927.9987793
 20
335.79098511
 30
0.0
  0
VERTEX
  8
0
 10
926.9855957
 20
335.48550415
 30
0.0
  0
VERTEX
  8
0
 10
925.99481201
 20
335.29336548
 30
0.0
  0
VERTEX
  8
0
 10
925.0020752
 20
335.17666626
 30
0.0
  0
VERTEX
  8
0
 10
924.00463867
 20
335.04983521
 30
0.0
  0
VERTEX
  8
0
 10
923.85662842
 20
334.9977417
 30
0.0
  0
VERTEX
  8
0
 10
922.95977783
 20
334.59777832
 30
0.0
  0
VERTEX
  8
0
 10
921.99829102
 20
334.4163208
 30
0.0
  0
VERTEX
  8
0
 10
920.99511719
 20
334.41403198
 30
0.0
  0
VERTEX
  8
0
 10
920.00140381
 20
334.4465332
 30
0.0
  0
VERTEX
  8
0
 10
918.99938965
 20
334.44515991
 30
0.0
  0
VERTEX
  8
0
 10
917.99920654
 20
334.43469238
 30
0.0
  0
VERTEX
  8
0
 10
917.00231934
 20
334.49478149
 30
0.0
  0
VERTEX
  8
0
 10
916.02764893
 20
334.67019653
 30
0.0
  0
SEQEND
  0
ENDSEC
  0
SECTION
  2
OBJECTS
  0
ENDSEC
  0
EOF
