999
DXF file created by HALCON
  0
SECTION
  2
HEADER
  9
$ACADVER
  1
AC1009
  0
ENDSEC
  0
SECTION
  2
TABLES
  0
TABLE
  2
LTYPE
 70
1
  0
LTYPE
  2
CONTINUOUS
 70
0
  3
Solid line
 72
65
 73
0
 40
0
  0
ENDTAB
  0
TABLE
  2
LAYER
 70
1
  0
LAYER
  2
0
 70
0
 62
7
  6
CONTINUOUS
  0
ENDTAB
  0
TABLE
  2
APPID
 70
2
  0
APPID
  2
ACAD
 70
64
  0
APPID
  2
HALCON
 70
64
  0
ENDTAB
  0
ENDSEC
  0
SECTION
  2
BLOCKS
  0
ENDSEC
  0
SECTION
  2
ENTITIES
  0
POLYLINE
  8
0
 66
1
 10
0.0
 20
0.0
 30
0.0
 70
0
  0
VERTEX
  8
0
 10
647.0
 20
143.40112305
 30
0.0
  0
VERTEX
  8
0
 10
648.0
 20
143.39344788
 30
0.0
  0
VERTEX
  8
0
 10
649.0
 20
143.38497925
 30
0.0
  0
VERTEX
  8
0
 10
650.0
 20
143.37718201
 30
0.0
  0
VERTEX
  8
0
 10
651.0
 20
143.3757019
 30
0.0
  0
VERTEX
  8
0
 10
652.0
 20
143.3737793
 30
0.0
  0
VERTEX
  8
0
 10
652.99993896
 20
143.36740112
 30
0.0
  0
VERTEX
  8
0
 10
653.99981689
 20
143.34590149
 30
0.0
  0
VERTEX
  8
0
 10
655.00018311
 20
143.32110596
 30
0.0
  0
VERTEX
  8
0
 10
656.00006104
 20
143.3013916
 30
0.0
  0
VERTEX
  8
0
 10
656.99993896
 20
143.28833008
 30
0.0
  0
VERTEX
  8
0
 10
657.99993896
 20
143.27313232
 30
0.0
  0
VERTEX
  8
0
 10
659.0
 20
143.25128174
 30
0.0
  0
VERTEX
  8
0
 10
659.99969482
 20
143.21893311
 30
0.0
  0
VERTEX
  8
0
 10
661.00006104
 20
143.18002319
 30
0.0
  0
VERTEX
  8
0
 10
661.99914551
 20
143.12014771
 30
0.0
  0
VERTEX
  8
0
 10
663.00091553
 20
143.06329346
 30
0.0
  0
VERTEX
  8
0
 10
664.00024414
 20
143.01890564
 30
0.0
  0
VERTEX
  8
0
 10
664.99957275
 20
142.98538208
 30
0.0
  0
VERTEX
  8
0
 10
666.00024414
 20
142.95379639
 30
0.0
  0
VERTEX
  8
0
 10
666.99993896
 20
142.91242981
 30
0.0
  0
VERTEX
  8
0
 10
668.00012207
 20
142.88061523
 30
0.0
  0
VERTEX
  8
0
 10
669.0
 20
142.85275269
 30
0.0
  0
VERTEX
  8
0
 10
669.99993896
 20
142.82873535
 30
0.0
  0
VERTEX
  8
0
 10
671.0
 20
142.80274963
 30
0.0
  0
VERTEX
  8
0
 10
672.00006104
 20
142.77804565
 30
0.0
  0
VERTEX
  8
0
 10
673.0
 20
142.75767517
 30
0.0
  0
VERTEX
  8
0
 10
674.0
 20
142.74145508
 30
0.0
  0
VERTEX
  8
0
 10
675.00006104
 20
142.7286377
 30
0.0
  0
VERTEX
  8
0
 10
675.99993896
 20
142.71496582
 30
0.0
  0
VERTEX
  8
0
 10
677.0
 20
142.703125
 30
0.0
  0
VERTEX
  8
0
 10
678.0
 20
142.69155884
 30
0.0
  0
VERTEX
  8
0
 10
679.0
 20
142.68284607
 30
0.0
  0
VERTEX
  8
0
 10
679.99987793
 20
142.66876221
 30
0.0
  0
VERTEX
  8
0
 10
681.00012207
 20
142.65283203
 30
0.0
  0
VERTEX
  8
0
 10
682.0
 20
142.63432312
 30
0.0
  0
VERTEX
  8
0
 10
682.99993896
 20
142.61799622
 30
0.0
  0
VERTEX
  8
0
 10
683.99993896
 20
142.59608459
 30
0.0
  0
VERTEX
  8
0
 10
685.00012207
 20
142.57421875
 30
0.0
  0
VERTEX
  8
0
 10
685.99969482
 20
142.5448761
 30
0.0
  0
VERTEX
  8
0
 10
686.99981689
 20
142.54324341
 30
0.0
  0
VERTEX
  8
0
 10
687.99957275
 20
142.52232361
 30
0.0
  0
VERTEX
  8
0
 10
688.99243164
 20
142.44122314
 30
0.0
  0
VERTEX
  8
0
 10
690.00817871
 20
142.35638428
 30
0.0
  0
VERTEX
  8
0
 10
690.99206543
 20
142.37261963
 30
0.0
  0
VERTEX
  8
0
 10
692.00823975
 20
142.45391846
 30
0.0
  0
VERTEX
  8
0
 10
693.00024414
 20
142.51216125
 30
0.0
  0
VERTEX
  8
0
 10
694.0
 20
142.49497986
 30
0.0
  0
VERTEX
  8
0
 10
694.99987793
 20
142.48103333
 30
0.0
  0
VERTEX
  8
0
 10
696.00006104
 20
142.46304321
 30
0.0
  0
VERTEX
  8
0
 10
697.00006104
 20
142.44514465
 30
0.0
  0
VERTEX
  8
0
 10
697.99993896
 20
142.43180847
 30
0.0
  0
VERTEX
  8
0
 10
699.0
 20
142.41972351
 30
0.0
  0
VERTEX
  8
0
 10
700.0
 20
142.40194702
 30
0.0
  0
VERTEX
  8
0
 10
701.00006104
 20
142.38621521
 30
0.0
  0
VERTEX
  8
0
 10
702.0
 20
142.37594604
 30
0.0
  0
VERTEX
  8
0
 10
703.0
 20
142.3684845
 30
0.0
  0
VERTEX
  8
0
 10
703.99993896
 20
142.35641479
 30
0.0
  0
VERTEX
  8
0
 10
705.00006104
 20
142.3430481
 30
0.0
  0
VERTEX
  8
0
 10
706.0
 20
142.33061218
 30
0.0
  0
VERTEX
  8
0
 10
706.99993896
 20
142.31816101
 30
0.0
  0
VERTEX
  8
0
 10
707.99993896
 20
142.29804993
 30
0.0
  0
VERTEX
  8
0
 10
709.00012207
 20
142.27848816
 30
0.0
  0
VERTEX
  8
0
 10
709.99859619
 20
142.2361145
 30
0.0
  0
VERTEX
  8
0
 10
711.00140381
 20
142.20477295
 30
0.0
  0
VERTEX
  8
0
 10
712.0
 20
142.17181396
 30
0.0
  0
VERTEX
  8
0
 10
712.99975586
 20
142.15655518
 30
0.0
  0
VERTEX
  8
0
 10
713.99987793
 20
142.12348938
 30
0.0
  0
VERTEX
  8
0
 10
715.00018311
 20
142.08177185
 30
0.0
  0
VERTEX
  8
0
 10
715.99987793
 20
142.03712463
 30
0.0
  0
VERTEX
  8
0
 10
716.83331299
 20
142.00012207
 30
0.0
  0
VERTEX
  8
0
 10
717.00006104
 20
141.99356079
 30
0.0
  0
VERTEX
  8
0
 10
717.99993896
 20
141.96043396
 30
0.0
  0
VERTEX
  8
0
 10
719.00012207
 20
141.93208313
 30
0.0
  0
VERTEX
  8
0
 10
720.00006104
 20
141.90950012
 30
0.0
  0
VERTEX
  8
0
 10
720.99993896
 20
141.89045715
 30
0.0
  0
VERTEX
  8
0
 10
722.00006104
 20
141.87219238
 30
0.0
  0
VERTEX
  8
0
 10
722.99993896
 20
141.85075378
 30
0.0
  0
VERTEX
  8
0
 10
724.0
 20
141.83044434
 30
0.0
  0
VERTEX
  8
0
 10
724.99993896
 20
141.80604553
 30
0.0
  0
VERTEX
  8
0
 10
726.00012207
 20
141.7890625
 30
0.0
  0
VERTEX
  8
0
 10
726.99993896
 20
141.7729187
 30
0.0
  0
VERTEX
  8
0
 10
728.00006104
 20
141.76519775
 30
0.0
  0
VERTEX
  8
0
 10
728.99987793
 20
141.7487793
 30
0.0
  0
VERTEX
  8
0
 10
730.00006104
 20
141.73445129
 30
0.0
  0
VERTEX
  8
0
 10
731.0
 20
141.71896362
 30
0.0
  0
VERTEX
  8
0
 10
731.99993896
 20
141.70643616
 30
0.0
  0
VERTEX
  8
0
 10
733.00006104
 20
141.69552612
 30
0.0
  0
VERTEX
  8
0
 10
733.99993896
 20
141.68183899
 30
0.0
  0
VERTEX
  8
0
 10
735.0
 20
141.66970825
 30
0.0
  0
VERTEX
  8
0
 10
736.0
 20
141.66014099
 30
0.0
  0
VERTEX
  8
0
 10
737.0
 20
141.65382385
 30
0.0
  0
VERTEX
  8
0
 10
737.99993896
 20
141.64506531
 30
0.0
  0
VERTEX
  8
0
 10
739.0
 20
141.62844849
 30
0.0
  0
VERTEX
  8
0
 10
740.00006104
 20
141.61195374
 30
0.0
  0
VERTEX
  8
0
 10
741.0
 20
141.59794617
 30
0.0
  0
VERTEX
  8
0
 10
742.0
 20
141.58586121
 30
0.0
  0
VERTEX
  8
0
 10
743.00006104
 20
141.57389832
 30
0.0
  0
VERTEX
  8
0
 10
743.99993896
 20
141.56030273
 30
0.0
  0
VERTEX
  8
0
 10
745.0
 20
141.54658508
 30
0.0
  0
VERTEX
  8
0
 10
746.0
 20
141.53042603
 30
0.0
  0
VERTEX
  8
0
 10
747.0
 20
141.51742554
 30
0.0
  0
VERTEX
  8
0
 10
747.99993896
 20
141.50518799
 30
0.0
  0
VERTEX
  8
0
 10
748.99993896
 20
141.49006653
 30
0.0
  0
VERTEX
  8
0
 10
750.0
 20
141.47033691
 30
0.0
  0
VERTEX
  8
0
 10
751.00006104
 20
141.45304871
 30
0.0
  0
VERTEX
  8
0
 10
751.99981689
 20
141.43188477
 30
0.0
  0
VERTEX
  8
0
 10
753.00012207
 20
141.41184998
 30
0.0
  0
VERTEX
  8
0
 10
754.0
 20
141.3891449
 30
0.0
  0
VERTEX
  8
0
 10
755.0
 20
141.37440491
 30
0.0
  0
VERTEX
  8
0
 10
755.99993896
 20
141.35734558
 30
0.0
  0
VERTEX
  8
0
 10
756.99993896
 20
141.33476257
 30
0.0
  0
VERTEX
  8
0
 10
758.00018311
 20
141.31390381
 30
0.0
  0
VERTEX
  8
0
 10
759.0
 20
141.29788208
 30
0.0
  0
VERTEX
  8
0
 10
759.99993896
 20
141.28617859
 30
0.0
  0
VERTEX
  8
0
 10
760.99981689
 20
141.26225281
 30
0.0
  0
VERTEX
  8
0
 10
762.00030518
 20
141.24012756
 30
0.0
  0
VERTEX
  8
0
 10
763.0
 20
141.22068787
 30
0.0
  0
VERTEX
  8
0
 10
763.99981689
 20
141.20373535
 30
0.0
  0
VERTEX
  8
0
 10
765.0
 20
141.17805481
 30
0.0
  0
VERTEX
  8
0
 10
766.00018311
 20
141.15432739
 30
0.0
  0
VERTEX
  8
0
 10
766.99993896
 20
141.13502502
 30
0.0
  0
VERTEX
  8
0
 10
767.99993896
 20
141.11689758
 30
0.0
  0
VERTEX
  8
0
 10
768.99993896
 20
141.08885193
 30
0.0
  0
VERTEX
  8
0
 10
769.99993896
 20
141.05456543
 30
0.0
  0
VERTEX
  8
0
 10
770.99993896
 20
141.01490784
 30
0.0
  0
VERTEX
  8
0
 10
771.33331299
 20
141.00053406
 30
0.0
  0
VERTEX
  8
0
 10
772.00012207
 20
140.97213745
 30
0.0
  0
VERTEX
  8
0
 10
773.00012207
 20
140.93681335
 30
0.0
  0
VERTEX
  8
0
 10
773.99981689
 20
140.90164185
 30
0.0
  0
VERTEX
  8
0
 10
775.00030518
 20
140.8744812
 30
0.0
  0
VERTEX
  8
0
 10
775.99993896
 20
140.8487854
 30
0.0
  0
VERTEX
  8
0
 10
777.0
 20
140.83044434
 30
0.0
  0
VERTEX
  8
0
 10
777.99993896
 20
140.80604553
 30
0.0
  0
VERTEX
  8
0
 10
779.00012207
 20
140.78437805
 30
0.0
  0
VERTEX
  8
0
 10
779.99993896
 20
140.76229858
 30
0.0
  0
VERTEX
  8
0
 10
781.00006104
 20
140.748703
 30
0.0
  0
VERTEX
  8
0
 10
782.0
 20
140.73698425
 30
0.0
  0
VERTEX
  8
0
 10
783.0
 20
140.72994995
 30
0.0
  0
VERTEX
  8
0
 10
784.0
 20
140.72032166
 30
0.0
  0
VERTEX
  8
0
 10
785.0
 20
140.71092224
 30
0.0
  0
VERTEX
  8
0
 10
786.0
 20
140.70045471
 30
0.0
  0
VERTEX
  8
0
 10
787.0
 20
140.68913269
 30
0.0
  0
VERTEX
  8
0
 10
788.0
 20
140.67459106
 30
0.0
  0
VERTEX
  8
0
 10
789.0
 20
140.6583252
 30
0.0
  0
VERTEX
  8
0
 10
790.00006104
 20
140.64587402
 30
0.0
  0
VERTEX
  8
0
 10
791.0
 20
140.637146
 30
0.0
  0
VERTEX
  8
0
 10
792.0
 20
140.6322937
 30
0.0
  0
VERTEX
  8
0
 10
792.99993896
 20
140.62194824
 30
0.0
  0
VERTEX
  8
0
 10
794.00006104
 20
140.61233521
 30
0.0
  0
VERTEX
  8
0
 10
794.99987793
 20
140.5955658
 30
0.0
  0
VERTEX
  8
0
 10
796.00012207
 20
140.58413696
 30
0.0
  0
VERTEX
  8
0
 10
797.0
 20
140.57525635
 30
0.0
  0
VERTEX
  8
0
 10
798.0
 20
140.57354736
 30
0.0
  0
VERTEX
  8
0
 10
799.0
 20
140.56906128
 30
0.0
  0
VERTEX
  8
0
 10
800.0
 20
140.5625
 30
0.0
  0
VERTEX
  8
0
 10
800.99987793
 20
140.5486908
 30
0.0
  0
VERTEX
  8
0
 10
802.00006104
 20
140.53311157
 30
0.0
  0
VERTEX
  8
0
 10
803.0
 20
140.5133667
 30
0.0
  0
VERTEX
  8
0
 10
804.00006104
 20
140.50337219
 30
0.0
  0
VERTEX
  8
0
 10
804.99993896
 20
140.49128723
 30
0.0
  0
VERTEX
  8
0
 10
806.00006104
 20
140.47796631
 30
0.0
  0
VERTEX
  8
0
 10
807.00006104
 20
140.46003723
 30
0.0
  0
VERTEX
  8
0
 10
808.0
 20
140.44717407
 30
0.0
  0
VERTEX
  8
0
 10
808.99993896
 20
140.43466187
 30
0.0
  0
VERTEX
  8
0
 10
810.0
 20
140.42184448
 30
0.0
  0
VERTEX
  8
0
 10
810.99993896
 20
140.40351868
 30
0.0
  0
VERTEX
  8
0
 10
812.00006104
 20
140.38441467
 30
0.0
  0
VERTEX
  8
0
 10
813.00006104
 20
140.36738586
 30
0.0
  0
VERTEX
  8
0
 10
813.99969482
 20
140.34407043
 30
0.0
  0
VERTEX
  8
0
 10
815.00024414
 20
140.31962585
 30
0.0
  0
VERTEX
  8
0
 10
815.99981689
 20
140.28352356
 30
0.0
  0
VERTEX
  8
0
 10
817.00006104
 20
140.24952698
 30
0.0
  0
VERTEX
  8
0
 10
818.00018311
 20
140.217453
 30
0.0
  0
VERTEX
  8
0
 10
818.99981689
 20
140.1870575
 30
0.0
  0
VERTEX
  8
0
 10
819.99993896
 20
140.15625
 30
0.0
  0
VERTEX
  8
0
 10
820.99975586
 20
140.11289978
 30
0.0
  0
VERTEX
  8
0
 10
822.00042725
 20
140.07382202
 30
0.0
  0
VERTEX
  8
0
 10
823.00006104
 20
140.04244995
 30
0.0
  0
VERTEX
  8
0
 10
823.99987793
 20
140.01824951
 30
0.0
  0
VERTEX
  8
0
 10
824.59997559
 20
140.00028992
 30
0.0
  0
VERTEX
  8
0
 10
825.00006104
 20
139.98612976
 30
0.0
  0
VERTEX
  8
0
 10
826.0
 20
139.95545959
 30
0.0
  0
VERTEX
  8
0
 10
826.99993896
 20
139.92541504
 30
0.0
  0
VERTEX
  8
0
 10
828.0
 20
139.89511108
 30
0.0
  0
VERTEX
  8
0
 10
829.00012207
 20
139.86833191
 30
0.0
  0
VERTEX
  8
0
 10
830.00006104
 20
139.85055542
 30
0.0
  0
VERTEX
  8
0
 10
830.99969482
 20
139.8288269
 30
0.0
  0
VERTEX
  8
0
 10
832.00018311
 20
139.80471802
 30
0.0
  0
VERTEX
  8
0
 10
833.0
 20
139.77339172
 30
0.0
  0
VERTEX
  8
0
 10
834.0
 20
139.74768066
 30
0.0
  0
VERTEX
  8
0
 10
835.00006104
 20
139.72473145
 30
0.0
  0
VERTEX
  8
0
 10
836.0
 20
139.70454407
 30
0.0
  0
VERTEX
  8
0
 10
837.00006104
 20
139.69284058
 30
0.0
  0
VERTEX
  8
0
 10
838.0
 20
139.68525696
 30
0.0
  0
VERTEX
  8
0
 10
839.0
 20
139.68161011
 30
0.0
  0
VERTEX
  8
0
 10
840.0
 20
139.67675781
 30
0.0
  0
VERTEX
  8
0
 10
841.0
 20
139.67434692
 30
0.0
  0
VERTEX
  8
0
 10
841.99987793
 20
139.66421509
 30
0.0
  0
VERTEX
  8
0
 10
843.00012207
 20
139.65328979
 30
0.0
  0
VERTEX
  8
0
 10
844.0
 20
139.63945007
 30
0.0
  0
VERTEX
  8
0
 10
845.0
 20
139.63314819
 30
0.0
  0
VERTEX
  8
0
 10
846.0
 20
139.62548828
 30
0.0
  0
VERTEX
  8
0
 10
846.99987793
 20
139.60931396
 30
0.0
  0
VERTEX
  8
0
 10
848.00012207
 20
139.59344482
 30
0.0
  0
VERTEX
  8
0
 10
848.99993896
 20
139.57492065
 30
0.0
  0
VERTEX
  8
0
 10
849.99987793
 20
139.55502319
 30
0.0
  0
VERTEX
  8
0
 10
851.00018311
 20
139.54212952
 30
0.0
  0
VERTEX
  8
0
 10
852.0
 20
139.53291321
 30
0.0
  0
VERTEX
  8
0
 10
853.0
 20
139.53024292
 30
0.0
  0
VERTEX
  8
0
 10
854.0
 20
139.51945496
 30
0.0
  0
VERTEX
  8
0
 10
855.0
 20
139.50845337
 30
0.0
  0
VERTEX
  8
0
 10
855.99993896
 20
139.49551392
 30
0.0
  0
VERTEX
  8
0
 10
857.00006104
 20
139.4861145
 30
0.0
  0
VERTEX
  8
0
 10
858.0
 20
139.47660828
 30
0.0
  0
VERTEX
  8
0
 10
858.99987793
 20
139.46490479
 30
0.0
  0
VERTEX
  8
0
 10
860.00006104
 20
139.44718933
 30
0.0
  0
VERTEX
  8
0
 10
861.0
 20
139.42520142
 30
0.0
  0
VERTEX
  8
0
 10
862.0
 20
139.40646362
 30
0.0
  0
VERTEX
  8
0
 10
863.00006104
 20
139.39128113
 30
0.0
  0
VERTEX
  8
0
 10
863.99993896
 20
139.37748718
 30
0.0
  0
VERTEX
  8
0
 10
864.99993896
 20
139.36070251
 30
0.0
  0
VERTEX
  8
0
 10
866.00006104
 20
139.34159851
 30
0.0
  0
VERTEX
  8
0
 10
867.0
 20
139.32183838
 30
0.0
  0
VERTEX
  8
0
 10
868.00006104
 20
139.3081665
 30
0.0
  0
VERTEX
  8
0
 10
868.99975586
 20
139.28585815
 30
0.0
  0
VERTEX
  8
0
 10
869.99981689
 20
139.25227356
 30
0.0
  0
VERTEX
  8
0
 10
871.00036621
 20
139.21366882
 30
0.0
  0
VERTEX
  8
0
 10
872.00006104
 20
139.18455505
 30
0.0
  0
VERTEX
  8
0
 10
872.99993896
 20
139.16651917
 30
0.0
  0
VERTEX
  8
0
 10
873.99945068
 20
139.13665771
 30
0.0
  0
VERTEX
  8
0
 10
875.00012207
 20
139.09362793
 30
0.0
  0
VERTEX
  8
0
 10
876.00036621
 20
139.05168152
 30
0.0
  0
VERTEX
  8
0
 10
876.99987793
 20
139.01953125
 30
0.0
  0
VERTEX
  8
0
 10
877.75
 20
139.00012207
 30
0.0
  0
VERTEX
  8
0
 10
877.99993896
 20
138.99061584
 30
0.0
  0
VERTEX
  8
0
 10
879.00030518
 20
138.95791626
 30
0.0
  0
VERTEX
  8
0
 10
879.99993896
 20
138.92958069
 30
0.0
  0
VERTEX
  8
0
 10
880.99987793
 20
138.90361023
 30
0.0
  0
VERTEX
  8
0
 10
882.00018311
 20
138.87644958
 30
0.0
  0
VERTEX
  8
0
 10
882.99993896
 20
138.84896851
 30
0.0
  0
VERTEX
  8
0
 10
884.0
 20
138.82525635
 30
0.0
  0
VERTEX
  8
0
 10
885.00012207
 20
138.8057251
 30
0.0
  0
VERTEX
  8
0
 10
885.99987793
 20
138.7858429
 30
0.0
  0
VERTEX
  8
0
 10
887.0
 20
138.76573181
 30
0.0
  0
VERTEX
  8
0
 10
888.00012207
 20
138.748703
 30
0.0
  0
VERTEX
  8
0
 10
889.0
 20
138.73698425
 30
0.0
  0
VERTEX
  8
0
 10
890.0
 20
138.73275757
 30
0.0
  0
VERTEX
  8
0
 10
891.0
 20
138.72302246
 30
0.0
  0
VERTEX
  8
0
 10
892.0
 20
138.7162323
 30
0.0
  0
VERTEX
  8
0
 10
892.99993896
 20
138.70565796
 30
0.0
  0
VERTEX
  8
0
 10
894.00006104
 20
138.70042419
 30
0.0
  0
VERTEX
  8
0
 10
895.0
 20
138.69276428
 30
0.0
  0
VERTEX
  8
0
 10
896.0
 20
138.68780518
 30
0.0
  0
VERTEX
  8
0
 10
896.99987793
 20
138.6714325
 30
0.0
  0
VERTEX
  8
0
 10
898.00006104
 20
138.6502533
 30
0.0
  0
VERTEX
  8
0
 10
899.00012207
 20
138.6282959
 30
0.0
  0
VERTEX
  8
0
 10
900.0
 20
138.61134338
 30
0.0
  0
VERTEX
  8
0
 10
901.0
 20
138.59649658
 30
0.0
  0
VERTEX
  8
0
 10
902.00006104
 20
138.58764648
 30
0.0
  0
VERTEX
  8
0
 10
903.0
 20
138.58081055
 30
0.0
  0
VERTEX
  8
0
 10
904.0
 20
138.5799408
 30
0.0
  0
VERTEX
  8
0
 10
905.0
 20
138.57507324
 30
0.0
  0
VERTEX
  8
0
 10
906.0
 20
138.573349
 30
0.0
  0
VERTEX
  8
0
 10
907.0
 20
138.57119751
 30
0.0
  0
VERTEX
  8
0
 10
907.99987793
 20
138.56230164
 30
0.0
  0
VERTEX
  8
0
 10
909.00006104
 20
138.55158997
 30
0.0
  0
VERTEX
  8
0
 10
910.0
 20
138.5369873
 30
0.0
  0
VERTEX
  8
0
 10
911.0
 20
138.52781677
 30
0.0
  0
VERTEX
  8
0
 10
912.0
 20
138.52122498
 30
0.0
  0
VERTEX
  8
0
 10
912.99993896
 20
138.51358032
 30
0.0
  0
VERTEX
  8
0
 10
914.00006104
 20
138.50759888
 30
0.0
  0
VERTEX
  8
0
 10
915.0
 20
138.50257874
 30
0.0
  0
VERTEX
  8
0
 10
916.0
 20
138.50422668
 30
0.0
  0
VERTEX
  8
0
 10
917.0
 20
138.50508118
 30
0.0
  0
VERTEX
  8
0
 10
918.0
 20
138.50508118
 30
0.0
  0
VERTEX
  8
0
 10
919.0
 20
138.50765991
 30
0.0
  0
VERTEX
  8
0
 10
920.0
 20
138.51022339
 30
0.0
  0
VERTEX
  8
0
 10
921.0
 20
138.51365662
 30
0.0
  0
VERTEX
  8
0
 10
922.0
 20
138.51528931
 30
0.0
  0
VERTEX
  8
0
 10
923.0
 20
138.5153656
 30
0.0
  0
VERTEX
  8
0
 10
923.99993896
 20
138.51942444
 30
0.0
  0
VERTEX
  8
0
 10
925.00006104
 20
138.5244751
 30
0.0
  0
VERTEX
  8
0
 10
926.0
 20
138.53765869
 30
0.0
  0
VERTEX
  8
0
 10
927.00006104
 20
138.54603577
 30
0.0
  0
VERTEX
  8
0
 10
928.0
 20
138.55613708
 30
0.0
  0
VERTEX
  8
0
 10
929.0
 20
138.56629944
 30
0.0
  0
VERTEX
  8
0
 10
930.00006104
 20
138.57649231
 30
0.0
  0
VERTEX
  8
0
 10
930.99993896
 20
138.58728027
 30
0.0
  0
VERTEX
  8
0
 10
931.99993896
 20
138.58596802
 30
0.0
  0
VERTEX
  8
0
 10
932.99993896
 20
138.5934906
 30
0.0
  0
VERTEX
  8
0
 10
934.00006104
 20
138.60269165
 30
0.0
  0
VERTEX
  8
0
 10
934.99987793
 20
138.60739136
 30
0.0
  0
VERTEX
  8
0
 10
935.99554443
 20
138.54667664
 30
0.0
  0
VERTEX
  8
0
 10
936.99981689
 20
138.53553772
 30
0.0
  0
VERTEX
  8
0
 10
938.0022583
 20
138.57815552
 30
0.0
  0
VERTEX
  8
0
 10
939.00250244
 20
138.68191528
 30
0.0
  0
VERTEX
  8
0
 10
939.99975586
 20
138.74198914
 30
0.0
  0
VERTEX
  8
0
 10
940.99951172
 20
138.78315735
 30
0.0
  0
VERTEX
  8
0
 10
941.99951172
 20
138.84744263
 30
0.0
  0
VERTEX
  8
0
 10
943.00012207
 20
138.92523193
 30
0.0
  0
VERTEX
  8
0
 10
943.90905762
 20
139.0004425
 30
0.0
  0
VERTEX
  8
0
 10
943.99987793
 20
139.00938416
 30
0.0
  0
VERTEX
  8
0
 10
945.0022583
 20
139.0861969
 30
0.0
  0
VERTEX
  8
0
 10
946.0
 20
139.12745667
 30
0.0
  0
VERTEX
  8
0
 10
946.99267578
 20
139.19932556
 30
0.0
  0
VERTEX
  8
0
 10
948.00579834
 20
139.30473328
 30
0.0
  0
VERTEX
  8
0
 10
949.00109863
 20
139.42042542
 30
0.0
  0
VERTEX
  8
0
 10
949.99975586
 20
139.48690796
 30
0.0
  0
VERTEX
  8
0
 10
951.00030518
 20
139.53752136
 30
0.0
  0
VERTEX
  8
0
 10
951.99987793
 20
139.59068298
 30
0.0
  0
VERTEX
  8
0
 10
952.99987793
 20
139.6436615
 30
0.0
  0
VERTEX
  8
0
 10
953.99969482
 20
139.70579529
 30
0.0
  0
VERTEX
  8
0
 10
954.99969482
 20
139.7780304
 30
0.0
  0
VERTEX
  8
0
 10
955.99786377
 20
139.8772583
 30
0.0
  0
VERTEX
  8
0
 10
956.99688721
 20
140.01837158
 30
0.0
  0
VERTEX
  8
0
 10
958.00402832
 20
140.17327881
 30
0.0
  0
VERTEX
  8
0
 10
959.00042725
 20
140.3157959
 30
0.0
  0
VERTEX
  8
0
 10
960.00061035
 20
140.42300415
 30
0.0
  0
VERTEX
  8
0
 10
961.00018311
 20
140.51785278
 30
0.0
  0
VERTEX
  8
0
 10
962.00036621
 20
140.59873962
 30
0.0
  0
VERTEX
  8
0
 10
962.99932861
 20
140.68026733
 30
0.0
  0
VERTEX
  8
0
 10
963.99780273
 20
140.78329468
 30
0.0
  0
VERTEX
  8
0
 10
964.99822998
 20
140.92446899
 30
0.0
  0
VERTEX
  8
0
 10
965.41369629
 20
141.0007019
 30
0.0
  0
VERTEX
  8
0
 10
966.00128174
 20
141.1182251
 30
0.0
  0
VERTEX
  8
0
 10
967.00268555
 20
141.2922821
 30
0.0
  0
VERTEX
  8
0
 10
968.0012207
 20
141.43109131
 30
0.0
  0
VERTEX
  8
0
 10
969.00024414
 20
141.53945923
 30
0.0
  0
VERTEX
  8
0
 10
969.99987793
 20
141.63555908
 30
0.0
  0
VERTEX
  8
0
 10
970.99737549
 20
141.75050354
 30
0.0
  0
VERTEX
  8
0
 10
971.99621582
 20
141.90841675
 30
0.0
  0
VERTEX
  8
0
 10
972.41021729
 20
142.00028992
 30
0.0
  0
VERTEX
  8
0
 10
973.00396729
 20
142.14430237
 30
0.0
  0
VERTEX
  8
0
 10
974.00366211
 20
142.33781433
 30
0.0
  0
VERTEX
  8
0
 10
975.00018311
 20
142.48812866
 30
0.0
  0
VERTEX
  8
0
 10
976.00085449
 20
142.6073761
 30
0.0
  0
VERTEX
  8
0
 10
976.99621582
 20
142.7437439
 30
0.0
  0
VERTEX
  8
0
 10
977.99609375
 20
142.9196167
 30
0.0
  0
VERTEX
  8
0
 10
978.31170654
 20
142.99812317
 30
0.0
  0
VERTEX
  8
0
 10
979.00714111
 20
143.17814636
 30
0.0
  0
VERTEX
  8
0
 10
980.0010376
 20
143.38499451
 30
0.0
  0
VERTEX
  8
0
 10
981.0032959
 20
143.52664185
 30
0.0
  0
VERTEX
  8
0
 10
981.99713135
 20
143.65805054
 30
0.0
  0
VERTEX
  8
0
 10
982.99475098
 20
143.81437683
 30
0.0
  0
VERTEX
  8
0
 10
983.87078857
 20
144.00389099
 30
0.0
  0
VERTEX
  8
0
 10
984.00079346
 20
144.03666687
 30
0.0
  0
VERTEX
  8
0
 10
985.00524902
 20
144.2743988
 30
0.0
  0
VERTEX
  8
0
 10
986.00256348
 20
144.46580505
 30
0.0
  0
VERTEX
  8
0
 10
987.00012207
 20
144.61505127
 30
0.0
  0
VERTEX
  8
0
 10
987.99243164
 20
144.7862854
 30
0.0
  0
VERTEX
  8
0
 10
988.99493408
 20
145.01791382
 30
0.0
  0
VERTEX
  8
0
 10
990.0100708
 20
145.2702179
 30
0.0
  0
VERTEX
  8
0
 10
991.00158691
 20
145.48287964
 30
0.0
  0
VERTEX
  8
0
 10
991.99908447
 20
145.65019226
 30
0.0
  0
VERTEX
  8
0
 10
992.99243164
 20
145.84861755
 30
0.0
  0
VERTEX
  8
0
 10
993.578125
 20
146.00567627
 30
0.0
  0
VERTEX
  8
0
 10
994.00469971
 20
146.13482666
 30
0.0
  0
VERTEX
  8
0
 10
995.00579834
 20
146.39089966
 30
0.0
  0
VERTEX
  8
0
 10
996.00140381
 20
146.59295654
 30
0.0
  0
VERTEX
  8
0
 10
996.99072266
 20
146.80223083
 30
0.0
  0
VERTEX
  8
0
 10
997.76647949
 20
147.00836182
 30
0.0
  0
VERTEX
  8
0
 10
998.00354004
 20
147.07951355
 30
0.0
  0
VERTEX
  8
0
 10
999.00750732
 20
147.33688354
 30
0.0
  0
VERTEX
  8
0
 10
1000.00024414
 20
147.5425415
 30
0.0
  0
VERTEX
  8
0
 10
1000.99285889
 20
147.74577332
 30
0.0
  0
VERTEX
  8
0
 10
1001.99926758
 20
147.98719788
 30
0.0
  0
VERTEX
  8
0
 10
1002.03619385
 20
147.9985199
 30
0.0
  0
VERTEX
  8
0
 10
1003.01116943
 20
148.28825378
 30
0.0
  0
VERTEX
  8
0
 10
1004.00158691
 20
148.52792358
 30
0.0
  0
VERTEX
  8
0
 10
1004.9909668
 20
148.75497437
 30
0.0
  0
VERTEX
  8
0
 10
1005.92456055
 20
149.00437927
 30
0.0
  0
VERTEX
  8
0
 10
1006.00115967
 20
149.02882385
 30
0.0
  0
VERTEX
  8
0
 10
1007.01074219
 20
149.32402039
 30
0.0
  0
VERTEX
  8
0
 10
1008.00061035
 20
149.56401062
 30
0.0
  0
VERTEX
  8
0
 10
1008.98803711
 20
149.80622864
 30
0.0
  0
VERTEX
  8
0
 10
1009.61181641
 20
150.00865173
 30
0.0
  0
VERTEX
  8
0
 10
1010.00836182
 20
150.14953613
 30
0.0
  0
VERTEX
  8
0
 10
1011.00830078
 20
150.43348694
 30
0.0
  0
VERTEX
  8
0
 10
1011.99542236
 20
150.67247009
 30
0.0
  0
VERTEX
  8
0
 10
1012.9942627
 20
150.92155457
 30
0.0
  0
VERTEX
  8
0
 10
1013.2144165
 20
150.99435425
 30
0.0
  0
VERTEX
  8
0
 10
1014.01324463
 20
151.27450562
 30
0.0
  0
VERTEX
  8
0
 10
1015.0043335
 20
151.53939819
 30
0.0
  0
VERTEX
  8
0
 10
1015.98773193
 20
151.78704834
 30
0.0
  0
VERTEX
  8
0
 10
1016.71008301
 20
152.01081848
 30
0.0
  0
VERTEX
  8
0
 10
1017.00598145
 20
152.1149292
 30
0.0
  0
VERTEX
  8
0
 10
1018.00915527
 20
152.41622925
 30
0.0
  0
VERTEX
  8
0
 10
1018.99414063
 20
152.68185425
 30
0.0
  0
VERTEX
  8
0
 10
1019.99639893
 20
152.95278931
 30
0.0
  0
VERTEX
  8
0
 10
1020.11810303
 20
152.99485779
 30
0.0
  0
VERTEX
  8
0
 10
1021.01422119
 20
153.31477356
 30
0.0
  0
VERTEX
  8
0
 10
1022.00012207
 20
153.60871887
 30
0.0
  0
VERTEX
  8
0
 10
1022.99072266
 20
153.89002991
 30
0.0
  0
VERTEX
  8
0
 10
1023.2789917
 20
153.99429321
 30
0.0
  0
VERTEX
  8
0
 10
1024.01745605
 20
154.27882385
 30
0.0
  0
VERTEX
  8
0
 10
1024.99938965
 20
154.58195496
 30
0.0
  0
VERTEX
  8
0
 10
1025.98864746
 20
154.87255859
 30
0.0
  0
VERTEX
  8
0
 10
1026.30773926
 20
154.99449158
 30
0.0
  0
VERTEX
  8
0
 10
1027.01940918
 20
155.2832489
 30
0.0
  0
VERTEX
  8
0
 10
1027.99804688
 20
155.60313416
 30
0.0
  0
VERTEX
  8
0
 10
1028.9921875
 20
155.90072632
 30
0.0
  0
VERTEX
  8
0
 10
1029.24291992
 20
155.99371338
 30
0.0
  0
VERTEX
  8
0
 10
1030.01501465
 20
156.29847717
 30
0.0
  0
VERTEX
  8
0
 10
1030.99597168
 20
156.63594055
 30
0.0
  0
VERTEX
  8
0
 10
1031.9967041
 20
156.95770264
 30
0.0
  0
VERTEX
  8
0
 10
1032.09436035
 20
156.99502563
 30
0.0
  0
VERTEX
  8
0
 10
1033.01660156
 20
157.34889221
 30
0.0
  0
VERTEX
  8
0
 10
1033.98974609
 20
157.69703674
 30
0.0
  0
VERTEX
  8
0
 10
1034.87280273
 20
158.00987244
 30
0.0
  0
VERTEX
  8
0
 10
1035.00354004
 20
158.0620575
 30
0.0
  0
VERTEX
  8
0
 10
1036.01574707
 20
158.43373108
 30
0.0
  0
VERTEX
  8
0
 10
1036.98706055
 20
158.77500916
 30
0.0
  0
VERTEX
  8
0
 10
1037.60766602
 20
159.01208496
 30
0.0
  0
VERTEX
  8
0
 10
1038.0090332
 20
159.18258667
 30
0.0
  0
VERTEX
  8
0
 10
1039.00524902
 20
159.57249451
 30
0.0
  0
VERTEX
  8
0
 10
1039.9942627
 20
159.93638611
 30
0.0
  0
VERTEX
  8
0
 10
1040.13293457
 20
159.9928894
 30
0.0
  0
VERTEX
  8
0
 10
1041.0213623
 20
160.35652161
 30
0.0
  0
VERTEX
  8
0
 10
1041.98901367
 20
160.71186829
 30
0.0
  0
VERTEX
  8
0
 10
1042.82836914
 20
161.01217651
 30
0.0
  0
VERTEX
  8
0
 10
1043.00390625
 20
161.08486938
 30
0.0
  0
VERTEX
  8
0
 10
1044.00805664
 20
161.5058136
 30
0.0
  0
VERTEX
  8
0
 10
1044.99536133
 20
161.90036011
 30
0.0
  0
VERTEX
  8
0
 10
1045.23059082
 20
161.99533081
 30
0.0
  0
VERTEX
  8
0
 10
1046.00964355
 20
162.31216431
 30
0.0
  0
VERTEX
  8
0
 10
1046.98327637
 20
162.71604919
 30
0.0
  0
VERTEX
  8
0
 10
1047.60913086
 20
163.00814819
 30
0.0
  0
VERTEX
  8
0
 10
1048.01513672
 20
163.19432068
 30
0.0
  0
VERTEX
  8
0
 10
1048.99169922
 20
163.60507202
 30
0.0
  0
VERTEX
  8
0
 10
1049.97363281
 20
164.00242615
 30
0.0
  0
VERTEX
  8
0
 10
1050.00085449
 20
164.01487732
 30
0.0
  0
VERTEX
  8
0
 10
1051.01977539
 20
164.45962524
 30
0.0
  0
VERTEX
  8
0
 10
1051.98681641
 20
164.86546326
 30
0.0
  0
VERTEX
  8
0
 10
1052.26953125
 20
164.99266052
 30
0.0
  0
VERTEX
  8
0
 10
1053.02404785
 20
165.3536377
 30
0.0
  0
VERTEX
  8
0
 10
1053.98413086
 20
165.77148438
 30
0.0
  0
VERTEX
  8
0
 10
1054.49609375
 20
166.00689697
 30
0.0
  0
VERTEX
  8
0
 10
1055.01928711
 20
166.25112915
 30
0.0
  0
VERTEX
  8
0
 10
1055.98913574
 20
166.66777039
 30
0.0
  0
VERTEX
  8
0
 10
1056.79089355
 20
167.01416016
 30
0.0
  0
VERTEX
  8
0
 10
1057.00720215
 20
167.11213684
 30
0.0
  0
VERTEX
  8
0
 10
1058.00146484
 20
167.56260681
 30
0.0
  0
VERTEX
  8
0
 10
1058.99938965
 20
167.99357605
 30
0.0
  0
VERTEX
  8
0
 10
1059.0111084
 20
167.99905396
 30
0.0
  0
VERTEX
  8
0
 10
1060.01965332
 20
168.45953369
 30
0.0
  0
VERTEX
  8
0
 10
1060.98815918
 20
168.88269043
 30
0.0
  0
VERTEX
  8
0
 10
1061.22216797
 20
168.99259949
 30
0.0
  0
VERTEX
  8
0
 10
1062.02172852
 20
169.4078064
 30
0.0
  0
VERTEX
  8
0
 10
1062.98803711
 20
169.86907959
 30
0.0
  0
VERTEX
  8
0
 10
1063.23803711
 20
169.99168396
 30
0.0
  0
VERTEX
  8
0
 10
1064.02404785
 20
170.39013672
 30
0.0
  0
VERTEX
  8
0
 10
1064.98535156
 20
170.83480835
 30
0.0
  0
VERTEX
  8
0
 10
1065.31628418
 20
170.99584961
 30
0.0
  0
VERTEX
  8
0
 10
1066.02282715
 20
171.36238098
 30
0.0
  0
VERTEX
  8
0
 10
1066.98669434
 20
171.82023621
 30
0.0
  0
VERTEX
  8
0
 10
1067.34765625
 20
171.99879456
 30
0.0
  0
VERTEX
  8
0
 10
1068.02001953
 20
172.34788513
 30
0.0
  0
VERTEX
  8
0
 10
1068.98657227
 20
172.81915283
 30
0.0
  0
VERTEX
  8
0
 10
1069.33532715
 20
172.99688721
 30
0.0
  0
VERTEX
  8
0
 10
1070.01977539
 20
173.36135864
 30
0.0
  0
VERTEX
  8
0
 10
1070.98730469
 20
173.84205627
 30
0.0
  0
VERTEX
  8
0
 10
1071.2824707
 20
173.9940033
 30
0.0
  0
VERTEX
  8
0
 10
1072.02050781
 20
174.3914032
 30
0.0
  0
VERTEX
  8
0
 10
1072.98876953
 20
174.87159729
 30
0.0
  0
VERTEX
  8
0
 10
1073.22607422
 20
174.9919281
 30
0.0
  0
VERTEX
  8
0
 10
1074.01940918
 20
175.41790771
 30
0.0
  0
VERTEX
  8
0
 10
1074.98974609
 20
175.89863586
 30
0.0
  0
VERTEX
  8
0
 10
1075.16918945
 20
175.99116516
 30
0.0
  0
VERTEX
  8
0
 10
1076.01843262
 20
176.4703064
 30
0.0
  0
VERTEX
  8
0
 10
1076.99694824
 20
176.96876526
 30
0.0
  0
VERTEX
  8
0
 10
1077.04992676
 20
176.99612427
 30
0.0
  0
VERTEX
  8
0
 10
1078.01062012
 20
177.52960205
 30
0.0
  0
VERTEX
  8
0
 10
1078.90698242
 20
178.00813293
 30
0.0
  0
VERTEX
  8
0
 10
1079.00354004
 20
178.05796814
 30
0.0
  0
VERTEX
  8
0
 10
1079.99829102
 20
178.60215759
 30
0.0
  0
VERTEX
  8
0
 10
1080.7208252
 20
179.01557922
 30
0.0
  0
VERTEX
  8
0
 10
1081.01184082
 20
179.17196655
 30
0.0
  0
VERTEX
  8
0
 10
1081.98876953
 20
179.71208191
 30
0.0
  0
VERTEX
  8
0
 10
1082.49047852
 20
180.00765991
 30
0.0
  0
VERTEX
  8
0
 10
1083.02294922
 20
180.30236816
 30
0.0
  0
VERTEX
  8
0
 10
1083.98498535
 20
180.80595398
 30
0.0
  0
VERTEX
  8
0
 10
1084.33496094
 20
180.99763489
 30
0.0
  0
VERTEX
  8
0
 10
1085.01867676
 20
181.4012146
 30
0.0
  0
VERTEX
  8
0
 10
1085.99365234
 20
181.93302917
 30
0.0
  0
VERTEX
  8
0
 10
1086.10229492
 20
181.99371338
 30
0.0
  0
VERTEX
  8
0
 10
1087.00683594
 20
182.5561676
 30
0.0
  0
VERTEX
  8
0
 10
1087.74597168
 20
183.01473999
 30
0.0
  0
VERTEX
  8
0
 10
1088.01196289
 20
183.16189575
 30
0.0
  0
VERTEX
  8
0
 10
1088.98461914
 20
183.71986389
 30
0.0
  0
VERTEX
  8
0
 10
1089.44213867
 20
184.00326538
 30
0.0
  0
VERTEX
  8
0
 10
1090.02282715
 20
184.36087036
 30
0.0
  0
VERTEX
  8
0
 10
1090.99206543
 20
184.90985107
 30
0.0
  0
VERTEX
  8
0
 10
1091.1385498
 20
184.99293518
 30
0.0
  0
VERTEX
  8
0
 10
1092.00476074
 20
185.54341125
 30
0.0
  0
VERTEX
  8
0
 10
1092.74365234
 20
186.01400757
 30
0.0
  0
VERTEX
  8
0
 10
1093.01147461
 20
186.16993713
 30
0.0
  0
VERTEX
  8
0
 10
1093.9876709
 20
186.75494385
 30
0.0
  0
VERTEX
  8
0
 10
1094.375
 20
187.0
 30
0.0
  0
VERTEX
  8
0
 10
1095.01733398
 20
187.41548157
 30
0.0
  0
VERTEX
  8
0
 10
1095.98620605
 20
188.0229187
 30
0.0
  0
VERTEX
  8
0
 10
1097.00292969
 20
188.645401
 30
0.0
  0
VERTEX
  8
0
 10
1097.5534668
 20
189.01344299
 30
0.0
  0
VERTEX
  8
0
 10
1098.02001953
 20
189.28887939
 30
0.0
  0
VERTEX
  8
0
 10
1098.98913574
 20
189.84516907
 30
0.0
  0
VERTEX
  8
0
 10
1099.24108887
 20
190.0
 30
0.0
  0
VERTEX
  8
0
 10
1100.00720215
 20
190.54153442
 30
0.0
  0
VERTEX
  8
0
 10
1100.67285156
 20
191.00538635
 30
0.0
  0
VERTEX
  8
0
 10
1101.00976563
 20
191.21598816
 30
0.0
  0
VERTEX
  8
0
 10
1101.9855957
 20
191.82632446
 30
0.0
  0
VERTEX
  8
0
 10
1102.23681641
 20
191.98832703
 30
0.0
  0
VERTEX
  8
0
 10
1103.00756836
 20
192.52703857
 30
0.0
  0
VERTEX
  8
0
 10
1103.71960449
 20
193.01608276
 30
0.0
  0
VERTEX
  8
0
 10
1104.01379395
 20
193.19927979
 30
0.0
  0
VERTEX
  8
0
 10
1104.98742676
 20
193.82415771
 30
0.0
  0
VERTEX
  8
0
 10
1105.24206543
 20
193.99281311
 30
0.0
  0
VERTEX
  8
0
 10
1106.00683594
 20
194.5458374
 30
0.0
  0
VERTEX
  8
0
 10
1106.65649414
 20
195.01425171
 30
0.0
  0
VERTEX
  8
0
 10
1107.01708984
 20
195.24440002
 30
0.0
  0
VERTEX
  8
0
 10
1107.98803711
 20
195.86105347
 30
0.0
  0
VERTEX
  8
0
 10
1108.18798828
 20
195.99157715
 30
0.0
  0
VERTEX
  8
0
 10
1109.00231934
 20
196.59016418
 30
0.0
  0
VERTEX
  8
0
 10
1109.56945801
 20
197.01159668
 30
0.0
  0
VERTEX
  8
0
 10
1110.01660156
 20
197.31933594
 30
0.0
  0
VERTEX
  8
0
 10
1110.99780273
 20
197.97299194
 30
0.0
  0
VERTEX
  8
0
 10
1111.03491211
 20
197.99736023
 30
0.0
  0
VERTEX
  8
0
 10
1111.99621582
 20
198.67012024
 30
0.0
  0
VERTEX
  8
0
 10
1112.45629883
 20
199.006073
 30
0.0
  0
VERTEX
  8
0
 10
1113.00878906
 20
199.41130066
 30
0.0
  0
VERTEX
  8
0
 10
1113.81738281
 20
200.00993347
 30
0.0
  0
VERTEX
  8
0
 10
1114.00805664
 20
200.14222717
 30
0.0
  0
VERTEX
  8
0
 10
1114.99108887
 20
200.84275818
 30
0.0
  0
VERTEX
  8
0
 10
1115.19836426
 20
200.99446106
 30
0.0
  0
VERTEX
  8
0
 10
1115.99731445
 20
201.6313324
 30
0.0
  0
VERTEX
  8
0
 10
1116.45849609
 20
202.00239563
 30
0.0
  0
VERTEX
  8
0
 10
1117.01025391
 20
202.43580627
 30
0.0
  0
VERTEX
  8
0
 10
1117.74609375
 20
203.01068115
 30
0.0
  0
VERTEX
  8
0
 10
1118.01318359
 20
203.19619751
 30
0.0
  0
VERTEX
  8
0
 10
1118.99023438
 20
203.86711121
 30
0.0
  0
VERTEX
  8
0
 10
1119.16931152
 20
203.99337769
 30
0.0
  0
VERTEX
  8
0
 10
1119.99682617
 20
204.64405823
 30
0.0
  0
VERTEX
  8
0
 10
1120.44689941
 20
205.0037384
 30
0.0
  0
VERTEX
  8
0
 10
1121.01025391
 20
205.44789124
 30
0.0
  0
VERTEX
  8
0
 10
1121.72363281
 20
206.01048279
 30
0.0
  0
VERTEX
  8
0
 10
1122.01123047
 20
206.21833801
 30
0.0
  0
VERTEX
  8
0
 10
1122.99462891
 20
206.92797852
 30
0.0
  0
VERTEX
  8
0
 10
1123.08605957
 20
206.99583435
 30
0.0
  0
VERTEX
  8
0
 10
1123.99499512
 20
207.73675537
 30
0.0
  0
VERTEX
  8
0
 10
1124.31201172
 20
207.99798584
 30
0.0
  0
VERTEX
  8
0
 10
1125.00622559
 20
208.57371521
 30
0.0
  0
VERTEX
  8
0
 10
1125.52990723
 20
209.00901794
 30
0.0
  0
VERTEX
  8
0
 10
1126.00537109
 20
209.39616394
 30
0.0
  0
VERTEX
  8
0
 10
1126.73071289
 20
210.0062561
 30
0.0
  0
VERTEX
  8
0
 10
1127.01098633
 20
210.22273254
 30
0.0
  0
VERTEX
  8
0
 10
1127.99731445
 20
210.95857239
 30
0.0
  0
VERTEX
  8
0
 10
1128.0489502
 20
210.9979248
 30
0.0
  0
VERTEX
  8
0
 10
1128.99682617
 20
211.77453613
 30
0.0
  0
VERTEX
  8
0
 10
1129.2677002
 20
211.99887085
 30
0.0
  0
VERTEX
  8
0
 10
1129.99621582
 20
212.62319946
 30
0.0
  0
VERTEX
  8
0
 10
1130.43005371
 20
212.99949646
 30
0.0
  0
VERTEX
  8
0
 10
1131.00354004
 20
213.49897766
 30
0.0
  0
VERTEX
  8
0
 10
1131.58435059
 20
214.0045929
 30
0.0
  0
VERTEX
  8
0
 10
1132.0090332
 20
214.35736084
 30
0.0
  0
VERTEX
  8
0
 10
1132.79443359
 20
215.00694275
 30
0.0
  0
VERTEX
  8
0
 10
1133.00708008
 20
215.17269897
 30
0.0
  0
VERTEX
  8
0
 10
1133.99658203
 20
215.94512939
 30
0.0
  0
VERTEX
  8
0
 10
1134.06176758
 20
215.99749756
 30
0.0
  0
VERTEX
  8
0
 10
1134.99768066
 20
216.80024719
 30
0.0
  0
VERTEX
  8
0
 10
1135.2277832
 20
216.99899292
 30
0.0
  0
VERTEX
  8
0
 10
1135.99572754
 20
217.6817627
 30
0.0
  0
VERTEX
  8
0
 10
1136.3494873
 20
217.99687195
 30
0.0
  0
VERTEX
  8
0
 10
1137.00109863
 20
218.58210754
 30
0.0
  0
VERTEX
  8
0
 10
1137.46984863
 20
219.00352478
 30
0.0
  0
VERTEX
  8
0
 10
1138.00170898
 20
219.48260498
 30
0.0
  0
VERTEX
  8
0
 10
1138.5690918
 20
220.00360107
 30
0.0
  0
VERTEX
  8
0
 10
1139.00610352
 20
220.39576721
 30
0.0
  0
VERTEX
  8
0
 10
1139.68200684
 20
221.00512695
 30
0.0
  0
VERTEX
  8
0
 10
1140.00891113
 20
221.28308105
 30
0.0
  0
VERTEX
  8
0
 10
1140.86633301
 20
222.00531006
 30
0.0
  0
VERTEX
  8
0
 10
1141.00280762
 20
222.11968994
 30
0.0
  0
VERTEX
  8
0
 10
1141.99951172
 20
222.98510742
 30
0.0
  0
VERTEX
  8
0
 10
1142.01574707
 20
222.99966431
 30
0.0
  0
VERTEX
  8
0
 10
1142.99816895
 20
223.90908813
 30
0.0
  0
VERTEX
  8
0
 10
1143.09484863
 20
223.99789429
 30
0.0
  0
VERTEX
  8
0
 10
1144.0
 20
224.83007813
 30
0.0
  0
VERTEX
  8
0
 10
1144.1854248
 20
225.00027466
 30
0.0
  0
VERTEX
  8
0
 10
1144.99755859
 20
225.75257874
 30
0.0
  0
VERTEX
  8
0
 10
1145.26342773
 20
225.996521
 30
0.0
  0
VERTEX
  8
0
 10
1146.00195313
 20
226.66860962
 30
0.0
  0
VERTEX
  8
0
 10
1146.36791992
 20
227.00582886
 30
0.0
  0
VERTEX
  8
0
 10
1146.99121094
 20
227.60618591
 30
0.0
  0
VERTEX
  8
0
 10
1147.38293457
 20
227.9944458
 30
0.0
  0
VERTEX
  8
0
 10
1148.0045166
 20
228.61408997
 30
0.0
  0
VERTEX
  8
0
 10
1148.40368652
 20
229.00300598
 30
0.0
  0
VERTEX
  8
0
 10
1148.99487305
 20
229.58309937
 30
0.0
  0
VERTEX
  8
0
 10
1149.41027832
 20
229.99595642
 30
0.0
  0
VERTEX
  8
0
 10
1149.99658203
 20
230.58981323
 30
0.0
  0
VERTEX
  8
0
 10
1150.40222168
 20
230.9990387
 30
0.0
  0
VERTEX
  8
0
 10
1151.00634766
 20
231.60328674
 30
0.0
  0
VERTEX
  8
0
 10
1151.41223145
 20
232.00346375
 30
0.0
  0
VERTEX
  8
0
 10
1152.0020752
 20
232.57106018
 30
0.0
  0
VERTEX
  8
0
 10
1152.44250488
 20
233.00427246
 30
0.0
  0
VERTEX
  8
0
 10
1152.99780273
 20
233.55915833
 30
0.0
  0
VERTEX
  8
0
 10
1153.43078613
 20
233.99784851
 30
0.0
  0
VERTEX
  8
0
 10
1153.99951172
 20
234.57568359
 30
0.0
  0
VERTEX
  8
0
 10
1154.41882324
 20
235.0005188
 30
0.0
  0
VERTEX
  8
0
 10
1155.00097656
 20
235.59107971
 30
0.0
  0
VERTEX
  8
0
 10
1155.4041748
 20
236.00106812
 30
0.0
  0
VERTEX
  8
0
 10
1155.99853516
 20
236.6081543
 30
0.0
  0
VERTEX
  8
0
 10
1156.37866211
 20
236.9994812
 30
0.0
  0
VERTEX
  8
0
 10
1156.99951172
 20
237.64283752
 30
0.0
  0
VERTEX
  8
0
 10
1157.34399414
 20
238.00001526
 30
0.0
  0
VERTEX
  8
0
 10
1158.00048828
 20
238.68167114
 30
0.0
  0
VERTEX
  8
0
 10
1158.30627441
 20
239.00135803
 30
0.0
  0
VERTEX
  8
0
 10
1159.0012207
 20
239.72857666
 30
0.0
  0
VERTEX
  8
0
 10
1159.26098633
 20
240.00041199
 30
0.0
  0
VERTEX
  8
0
 10
1160.00146484
 20
240.76731873
 30
0.0
  0
VERTEX
  8
0
 10
1160.22253418
 20
241.00512695
 30
0.0
  0
VERTEX
  8
0
 10
1161.0020752
 20
241.86277771
 30
0.0
  0
VERTEX
  8
0
 10
1161.1262207
 20
242.00212097
 30
0.0
  0
VERTEX
  8
0
 10
1162.00109863
 20
242.98292542
 30
0.0
  0
VERTEX
  8
0
 10
1162.01794434
 20
243.00015259
 30
0.0
  0
VERTEX
  8
0
 10
1162.99658203
 20
243.9120636
 30
0.0
  0
VERTEX
  8
0
 10
1163.07775879
 20
244.00447083
 30
0.0
  0
VERTEX
  8
0
 10
1163.8104248
 20
244.98779297
 30
0.0
  0
VERTEX
  8
0
 10
1163.9954834
 20
245.220047
 30
0.0
  0
VERTEX
  8
0
 10
1164.68945313
 20
245.99633789
 30
0.0
  0
VERTEX
  8
0
 10
1164.99694824
 20
246.34359741
 30
0.0
  0
VERTEX
  8
0
 10
1165.58837891
 20
246.99589539
 30
0.0
  0
VERTEX
  8
0
 10
1165.99267578
 20
247.45257568
 30
0.0
  0
VERTEX
  8
0
 10
1166.47705078
 20
247.99595642
 30
0.0
  0
VERTEX
  8
0
 10
1166.99804688
 20
248.59074402
 30
0.0
  0
VERTEX
  8
0
 10
1167.35864258
 20
249.00050354
 30
0.0
  0
VERTEX
  8
0
 10
1168.00256348
 20
249.73565674
 30
0.0
  0
VERTEX
  8
0
 10
1168.23352051
 20
250.00343323
 30
0.0
  0
VERTEX
  8
0
 10
1169.0032959
 20
250.8941803
 30
0.0
  0
VERTEX
  8
0
 10
1169.09423828
 20
251.00402832
 30
0.0
  0
VERTEX
  8
0
 10
1169.90673828
 20
251.99649048
 30
0.0
  0
VERTEX
  8
0
 10
1169.99694824
 20
252.10603333
 30
0.0
  0
VERTEX
  8
0
 10
1170.75842285
 20
252.99591064
 30
0.0
  0
VERTEX
  8
0
 10
1170.99145508
 20
253.27894592
 30
0.0
  0
VERTEX
  8
0
 10
1171.58666992
 20
253.99113464
 30
0.0
  0
VERTEX
  8
0
 10
1171.99499512
 20
254.48291016
 30
0.0
  0
VERTEX
  8
0
 10
1172.43652344
 20
254.99830627
 30
0.0
  0
VERTEX
  8
0
 10
1173.00305176
 20
255.66171265
 30
0.0
  0
VERTEX
  8
0
 10
1173.29602051
 20
256.00183105
 30
0.0
  0
VERTEX
  8
0
 10
1174.00231934
 20
256.8109436
 30
0.0
  0
VERTEX
  8
0
 10
1174.15905762
 20
257.00805664
 30
0.0
  0
VERTEX
  8
0
 10
1174.90124512
 20
257.99487305
 30
0.0
  0
VERTEX
  8
0
 10
1174.99365234
 20
258.12084961
 30
0.0
  0
VERTEX
  8
0
 10
1175.66711426
 20
258.98779297
 30
0.0
  0
VERTEX
  8
0
 10
1175.99267578
 20
259.40164185
 30
0.0
  0
VERTEX
  8
0
 10
1176.49206543
 20
259.99407959
 30
0.0
  0
VERTEX
  8
0
 10
1176.99902344
 20
260.59805298
 30
0.0
  0
VERTEX
  8
0
 10
1177.33691406
 20
261.00500488
 30
0.0
  0
VERTEX
  8
0
 10
1178.00500488
 20
261.8243103
 30
0.0
  0
VERTEX
  8
0
 10
1178.14465332
 20
262.00646973
 30
0.0
  0
VERTEX
  8
0
 10
1178.89306641
 20
262.99493408
 30
0.0
  0
VERTEX
  8
0
 10
1178.99230957
 20
263.1317749
 30
0.0
  0
VERTEX
  8
0
 10
1179.63952637
 20
263.98660278
 30
0.0
  0
VERTEX
  8
0
 10
1179.9921875
 20
264.44671631
 30
0.0
  0
VERTEX
  8
0
 10
1180.4375
 20
264.99880981
 30
0.0
  0
VERTEX
  8
0
 10
1181.00500488
 20
265.70916748
 30
0.0
  0
VERTEX
  8
0
 10
1181.23352051
 20
266.00872803
 30
0.0
  0
VERTEX
  8
0
 10
1181.96789551
 20
266.99853516
 30
0.0
  0
VERTEX
  8
0
 10
1181.99731445
 20
267.04067993
 30
0.0
  0
VERTEX
  8
0
 10
1182.66992188
 20
267.98666382
 30
0.0
  0
VERTEX
  8
0
 10
1182.99169922
 20
268.42712402
 30
0.0
  0
VERTEX
  8
0
 10
1183.43603516
 20
268.99694824
 30
0.0
  0
VERTEX
  8
0
 10
1184.00646973
 20
269.72766113
 30
0.0
  0
VERTEX
  8
0
 10
1184.21411133
 20
270.01132202
 30
0.0
  0
VERTEX
  8
0
 10
1184.90917969
 20
270.99539185
 30
0.0
  0
VERTEX
  8
0
 10
1184.99194336
 20
271.12069702
 30
0.0
  0
VERTEX
  8
0
 10
1185.59082031
 20
271.98403931
 30
0.0
  0
VERTEX
  8
0
 10
1185.99658203
 20
272.54528809
 30
0.0
  0
VERTEX
  8
0
 10
1186.34301758
 20
273.00442505
 30
0.0
  0
VERTEX
  8
0
 10
1187.00476074
 20
273.90563965
 30
0.0
  0
VERTEX
  8
0
 10
1187.07250977
 20
274.00476074
 30
0.0
  0
VERTEX
  8
0
 10
1187.74645996
 20
274.98690796
 30
0.0
  0
VERTEX
  8
0
 10
1187.9921875
 20
275.33377075
 30
0.0
  0
VERTEX
  8
0
 10
1188.49816895
 20
276.00134277
 30
0.0
  0
VERTEX
  8
0
 10
1188.99841309
 20
276.68493652
 30
0.0
  0
VERTEX
  8
0
 10
1189.20983887
 20
277.00939941
 30
0.0
  0
VERTEX
  8
0
 10
1189.81689453
 20
277.98617554
 30
0.0
  0
VERTEX
  8
0
 10
1189.9909668
 20
278.25439453
 30
0.0
  0
VERTEX
  8
0
 10
1190.54187012
 20
278.99459839
 30
0.0
  0
VERTEX
  8
0
 10
1191.00146484
 20
279.61047363
 30
0.0
  0
VERTEX
  8
0
 10
1191.28283691
 20
280.01217651
 30
0.0
  0
VERTEX
  8
0
 10
1191.93139648
 20
280.99673462
 30
0.0
  0
VERTEX
  8
0
 10
1191.99194336
 20
281.09927368
 30
0.0
  0
VERTEX
  8
0
 10
1192.53674316
 20
281.97668457
 30
0.0
  0
VERTEX
  8
0
 10
1193.00085449
 20
282.66091919
 30
0.0
  0
VERTEX
  8
0
 10
1193.23547363
 20
283.01400757
 30
0.0
  0
VERTEX
  8
0
 10
1193.83947754
 20
283.98904419
 30
0.0
  0
VERTEX
  8
0
 10
1193.98620605
 20
284.23519897
 30
0.0
  0
VERTEX
  8
0
 10
1194.48950195
 20
284.98800659
 30
0.0
  0
VERTEX
  8
0
 10
1195.00524902
 20
285.73812866
 30
0.0
  0
VERTEX
  8
0
 10
1195.17871094
 20
286.01293945
 30
0.0
  0
VERTEX
  8
0
 10
1195.76672363
 20
286.9831543
 30
0.0
  0
VERTEX
  8
0
 10
1195.98657227
 20
287.34262085
 30
0.0
  0
VERTEX
  8
0
 10
1196.43469238
 20
287.99804688
 30
0.0
  0
VERTEX
  8
0
 10
1197.00720215
 20
288.849823
 30
0.0
  0
VERTEX
  8
0
 10
1197.1015625
 20
289.00891113
 30
0.0
  0
VERTEX
  8
0
 10
1197.66833496
 20
289.97955322
 30
0.0
  0
VERTEX
  8
0
 10
1197.99023438
 20
290.50671387
 30
0.0
  0
VERTEX
  8
0
 10
1198.29956055
 20
291.01327515
 30
0.0
  0
VERTEX
  8
0
 10
1198.85168457
 20
291.9854126
 30
0.0
  0
VERTEX
  8
0
 10
1199.02038574
 20
292.17929077
 30
0.0
  0
VERTEX
  8
0
 10
1200.02624512
 20
292.85183716
 30
0.0
  0
VERTEX
  8
0
 10
1200.20263672
 20
293.05865479
 30
0.0
  0
VERTEX
  8
0
 10
1200.54760742
 20
294.00460815
 30
0.0
  0
VERTEX
  8
0
 10
1200.81652832
 20
294.97503662
 30
0.0
  0
VERTEX
  8
0
 10
1200.98986816
 20
295.39855957
 30
0.0
  0
VERTEX
  8
0
 10
1201.35437012
 20
296.00698853
 30
0.0
  0
VERTEX
  8
0
 10
1201.91442871
 20
296.9942627
 30
0.0
  0
VERTEX
  8
0
 10
1201.98986816
 20
297.13330078
 30
0.0
  0
VERTEX
  8
0
 10
1202.49291992
 20
297.98724365
 30
0.0
  0
VERTEX
  8
0
 10
1203.00708008
 20
298.81674194
 30
0.0
  0
VERTEX
  8
0
 10
1203.11767578
 20
299.00961304
 30
0.0
  0
VERTEX
  8
0
 10
1203.66503906
 20
299.980896
 30
0.0
  0
VERTEX
  8
0
 10
1203.99304199
 20
300.53674316
 30
0.0
  0
VERTEX
  8
0
 10
1204.27514648
 20
301.01144409
 30
0.0
  0
VERTEX
  8
0
 10
1204.81884766
 20
301.98754883
 30
0.0
  0
VERTEX
  8
0
 10
1204.98425293
 20
302.29217529
 30
0.0
  0
VERTEX
  8
0
 10
1205.4029541
 20
302.99771118
 30
0.0
  0
VERTEX
  8
0
 10
1205.97668457
 20
303.99880981
 30
0.0
  0
VERTEX
  8
0
 10
1205.99707031
 20
304.03604126
 30
0.0
  0
VERTEX
  8
0
 10
1206.5201416
 20
304.98876953
 30
0.0
  0
VERTEX
  8
0
 10
1207.00683594
 20
305.8192749
 30
0.0
  0
VERTEX
  8
0
 10
1207.10839844
 20
306.00881958
 30
0.0
  0
VERTEX
  8
0
 10
1207.61486816
 20
306.98406982
 30
0.0
  0
VERTEX
  8
0
 10
1208.00146484
 20
307.68981934
 30
0.0
  0
VERTEX
  8
0
 10
1208.16552734
 20
308.01135254
 30
0.0
  0
VERTEX
  8
0
 10
1208.64453125
 20
308.9770813
 30
0.0
  0
VERTEX
  8
0
 10
1209.00341797
 20
309.63238525
 30
0.0
  0
VERTEX
  8
0
 10
1209.21032715
 20
310.01577759
 30
0.0
  0
VERTEX
  8
0
 10
1209.70471191
 20
310.98144531
 30
0.0
  0
VERTEX
  8
0
 10
1209.99353027
 20
311.52972412
 30
0.0
  0
VERTEX
  8
0
 10
1210.24731445
 20
312.01293945
 30
0.0
  0
VERTEX
  8
0
 10
1210.72998047
 20
312.98144531
 30
0.0
  0
VERTEX
  8
0
 10
1210.99108887
 20
313.48452759
 30
0.0
  0
VERTEX
  8
0
 10
1211.265625
 20
314.0144043
 30
0.0
  0
VERTEX
  8
0
 10
1211.73376465
 20
314.9822998
 30
0.0
  0
VERTEX
  8
0
 10
1211.99401855
 20
315.49819946
 30
0.0
  0
VERTEX
  8
0
 10
1212.25964355
 20
316.01242065
 30
0.0
  0
VERTEX
  8
0
 10
1212.73999023
 20
316.98220825
 30
0.0
  0
VERTEX
  8
0
 10
1212.99072266
 20
317.46871948
 30
0.0
  0
VERTEX
  8
0
 10
1213.26879883
 20
318.01525879
 30
0.0
  0
VERTEX
  8
0
 10
1213.73144531
 20
318.97937012
 30
0.0
  0
VERTEX
  8
0
 10
1213.9921875
 20
319.49453735
 30
0.0
  0
VERTEX
  8
0
 10
1214.26513672
 20
320.01339722
 30
0.0
  0
VERTEX
  8
0
 10
1214.74389648
 20
320.98376465
 30
0.0
  0
VERTEX
  8
0
 10
1214.99035645
 20
321.47293091
 30
0.0
  0
VERTEX
  8
0
 10
1215.25402832
 20
322.01489258
 30
0.0
  0
VERTEX
  8
0
 10
1215.69616699
 20
322.97866821
 30
0.0
  0
VERTEX
  8
0
 10
1215.99694824
 20
323.59317017
 30
0.0
  0
VERTEX
  8
0
 10
1216.20410156
 20
324.01242065
 30
0.0
  0
VERTEX
  8
0
 10
1216.65783691
 20
324.98114014
 30
0.0
  0
VERTEX
  8
0
 10
1217.00366211
 20
325.66821289
 30
0.0
  0
VERTEX
  8
0
 10
1217.16577148
 20
326.01361084
 30
0.0
  0
VERTEX
  8
0
 10
1217.59753418
 20
326.97854614
 30
0.0
  0
VERTEX
  8
0
 10
1218.00561523
 20
327.8302002
 30
0.0
  0
VERTEX
  8
0
 10
1218.08703613
 20
328.00735474
 30
0.0
  0
VERTEX
  8
0
 10
1218.49511719
 20
328.99258423
 30
0.0
  0
VERTEX
  8
0
 10
1218.92321777
 20
329.99493408
 30
0.0
  0
VERTEX
  8
0
 10
1218.99060059
 20
330.14376831
 30
0.0
  0
VERTEX
  8
0
 10
1219.37451172
 20
331.00961304
 30
0.0
  0
VERTEX
  8
0
 10
1219.80322266
 20
331.98660278
 30
0.0
  0
VERTEX
  8
0
 10
1219.98913574
 20
332.39599609
 30
0.0
  0
VERTEX
  8
0
 10
1220.27416992
 20
333.01174927
 30
0.0
  0
VERTEX
  8
0
 10
1220.69689941
 20
333.98651123
 30
0.0
  0
VERTEX
  8
0
 10
1221.00109863
 20
334.66174316
 30
0.0
  0
VERTEX
  8
0
 10
1221.1517334
 20
335.00869751
 30
0.0
  0
VERTEX
  8
0
 10
1221.55078125
 20
335.9894104
 30
0.0
  0
VERTEX
  8
0
 10
1221.97021484
 20
336.99832153
 30
0.0
  0
VERTEX
  8
0
 10
1221.99572754
 20
337.05737305
 30
0.0
  0
VERTEX
  8
0
 10
1222.37878418
 20
338.0072937
 30
0.0
  0
VERTEX
  8
0
 10
1222.78112793
 20
338.98828125
 30
0.0
  0
VERTEX
  8
0
 10
1222.99414063
 20
339.48236084
 30
0.0
  0
VERTEX
  8
0
 10
1223.2154541
 20
340.01132202
 30
0.0
  0
VERTEX
  8
0
 10
1223.59741211
 20
340.98629761
 30
0.0
  0
VERTEX
  8
0
 10
1223.99035645
 20
342.00408936
 30
0.0
  0
VERTEX
  8
0
 10
1224.38793945
 20
343.00634766
 30
0.0
  0
VERTEX
  8
0
 10
1224.77661133
 20
343.99047852
 30
0.0
  0
VERTEX
  8
0
 10
1224.99645996
 20
344.52401733
 30
0.0
  0
VERTEX
  8
0
 10
1225.19006348
 20
345.00869751
 30
0.0
  0
VERTEX
  8
0
 10
1225.55395508
 20
345.99163818
 30
0.0
  0
VERTEX
  8
0
 10
1225.93432617
 20
346.99649048
 30
0.0
  0
VERTEX
  8
0
 10
1225.99121094
 20
347.1399231
 30
0.0
  0
VERTEX
  8
0
 10
1226.30883789
 20
348.01010132
 30
0.0
  0
VERTEX
  8
0
 10
1226.67053223
 20
348.9826355
 30
0.0
  0
VERTEX
  8
0
 10
1227.00439453
 20
349.80874634
 30
0.0
  0
VERTEX
  8
0
 10
1227.08300781
 20
350.00564575
 30
0.0
  0
VERTEX
  8
0
 10
1227.41467285
 20
351.00378418
 30
0.0
  0
VERTEX
  8
0
 10
1227.75109863
 20
351.98724365
 30
0.0
  0
VERTEX
  8
0
 10
1227.99890137
 20
352.63684082
 30
0.0
  0
VERTEX
  8
0
 10
1228.13757324
 20
353.00723267
 30
0.0
  0
VERTEX
  8
0
 10
1228.45666504
 20
353.9982605
 30
0.0
  0
VERTEX
  8
0
 10
1228.78771973
 20
354.99047852
 30
0.0
  0
VERTEX
  8
0
 10
1228.99450684
 20
355.54202271
 30
0.0
  0
VERTEX
  8
0
 10
1229.16210938
 20
356.00735474
 30
0.0
  0
VERTEX
  8
0
 10
1229.47155762
 20
356.99667358
 30
0.0
  0
VERTEX
  8
0
 10
1229.80029297
 20
357.98977661
 30
0.0
  0
VERTEX
  8
0
 10
1229.99304199
 20
358.49539185
 30
0.0
  0
VERTEX
  8
0
 10
1230.1763916
 20
359.00994873
 30
0.0
  0
VERTEX
  8
0
 10
1230.47058105
 20
359.99578857
 30
0.0
  0
VERTEX
  8
0
 10
1230.78027344
 20
360.98968506
 30
0.0
  0
VERTEX
  8
0
 10
1230.99609375
 20
361.57312012
 30
0.0
  0
VERTEX
  8
0
 10
1231.14807129
 20
362.00796509
 30
0.0
  0
VERTEX
  8
0
 10
1231.42407227
 20
363.00128174
 30
0.0
  0
VERTEX
  8
0
 10
1231.71728516
 20
363.98388672
 30
0.0
  0
VERTEX
  8
0
 10
1232.00366211
 20
364.77450562
 30
0.0
  0
VERTEX
  8
0
 10
1232.08557129
 20
365.00592041
 30
0.0
  0
VERTEX
  8
0
 10
1232.36364746
 20
366.00302124
 30
0.0
  0
VERTEX
  8
0
 10
1232.63708496
 20
366.99169922
 30
0.0
  0
VERTEX
  8
0
 10
1232.9440918
 20
367.99691772
 30
0.0
  0
VERTEX
  8
0
 10
1232.99194336
 20
368.13845825
 30
0.0
  0
VERTEX
  8
0
 10
1233.25805664
 20
369.01040649
 30
0.0
  0
VERTEX
  8
0
 10
1233.52502441
 20
369.99536133
 30
0.0
  0
VERTEX
  8
0
 10
1233.81066895
 20
370.98892212
 30
0.0
  0
VERTEX
  8
0
 10
1233.99365234
 20
371.50268555
 30
0.0
  0
VERTEX
  8
0
 10
1234.16638184
 20
372.00970459
 30
0.0
  0
VERTEX
  8
0
 10
1234.43603516
 20
372.99822998
 30
0.0
  0
VERTEX
  8
0
 10
1234.71630859
 20
373.98855591
 30
0.0
  0
VERTEX
  8
0
 10
1235.00378418
 20
374.83187866
 30
0.0
  0
VERTEX
  8
0
 10
1235.06115723
 20
375.00350952
 30
0.0
  0
VERTEX
  8
0
 10
1235.35449219
 20
375.9994812
 30
0.0
  0
VERTEX
  8
0
 10
1235.6081543
 20
377.00717163
 30
0.0
  0
VERTEX
  8
0
 10
1235.86315918
 20
377.9916687
 30
0.0
  0
VERTEX
  8
0
 10
1235.99414063
 20
378.46203613
 30
0.0
  0
VERTEX
  8
0
 10
1236.15454102
 20
379.00640869
 30
0.0
  0
VERTEX
  8
0
 10
1236.39233398
 20
380.00039673
 30
0.0
  0
VERTEX
  8
0
 10
1236.61889648
 20
380.99615479
 30
0.0
  0
VERTEX
  8
0
 10
1236.87939453
 20
381.99523926
 30
0.0
  0
VERTEX
  8
0
 10
1236.9942627
 20
382.37695313
 30
0.0
  0
VERTEX
  8
0
 10
1237.17797852
 20
383.00634766
 30
0.0
  0
VERTEX
  8
0
 10
1237.3996582
 20
384.00421143
 30
0.0
  0
VERTEX
  8
0
 10
1237.69128418
 20
384.95925903
 30
0.0
  0
VERTEX
  8
0
 10
1238.04089355
 20
385.60943604
 30
0.0
  0
VERTEX
  8
0
 10
1238.21118164
 20
386.03610229
 30
0.0
  0
VERTEX
  8
0
 10
1238.36914063
 20
387.00048828
 30
0.0
  0
VERTEX
  8
0
 10
1238.40698242
 20
387.99682617
 30
0.0
  0
VERTEX
  8
0
 10
1238.53881836
 20
388.99557495
 30
0.0
  0
VERTEX
  8
0
 10
1238.75891113
 20
389.99325562
 30
0.0
  0
VERTEX
  8
0
 10
1239.00183105
 20
390.86608887
 30
0.0
  0
VERTEX
  8
0
 10
1239.03894043
 20
391.00152588
 30
0.0
  0
VERTEX
  8
0
 10
1239.25622559
 20
392.00546265
 30
0.0
  0
VERTEX
  8
0
 10
1239.44311523
 20
392.99887085
 30
0.0
  0
VERTEX
  8
0
 10
1239.63098145
 20
393.99560547
 30
0.0
  0
VERTEX
  8
0
 10
1239.86315918
 20
394.99649048
 30
0.0
  0
VERTEX
  8
0
 10
1239.9954834
 20
395.48910522
 30
0.0
  0
VERTEX
  8
0
 10
1240.12072754
 20
396.0045166
 30
0.0
  0
VERTEX
  8
0
 10
1240.3079834
 20
397.00134277
 30
0.0
  0
VERTEX
  8
0
 10
1240.45300293
 20
398.00143433
 30
0.0
  0
VERTEX
  8
0
 10
1240.59692383
 20
398.99728394
 30
0.0
  0
VERTEX
  8
0
 10
1240.7800293
 20
399.99343872
 30
0.0
  0
VERTEX
  8
0
 10
1241.00134277
 20
400.92462158
 30
0.0
  0
VERTEX
  8
0
 10
1241.0201416
 20
401.00067139
 30
0.0
  0
VERTEX
  8
0
 10
1241.21362305
 20
402.00601196
 30
0.0
  0
VERTEX
  8
0
 10
1241.40917969
 20
402.99203491
 30
0.0
  0
VERTEX
  8
0
 10
1241.70397949
 20
403.96621704
 30
0.0
  0
VERTEX
  8
0
 10
1242.08190918
 20
404.46661377
 30
0.0
  0
VERTEX
  8
0
 10
1242.82556152
 20
405.03097534
 30
0.0
  0
VERTEX
  8
0
 10
1242.95349121
 20
405.18066406
 30
0.0
  0
VERTEX
  8
0
 10
1243.0925293
 20
406.00866699
 30
0.0
  0
VERTEX
  8
0
 10
1242.98425293
 20
406.35012817
 30
0.0
  0
VERTEX
  8
0
 10
1242.59692383
 20
407.06408691
 30
0.0
  0
VERTEX
  8
0
 10
1242.37133789
 20
408.00280762
 30
0.0
  0
VERTEX
  8
0
 10
1242.38623047
 20
409.00134277
 30
0.0
  0
VERTEX
  8
0
 10
1242.50378418
 20
409.9989624
 30
0.0
  0
VERTEX
  8
0
 10
1242.62988281
 20
410.99856567
 30
0.0
  0
VERTEX
  8
0
 10
1242.80651855
 20
411.99386597
 30
0.0
  0
VERTEX
  8
0
 10
1243.00134277
 20
412.86453247
 30
0.0
  0
VERTEX
  8
0
 10
1243.03063965
 20
413.00128174
 30
0.0
  0
VERTEX
  8
0
 10
1243.18713379
 20
414.00268555
 30
0.0
  0
VERTEX
  8
0
 10
1243.31408691
 20
415.00021362
 30
0.0
  0
VERTEX
  8
0
 10
1243.4074707
 20
416.00106812
 30
0.0
  0
VERTEX
  8
0
 10
1243.54760742
 20
416.99014282
 30
0.0
  0
VERTEX
  8
0
 10
1243.68933105
 20
418.00906372
 30
0.0
  0
VERTEX
  8
0
 10
1243.83459473
 20
419.00012207
 30
0.0
  0
VERTEX
  8
0
 10
1243.9498291
 20
419.99725342
 30
0.0
  0
VERTEX
  8
0
 10
1243.99719238
 20
420.26541138
 30
0.0
  0
VERTEX
  8
0
 10
1244.14208984
 20
421.0067749
 30
0.0
  0
VERTEX
  8
0
 10
1244.2746582
 20
422.00042725
 30
0.0
  0
VERTEX
  8
0
 10
1244.35498047
 20
423.00030518
 30
0.0
  0
VERTEX
  8
0
 10
1244.43310547
 20
423.9994812
 30
0.0
  0
VERTEX
  8
0
 10
1244.51867676
 20
424.99957275
 30
0.0
  0
VERTEX
  8
0
 10
1244.6151123
 20
426.00009155
 30
0.0
  0
VERTEX
  8
0
 10
1244.72265625
 20
426.99917603
 30
0.0
  0
VERTEX
  8
0
 10
1244.85046387
 20
427.99807739
 30
0.0
  0
VERTEX
  8
0
 10
1244.99316406
 20
429.0010376
 30
0.0
  0
VERTEX
  8
0
 10
1245.12878418
 20
430.00158691
 30
0.0
  0
VERTEX
  8
0
 10
1245.2331543
 20
431.00094604
 30
0.0
  0
VERTEX
  8
0
 10
1245.30957031
 20
432.00024414
 30
0.0
  0
VERTEX
  8
0
 10
1245.3626709
 20
433.00039673
 30
0.0
  0
VERTEX
  8
0
 10
1245.41845703
 20
433.99917603
 30
0.0
  0
VERTEX
  8
0
 10
1245.47961426
 20
435.00009155
 30
0.0
  0
VERTEX
  8
0
 10
1245.53417969
 20
436.00088501
 30
0.0
  0
VERTEX
  8
0
 10
1245.56762695
 20
437.0
 30
0.0
  0
VERTEX
  8
0
 10
1245.64331055
 20
437.99325562
 30
0.0
  0
VERTEX
  8
0
 10
1245.73632813
 20
439.00622559
 30
0.0
  0
VERTEX
  8
0
 10
1245.80786133
 20
440.00024414
 30
0.0
  0
VERTEX
  8
0
 10
1245.84301758
 20
440.99890137
 30
0.0
  0
VERTEX
  8
0
 10
1245.90429688
 20
441.99838257
 30
0.0
  0
VERTEX
  8
0
 10
1246.00048828
 20
442.77770996
 30
0.0
  0
VERTEX
  8
0
 10
1246.02697754
 20
443.00054932
 30
0.0
  0
VERTEX
  8
0
 10
1246.11975098
 20
444.00057983
 30
0.0
  0
VERTEX
  8
0
 10
1246.17089844
 20
445.00085449
 30
0.0
  0
VERTEX
  8
0
 10
1246.24389648
 20
445.99572754
 30
0.0
  0
VERTEX
  8
0
 10
1246.28759766
 20
447.00427246
 30
0.0
  0
VERTEX
  8
0
 10
1246.3371582
 20
448.00006104
 30
0.0
  0
VERTEX
  8
0
 10
1246.33789063
 20
448.99996948
 30
0.0
  0
VERTEX
  8
0
 10
1246.37390137
 20
449.99871826
 30
0.0
  0
VERTEX
  8
0
 10
1246.39672852
 20
451.00109863
 30
0.0
  0
VERTEX
  8
0
 10
1246.41442871
 20
452.00018311
 30
0.0
  0
VERTEX
  8
0
 10
1246.40478516
 20
453.0
 30
0.0
  0
VERTEX
  8
0
 10
1246.41308594
 20
453.99993896
 30
0.0
  0
VERTEX
  8
0
 10
1246.43713379
 20
454.99972534
 30
0.0
  0
VERTEX
  8
0
 10
1246.45629883
 20
456.00033569
 30
0.0
  0
VERTEX
  8
0
 10
1246.47155762
 20
457.0
 30
0.0
  0
VERTEX
  8
0
 10
1246.47363281
 20
458.0
 30
0.0
  0
VERTEX
  8
0
 10
1246.48217773
 20
458.99996948
 30
0.0
  0
VERTEX
  8
0
 10
1246.4934082
 20
459.99996948
 30
0.0
  0
VERTEX
  8
0
 10
1246.51086426
 20
460.99993896
 30
0.0
  0
VERTEX
  8
0
 10
1246.51867676
 20
462.00003052
 30
0.0
  0
VERTEX
  8
0
 10
1246.51196289
 20
462.99993896
 30
0.0
  0
VERTEX
  8
0
 10
1246.48522949
 20
463.99990845
 30
0.0
  0
VERTEX
  8
0
 10
1246.45495605
 20
465.00009155
 30
0.0
  0
VERTEX
  8
0
 10
1246.43212891
 20
466.00012207
 30
0.0
  0
VERTEX
  8
0
 10
1246.42089844
 20
467.0
 30
0.0
  0
VERTEX
  8
0
 10
1246.41491699
 20
467.99996948
 30
0.0
  0
VERTEX
  8
0
 10
1246.40441895
 20
468.99996948
 30
0.0
  0
VERTEX
  8
0
 10
1246.38879395
 20
470.0
 30
0.0
  0
VERTEX
  8
0
 10
1246.38525391
 20
470.99996948
 30
0.0
  0
VERTEX
  8
0
 10
1246.37158203
 20
471.99972534
 30
0.0
  0
VERTEX
  8
0
 10
1246.36572266
 20
473.00036621
 30
0.0
  0
VERTEX
  8
0
 10
1246.34887695
 20
474.0
 30
0.0
  0
VERTEX
  8
0
 10
1246.33337402
 20
474.99969482
 30
0.0
  0
VERTEX
  8
0
 10
1246.27746582
 20
475.99810791
 30
0.0
  0
VERTEX
  8
0
 10
1246.17773438
 20
476.99893188
 30
0.0
  0
VERTEX
  8
0
 10
1246.07678223
 20
478.00296021
 30
0.0
  0
VERTEX
  8
0
 10
1245.97619629
 20
478.99807739
 30
0.0
  0
VERTEX
  8
0
 10
1245.92614746
 20
480.0022583
 30
0.0
  0
VERTEX
  8
0
 10
1245.83215332
 20
480.99465942
 30
0.0
  0
VERTEX
  8
0
 10
1245.75476074
 20
482.00466919
 30
0.0
  0
VERTEX
  8
0
 10
1245.6550293
 20
483.00006104
 30
0.0
  0
VERTEX
  8
0
 10
1245.60241699
 20
484.00033569
 30
0.0
  0
VERTEX
  8
0
 10
1245.54614258
 20
484.99932861
 30
0.0
  0
VERTEX
  8
0
 10
1245.49169922
 20
486.00042725
 30
0.0
  0
VERTEX
  8
0
 10
1245.42614746
 20
486.99963379
 30
0.0
  0
VERTEX
  8
0
 10
1245.36486816
 20
488.00021362
 30
0.0
  0
VERTEX
  8
0
 10
1245.29541016
 20
488.99960327
 30
0.0
  0
VERTEX
  8
0
 10
1245.21630859
 20
489.99935913
 30
0.0
  0
VERTEX
  8
0
 10
1245.1138916
 20
490.99884033
 30
0.0
  0
VERTEX
  8
0
 10
1244.99926758
 20
491.94436646
 30
0.0
  0
VERTEX
  8
0
 10
1244.99145508
 20
492.00006104
 30
0.0
  0
VERTEX
  8
0
 10
1244.84179688
 20
492.99987793
 30
0.0
  0
VERTEX
  8
0
 10
1244.71325684
 20
494.00253296
 30
0.0
  0
VERTEX
  8
0
 10
1244.60351563
 20
494.99972534
 30
0.0
  0
VERTEX
  8
0
 10
1244.52075195
 20
496.0007019
 30
0.0
  0
VERTEX
  8
0
 10
1244.43762207
 20
496.99951172
 30
0.0
  0
VERTEX
  8
0
 10
1244.35754395
 20
498.00006104
 30
0.0
  0
VERTEX
  8
0
 10
1244.2590332
 20
498.99862671
 30
0.0
  0
VERTEX
  8
0
 10
1244.14257813
 20
499.99932861
 30
0.0
  0
VERTEX
  8
0
 10
1244.0065918
 20
500.99981689
 30
0.0
  0
VERTEX
  8
0
 10
1244.00012207
 20
501.03848267
 30
0.0
  0
VERTEX
  8
0
 10
1243.82763672
 20
502.00311279
 30
0.0
  0
VERTEX
  8
0
 10
1243.66625977
 20
502.99960327
 30
0.0
  0
VERTEX
  8
0
 10
1243.54040527
 20
504.00234985
 30
0.0
  0
VERTEX
  8
0
 10
1243.42431641
 20
504.99914551
 30
0.0
  0
VERTEX
  8
0
 10
1243.31652832
 20
505.99966431
 30
0.0
  0
VERTEX
  8
0
 10
1243.17785645
 20
506.99703979
 30
0.0
  0
VERTEX
  8
0
 10
1243.015625
 20
508.00003052
 30
0.0
  0
VERTEX
  8
0
 10
1243.0
 20
508.08694458
 30
0.0
  0
VERTEX
  8
0
 10
1242.89611816
 20
509.00469971
 30
0.0
  0
VERTEX
  8
0
 10
1242.8416748
 20
510.0
 30
0.0
  0
VERTEX
  8
0
 10
1242.70166016
 20
510.96786499
 30
0.0
  0
VERTEX
  8
0
 10
1242.49914551
 20
512.02923584
 30
0.0
  0
VERTEX
  8
0
 10
1242.26574707
 20
512.99731445
 30
0.0
  0
VERTEX
  8
0
 10
1242.09863281
 20
513.99664307
 30
0.0
  0
VERTEX
  8
0
 10
1241.99694824
 20
514.44360352
 30
0.0
  0
VERTEX
  8
0
 10
1241.86950684
 20
515.00518799
 30
0.0
  0
VERTEX
  8
0
 10
1241.69189453
 20
516.00201416
 30
0.0
  0
VERTEX
  8
0
 10
1241.58447266
 20
517.00231934
 30
0.0
  0
VERTEX
  8
0
 10
1241.45263672
 20
517.99047852
 30
0.0
  0
VERTEX
  8
0
 10
1241.26965332
 20
518.99780273
 30
0.0
  0
VERTEX
  8
0
 10
1241.00878906
 20
520.00024414
 30
0.0
  0
VERTEX
  8
0
 10
1241.00012207
 20
520.0357666
 30
0.0
  0
VERTEX
  8
0
 10
1240.79455566
 20
521.00012207
 30
0.0
  0
VERTEX
  8
0
 10
1240.59851074
 20
522.00305176
 30
0.0
  0
VERTEX
  8
0
 10
1240.421875
 20
523.00012207
 30
0.0
  0
VERTEX
  8
0
 10
1240.23876953
 20
523.99542236
 30
0.0
  0
VERTEX
  8
0
 10
1240.02734375
 20
524.99926758
 30
0.0
  0
VERTEX
  8
0
 10
1240.00073242
 20
525.10272217
 30
0.0
  0
VERTEX
  8
0
 10
1239.77404785
 20
526.00646973
 30
0.0
  0
VERTEX
  8
0
 10
1239.56982422
 20
527.00231934
 30
0.0
  0
VERTEX
  8
0
 10
1239.41186523
 20
528.00054932
 30
0.0
  0
VERTEX
  8
0
 10
1239.22839355
 20
528.9911499
 30
0.0
  0
VERTEX
  8
0
 10
1238.98864746
 20
529.9967041
 30
0.0
  0
VERTEX
  8
0
 10
1238.72631836
 20
531.0088501
 30
0.0
  0
VERTEX
  8
0
 10
1238.5213623
 20
532.00421143
 30
0.0
  0
VERTEX
  8
0
 10
1238.33679199
 20
532.99206543
 30
0.0
  0
VERTEX
  8
0
 10
1238.11621094
 20
533.99591064
 30
0.0
  0
VERTEX
  8
0
 10
1237.99926758
 20
534.38275146
 30
0.0
  0
VERTEX
  8
0
 10
1237.81811523
 20
535.00848389
 30
0.0
  0
VERTEX
  8
0
 10
1237.59155273
 20
536.00256348
 30
0.0
  0
VERTEX
  8
0
 10
1237.40222168
 20
536.99798584
 30
0.0
  0
VERTEX
  8
0
 10
1237.17834473
 20
537.99084473
 30
0.0
  0
VERTEX
  8
0
 10
1236.99108887
 20
538.60040283
 30
0.0
  0
VERTEX
  8
0
 10
1236.86035156
 20
539.00793457
 30
0.0
  0
VERTEX
  8
0
 10
1236.59838867
 20
540.00476074
 30
0.0
  0
VERTEX
  8
0
 10
1236.35839844
 20
540.99304199
 30
0.0
  0
VERTEX
  8
0
 10
1236.13781738
 20
542.00756836
 30
0.0
  0
VERTEX
  8
0
 10
1235.99597168
 20
542.68115234
 30
0.0
  0
VERTEX
  8
0
 10
1235.98034668
 20
543.0
 30
0.0
  0
VERTEX
  8
0
 10
1236.00549316
 20
543.31695557
 30
0.0
  0
VERTEX
  8
0
 10
1236.05908203
 20
544.00482178
 30
0.0
  0
VERTEX
  8
0
 10
1236.00634766
 20
544.24957275
 30
0.0
  0
VERTEX
  8
0
 10
1235.59484863
 20
545.0067749
 30
0.0
  0
VERTEX
  8
0
 10
1235.10778809
 20
546.01043701
 30
0.0
  0
VERTEX
  8
0
 10
1234.99951172
 20
546.28930664
 30
0.0
  0
VERTEX
  8
0
 10
1234.78955078
 20
547.00067139
 30
0.0
  0
VERTEX
  8
0
 10
1234.50415039
 20
548.0020752
 30
0.0
  0
VERTEX
  8
0
 10
1234.20568848
 20
548.99255371
 30
0.0
  0
VERTEX
  8
0
 10
1233.9934082
 20
549.61279297
 30
0.0
  0
VERTEX
  8
0
 10
1233.85754395
 20
550.00653076
 30
0.0
  0
VERTEX
  8
0
 10
1233.55712891
 20
551.00396729
 30
0.0
  0
VERTEX
  8
0
 10
1233.27819824
 20
551.9954834
 30
0.0
  0
VERTEX
  8
0
 10
1232.99890137
 20
552.97692871
 30
0.0
  0
VERTEX
  8
0
 10
1232.99121094
 20
553.00018311
 30
0.0
  0
VERTEX
  8
0
 10
1232.66992188
 20
554.01074219
 30
0.0
  0
VERTEX
  8
0
 10
1232.37634277
 20
554.99505615
 30
0.0
  0
VERTEX
  8
0
 10
1232.08288574
 20
555.99578857
 30
0.0
  0
VERTEX
  8
0
 10
1232.00109863
 20
556.2208252
 30
0.0
  0
VERTEX
  8
0
 10
1231.71044922
 20
557.01379395
 30
0.0
  0
VERTEX
  8
0
 10
1231.40307617
 20
558.00012207
 30
0.0
  0
VERTEX
  8
0
 10
1231.11535645
 20
558.9934082
 30
0.0
  0
VERTEX
  8
0
 10
1230.99926758
 20
559.32171631
 30
0.0
  0
VERTEX
  8
0
 10
1230.74243164
 20
560.0123291
 30
0.0
  0
VERTEX
  8
0
 10
1230.42590332
 20
561.00030518
 30
0.0
  0
VERTEX
  8
0
 10
1230.12414551
 20
561.99285889
 30
0.0
  0
VERTEX
  8
0
 10
1230.0012207
 20
562.3338623
 30
0.0
  0
VERTEX
  8
0
 10
1229.74072266
 20
563.01013184
 30
0.0
  0
VERTEX
  8
0
 10
1229.41369629
 20
564.00323486
 30
0.0
  0
VERTEX
  8
0
 10
1229.10644531
 20
564.99316406
 30
0.0
  0
VERTEX
  8
0
 10
1229.0032959
 20
565.28216553
 30
0.0
  0
VERTEX
  8
0
 10
1228.71972656
 20
566.0100708
 30
0.0
  0
VERTEX
  8
0
 10
1228.36584473
 20
566.99615479
 30
0.0
  0
VERTEX
  8
0
 10
1228.02172852
 20
567.99902344
 30
0.0
  0
VERTEX
  8
0
 10
1228.00134277
 20
568.05224609
 30
0.0
  0
VERTEX
  8
0
 10
1227.64050293
 20
569.01086426
 30
0.0
  0
VERTEX
  8
0
 10
1227.28393555
 20
569.99298096
 30
0.0
  0
VERTEX
  8
0
 10
1226.98950195
 20
570.78881836
 30
0.0
  0
VERTEX
  8
0
 10
1226.90454102
 20
571.00396729
 30
0.0
  0
VERTEX
  8
0
 10
1226.55981445
 20
572.01782227
 30
0.0
  0
VERTEX
  8
0
 10
1226.28967285
 20
572.99761963
 30
0.0
  0
VERTEX
  8
0
 10
1226.04443359
 20
573.99420166
 30
0.0
  0
VERTEX
  8
0
 10
1226.00695801
 20
574.08557129
 30
0.0
  0
VERTEX
  8
0
 10
1225.54833984
 20
575.03613281
 30
0.0
  0
VERTEX
  8
0
 10
1225.15393066
 20
575.98699951
 30
0.0
  0
VERTEX
  8
0
 10
1225.00195313
 20
576.36328125
 30
0.0
  0
VERTEX
  8
0
 10
1224.71166992
 20
577.0168457
 30
0.0
  0
VERTEX
  8
0
 10
1224.33190918
 20
577.99639893
 30
0.0
  0
VERTEX
  8
0
 10
1223.99743652
 20
578.94250488
 30
0.0
  0
VERTEX
  8
0
 10
1223.98498535
 20
579.00085449
 30
0.0
  0
VERTEX
  8
0
 10
1223.77783203
 20
579.96160889
 30
0.0
  0
VERTEX
  8
0
 10
1223.40332031
 20
580.99438477
 30
0.0
  0
VERTEX
  8
0
 10
1222.99560547
 20
581.75469971
 30
0.0
  0
VERTEX
  8
0
 10
1222.875
 20
582.00854492
 30
0.0
  0
VERTEX
  8
0
 10
1222.44946289
 20
582.99481201
 30
0.0
  0
VERTEX
  8
0
 10
1222.02124023
 20
583.99822998
 30
0.0
  0
VERTEX
  8
0
 10
1222.0020752
 20
584.03729248
 30
0.0
  0
VERTEX
  8
0
 10
1221.52685547
 20
585.02520752
 30
0.0
  0
VERTEX
  8
0
 10
1221.10852051
 20
585.99285889
 30
0.0
  0
VERTEX
  8
0
 10
1221.0020752
 20
586.24047852
 30
0.0
  0
VERTEX
  8
0
 10
1220.65136719
 20
587.01660156
 30
0.0
  0
VERTEX
  8
0
 10
1220.23754883
 20
587.98974609
 30
0.0
  0
VERTEX
  8
0
 10
1219.99047852
 20
588.5458374
 30
0.0
  0
VERTEX
  8
0
 10
1219.78320313
 20
589.01300049
 30
0.0
  0
VERTEX
  8
0
 10
1219.36254883
 20
589.99084473
 30
0.0
  0
VERTEX
  8
0
 10
1218.9909668
 20
590.84655762
 30
0.0
  0
VERTEX
  8
0
 10
1218.91833496
 20
591.00402832
 30
0.0
  0
VERTEX
  8
0
 10
1218.47302246
 20
592.01068115
 30
0.0
  0
VERTEX
  8
0
 10
1218.06604004
 20
592.996521
 30
0.0
  0
VERTEX
  8
0
 10
1218.00231934
 20
593.14599609
 30
0.0
  0
VERTEX
  8
0
 10
1217.64245605
 20
594.01947021
 30
0.0
  0
VERTEX
  8
0
 10
1217.26049805
 20
594.98419189
 30
0.0
  0
VERTEX
  8
0
 10
1216.98925781
 20
595.62683105
 30
0.0
  0
VERTEX
  8
0
 10
1216.82580566
 20
596.01361084
 30
0.0
  0
VERTEX
  8
0
 10
1216.37890625
 20
596.96032715
 30
0.0
  0
VERTEX
  8
0
 10
1216.00170898
 20
597.63763428
 30
0.0
  0
VERTEX
  8
0
 10
1215.78039551
 20
598.01867676
 30
0.0
  0
VERTEX
  8
0
 10
1215.28918457
 20
598.98675537
 30
0.0
  0
VERTEX
  8
0
 10
1214.99206543
 20
599.54943848
 30
0.0
  0
VERTEX
  8
0
 10
1214.74804688
 20
600.01593018
 30
0.0
  0
VERTEX
  8
0
 10
1214.26586914
 20
600.99255371
 30
0.0
  0
VERTEX
  8
0
 10
1213.98815918
 20
601.53656006
 30
0.0
  0
VERTEX
  8
0
 10
1213.75268555
 20
602.01538086
 30
0.0
  0
VERTEX
  8
0
 10
1213.28295898
 20
602.98944092
 30
0.0
  0
VERTEX
  8
0
 10
1212.98571777
 20
603.5682373
 30
0.0
  0
VERTEX
  8
0
 10
1212.76196289
 20
604.01727295
 30
0.0
  0
VERTEX
  8
0
 10
1212.29101563
 20
604.98980713
 30
0.0
  0
VERTEX
  8
0
 10
1211.98718262
 20
605.59277344
 30
0.0
  0
VERTEX
  8
0
 10
1211.77624512
 20
606.01361084
 30
0.0
  0
VERTEX
  8
0
 10
1211.29284668
 20
606.99139404
 30
0.0
  0
VERTEX
  8
0
 10
1210.98730469
 20
607.58026123
 30
0.0
  0
VERTEX
  8
0
 10
1210.76403809
 20
608.01306152
 30
0.0
  0
VERTEX
  8
0
 10
1210.26391602
 20
608.99261475
 30
0.0
  0
VERTEX
  8
0
 10
1209.98876953
 20
609.50524902
 30
0.0
  0
VERTEX
  8
0
 10
1209.73120117
 20
610.01940918
 30
0.0
  0
VERTEX
  8
0
 10
1209.26196289
 20
610.98596191
 30
0.0
  0
VERTEX
  8
0
 10
1208.98999023
 20
611.51159668
 30
0.0
  0
VERTEX
  8
0
 10
1208.72521973
 20
612.01861572
 30
0.0
  0
VERTEX
  8
0
 10
1208.234375
 20
612.98608398
 30
0.0
  0
VERTEX
  8
0
 10
1207.99475098
 20
613.4284668
 30
0.0
  0
VERTEX
  8
0
 10
1207.67321777
 20
614.02288818
 30
0.0
  0
VERTEX
  8
0
 10
1207.1796875
 20
614.98419189
 30
0.0
  0
VERTEX
  8
0
 10
1207.00415039
 20
615.30712891
 30
0.0
  0
VERTEX
  8
0
 10
1206.58312988
 20
616.02172852
 30
0.0
  0
VERTEX
  8
0
 10
1206.06530762
 20
616.99401855
 30
0.0
  0
VERTEX
  8
0
 10
1206.00500488
 20
617.10430908
 30
0.0
  0
VERTEX
  8
0
 10
1205.44958496
 20
618.00775146
 30
0.0
  0
VERTEX
  8
0
 10
1204.9876709
 20
618.76776123
 30
0.0
  0
VERTEX
  8
0
 10
1204.85327148
 20
619.00854492
 30
0.0
  0
VERTEX
  8
0
 10
1204.29125977
 20
619.99359131
 30
0.0
  0
VERTEX
  8
0
 10
1203.99035645
 20
620.49377441
 30
0.0
  0
VERTEX
  8
0
 10
1203.68640137
 20
621.01690674
 30
0.0
  0
VERTEX
  8
0
 10
1203.13879395
 20
621.99237061
 30
0.0
  0
VERTEX
  8
0
 10
1203.00146484
 20
622.22918701
 30
0.0
  0
VERTEX
  8
0
 10
1202.55163574
 20
623.02832031
 30
0.0
  0
VERTEX
  8
0
 10
1202.07080078
 20
623.99401855
 30
0.0
  0
VERTEX
  8
0
 10
1202.00183105
 20
624.1262207
 30
0.0
  0
VERTEX
  8
0
 10
1201.44165039
 20
624.99816895
 30
0.0
  0
VERTEX
  8
0
 10
1200.99401855
 20
625.67895508
 30
0.0
  0
VERTEX
  8
0
 10
1200.79162598
 20
626.01031494
 30
0.0
  0
VERTEX
  8
0
 10
1200.20422363
 20
626.99005127
 30
0.0
  0
VERTEX
  8
0
 10
1200.00280762
 20
627.31378174
 30
0.0
  0
VERTEX
  8
0
 10
1199.55700684
 20
628.0145874
 30
0.0
  0
VERTEX
  8
0
 10
1198.99694824
 20
628.95880127
 30
0.0
  0
VERTEX
  8
0
 10
1198.9720459
 20
629.00128174
 30
0.0
  0
VERTEX
  8
0
 10
1198.3548584
 20
629.99987793
 30
0.0
  0
VERTEX
  8
0
 10
1197.99023438
 20
630.57006836
 30
0.0
  0
VERTEX
  8
0
 10
1197.72668457
 20
631.01391602
 30
0.0
  0
VERTEX
  8
0
 10
1197.15625
 20
631.99206543
 30
0.0
  0
VERTEX
  8
0
 10
1197.00085449
 20
632.2477417
 30
0.0
  0
VERTEX
  8
0
 10
1196.50415039
 20
633.00994873
 30
0.0
  0
VERTEX
  8
0
 10
1195.99121094
 20
633.81506348
 30
0.0
  0
VERTEX
  8
0
 10
1195.87597656
 20
634.00500488
 30
0.0
  0
VERTEX
  8
0
 10
1195.25061035
 20
634.99475098
 30
0.0
  0
VERTEX
  8
0
 10
1194.99731445
 20
635.38116455
 30
0.0
  0
VERTEX
  8
0
 10
1194.58117676
 20
636.00909424
 30
0.0
  0
VERTEX
  8
0
 10
1193.99462891
 20
636.91229248
 30
0.0
  0
VERTEX
  8
0
 10
1193.93859863
 20
637.00360107
 30
0.0
  0
VERTEX
  8
0
 10
1193.31616211
 20
637.99365234
 30
0.0
  0
VERTEX
  8
0
 10
1192.99060059
 20
638.47741699
 30
0.0
  0
VERTEX
  8
0
 10
1192.63867188
 20
639.019104
 30
0.0
  0
VERTEX
  8
0
 10
1192.03723145
 20
639.99761963
 30
0.0
  0
VERTEX
  8
0
 10
1192.00146484
 20
640.05480957
 30
0.0
  0
VERTEX
  8
0
 10
1191.35144043
 20
641.0022583
 30
0.0
  0
VERTEX
  8
0
 10
1190.9901123
 20
641.51519775
 30
0.0
  0
VERTEX
  8
0
 10
1190.66394043
 20
642.01605225
 30
0.0
  0
VERTEX
  8
0
 10
1190.04858398
 20
642.99731445
 30
0.0
  0
VERTEX
  8
0
 10
1190.0012207
 20
643.07061768
 30
0.0
  0
VERTEX
  8
0
 10
1189.33886719
 20
644.0
 30
0.0
  0
VERTEX
  8
0
 10
1188.99938965
 20
644.47625732
 30
0.0
  0
VERTEX
  8
0
 10
1188.63647461
 20
645.00762939
 30
0.0
  0
VERTEX
  8
0
 10
1187.99829102
 20
645.97290039
 30
0.0
  0
VERTEX
  8
0
 10
1187.97924805
 20
646.00054932
 30
0.0
  0
VERTEX
  8
0
 10
1187.22717285
 20
646.99230957
 30
0.0
  0
VERTEX
  8
0
 10
1187.00744629
 20
647.28045654
 30
0.0
  0
VERTEX
  8
0
 10
1186.45593262
 20
648.00897217
 30
0.0
  0
VERTEX
  8
0
 10
1185.98815918
 20
648.63983154
 30
0.0
  0
VERTEX
  8
0
 10
1185.73413086
 20
649.01184082
 30
0.0
  0
VERTEX
  8
0
 10
1185.06359863
 20
649.99688721
 30
0.0
  0
VERTEX
  8
0
 10
1185.00170898
 20
650.08551025
 30
0.0
  0
VERTEX
  8
0
 10
1184.30969238
 20
650.99603271
 30
0.0
  0
VERTEX
  8
0
 10
1184.00061035
 20
651.39654541
 30
0.0
  0
VERTEX
  8
0
 10
1183.53820801
 20
652.01080322
 30
0.0
  0
VERTEX
  8
0
 10
1182.98999023
 20
652.75427246
 30
0.0
  0
VERTEX
  8
0
 10
1182.81530762
 20
653.00805664
 30
0.0
  0
VERTEX
  8
0
 10
1182.12255859
 20
653.99414063
 30
0.0
  0
VERTEX
  8
0
 10
1182.00146484
 20
654.15808105
 30
0.0
  0
VERTEX
  8
0
 10
1181.32373047
 20
655.00067139
 30
0.0
  0
VERTEX
  8
0
 10
1181.0012207
 20
655.40692139
 30
0.0
  0
VERTEX
  8
0
 10
1180.55102539
 20
656.01159668
 30
0.0
  0
VERTEX
  8
0
 10
1179.98925781
 20
656.7855835
 30
0.0
  0
VERTEX
  8
0
 10
1179.83459473
 20
657.00561523
 30
0.0
  0
VERTEX
  8
0
 10
1179.10192871
 20
657.9954834
 30
0.0
  0
VERTEX
  8
0
 10
1179.00219727
 20
658.12548828
 30
0.0
  0
VERTEX
  8
0
 10
1178.28125
 20
658.99627686
 30
0.0
  0
VERTEX
  8
0
 10
1178.00231934
 20
659.33203125
 30
0.0
  0
VERTEX
  8
0
 10
1177.44592285
 20
660.00567627
 30
0.0
  0
VERTEX
  8
0
 10
1176.99316406
 20
660.5569458
 30
0.0
  0
VERTEX
  8
0
 10
1176.63110352
 20
661.00238037
 30
0.0
  0
VERTEX
  8
0
 10
1175.99645996
 20
661.76049805
 30
0.0
  0
VERTEX
  8
0
 10
1175.80297852
 20
662.00787354
 30
0.0
  0
VERTEX
  8
0
 10
1175.05664063
 20
662.99798584
 30
0.0
  0
VERTEX
  8
0
 10
1175.00170898
 20
663.07067871
 30
0.0
  0
VERTEX
  8
0
 10
1174.27392578
 20
663.99761963
 30
0.0
  0
VERTEX
  8
0
 10
1173.9967041
 20
664.34008789
 30
0.0
  0
VERTEX
  8
0
 10
1173.44641113
 20
665.00231934
 30
0.0
  0
VERTEX
  8
0
 10
1172.99523926
 20
665.53521729
 30
0.0
  0
VERTEX
  8
0
 10
1172.61010742
 20
666.00946045
 30
0.0
  0
VERTEX
  8
0
 10
1171.9921875
 20
666.77154541
 30
0.0
  0
VERTEX
  8
0
 10
1171.80200195
 20
667.0
 30
0.0
  0
VERTEX
  8
0
 10
1170.99865723
 20
667.89886475
 30
0.0
  0
VERTEX
  8
0
 10
1170.90991211
 20
668.00305176
 30
0.0
  0
VERTEX
  8
0
 10
1170.09057617
 20
668.99786377
 30
0.0
  0
VERTEX
  8
0
 10
1170.00146484
 20
669.1050415
 30
0.0
  0
VERTEX
  8
0
 10
1169.24121094
 20
670.0010376
 30
0.0
  0
VERTEX
  8
0
 10
1168.99743652
 20
670.28625488
 30
0.0
  0
VERTEX
  8
0
 10
1168.38415527
 20
671.00073242
 30
0.0
  0
VERTEX
  8
0
 10
1167.99719238
 20
671.44421387
 30
0.0
  0
VERTEX
  8
0
 10
1167.5078125
 20
671.99920654
 30
0.0
  0
VERTEX
  8
0
 10
1166.99572754
 20
672.56335449
 30
0.0
  0
VERTEX
  8
0
 10
1166.59606934
 20
673.00463867
 30
0.0
  0
VERTEX
  8
0
 10
1166.00061035
 20
673.66387939
 30
0.0
  0
VERTEX
  8
0
 10
1165.71008301
 20
674.00604248
 30
0.0
  0
VERTEX
  8
0
 10
1164.99389648
 20
674.87145996
 30
0.0
  0
VERTEX
  8
0
 10
1164.88012695
 20
674.99963379
 30
0.0
  0
VERTEX
  8
0
 10
1164.00048828
 20
675.90057373
 30
0.0
  0
VERTEX
  8
0
 10
1163.90625
 20
676.00177002
 30
0.0
  0
VERTEX
  8
0
 10
1163.01733398
 20
676.99969482
 30
0.0
  0
VERTEX
  8
0
 10
1163.00024414
 20
677.0189209
 30
0.0
  0
VERTEX
  8
0
 10
1162.11743164
 20
677.99975586
 30
0.0
  0
VERTEX
  8
0
 10
1162.0
 20
678.12963867
 30
0.0
  0
VERTEX
  8
0
 10
1161.20678711
 20
678.99694824
 30
0.0
  0
VERTEX
  8
0
 10
1161.00170898
 20
679.21899414
 30
0.0
  0
VERTEX
  8
0
 10
1160.2677002
 20
679.99945068
 30
0.0
  0
VERTEX
  8
0
 10
1160.0020752
 20
680.28637695
 30
0.0
  0
VERTEX
  8
0
 10
1159.34851074
 20
681.00195313
 30
0.0
  0
VERTEX
  8
0
 10
1158.99560547
 20
681.38537598
 30
0.0
  0
VERTEX
  8
0
 10
1158.42004395
 20
681.99517822
 30
0.0
  0
VERTEX
  8
0
 10
1158.00195313
 20
682.42694092
 30
0.0
  0
VERTEX
  8
0
 10
1157.43969727
 20
683.00073242
 30
0.0
  0
VERTEX
  8
0
 10
1157.0
 20
683.45379639
 30
0.0
  0
VERTEX
  8
0
 10
1156.4708252
 20
683.99932861
 30
0.0
  0
VERTEX
  8
0
 10
1156.0
 20
684.4833374
 30
0.0
  0
VERTEX
  8
0
 10
1155.49816895
 20
685.0020752
 30
0.0
  0
VERTEX
  8
0
 10
1154.99584961
 20
685.51733398
 30
0.0
  0
VERTEX
  8
0
 10
1154.52001953
 20
685.99859619
 30
0.0
  0
VERTEX
  8
0
 10
1154.00073242
 20
686.51330566
 30
0.0
  0
VERTEX
  8
0
 10
1153.50512695
 20
686.99658203
 30
0.0
  0
VERTEX
  8
0
 10
1153.00671387
 20
687.49072266
 30
0.0
  0
VERTEX
  8
0
 10
1152.50366211
 20
688.00341797
 30
0.0
  0
VERTEX
  8
0
 10
1151.99462891
 20
688.53271484
 30
0.0
  0
VERTEX
  8
0
 10
1151.5423584
 20
689.00073242
 30
0.0
  0
VERTEX
  8
0
 10
1151.00073242
 20
689.55151367
 30
0.0
  0
VERTEX
  8
0
 10
1150.55737305
 20
689.99523926
 30
0.0
  0
VERTEX
  8
0
 10
1150.00195313
 20
690.54608154
 30
0.0
  0
VERTEX
  8
0
 10
1149.5423584
 20
691.00201416
 30
0.0
  0
VERTEX
  8
0
 10
1148.9979248
 20
691.54718018
 30
0.0
  0
VERTEX
  8
0
 10
1148.5447998
 20
691.99932861
 30
0.0
  0
VERTEX
  8
0
 10
1148.0
 20
692.53656006
 30
0.0
  0
VERTEX
  8
0
 10
1147.52331543
 20
692.99414063
 30
0.0
  0
VERTEX
  8
0
 10
1147.00402832
 20
693.48913574
 30
0.0
  0
VERTEX
  8
0
 10
1146.46118164
 20
693.99633789
 30
0.0
  0
VERTEX
  8
0
 10
1146.0012207
 20
694.42889404
 30
0.0
  0
VERTEX
  8
0
 10
1145.38757324
 20
695.0
 30
0.0
  0
VERTEX
  8
0
 10
1145.00061035
 20
695.36291504
 30
0.0
  0
VERTEX
  8
0
 10
1144.32214355
 20
695.9989624
 30
0.0
  0
VERTEX
  8
0
 10
1144.00048828
 20
696.30053711
 30
0.0
  0
VERTEX
  8
0
 10
1143.25268555
 20
697.00085449
 30
0.0
  0
VERTEX
  8
0
 10
1142.99914551
 20
697.23822021
 30
0.0
  0
VERTEX
  8
0
 10
1142.18664551
 20
698.00067139
 30
0.0
  0
VERTEX
  8
0
 10
1141.99768066
 20
698.17388916
 30
0.0
  0
VERTEX
  8
0
 10
1141.0847168
 20
699.00305176
 30
0.0
  0
VERTEX
  8
0
 10
1140.99658203
 20
699.08081055
 30
0.0
  0
VERTEX
  8
0
 10
1140.00109863
 20
699.95129395
 30
0.0
  0
VERTEX
  8
0
 10
1139.94689941
 20
699.99945068
 30
0.0
  0
VERTEX
  8
0
 10
1139.00231934
 20
700.86785889
 30
0.0
  0
VERTEX
  8
0
 10
1138.8581543
 20
700.99462891
 30
0.0
  0
VERTEX
  8
0
 10
1138.00280762
 20
701.73065186
 30
0.0
  0
VERTEX
  8
0
 10
1137.68432617
 20
701.99102783
 30
0.0
  0
VERTEX
  8
0
 10
1137.01123047
 20
702.54986572
 30
0.0
  0
VERTEX
  8
0
 10
1136.47802734
 20
702.99822998
 30
0.0
  0
VERTEX
  8
0
 10
1136.0012207
 20
703.41992188
 30
0.0
  0
VERTEX
  8
0
 10
1135.3449707
 20
704.0010376
 30
0.0
  0
VERTEX
  8
0
 10
1134.99731445
 20
704.30621338
 30
0.0
  0
VERTEX
  8
0
 10
1134.20178223
 20
705.00213623
 30
0.0
  0
VERTEX
  8
0
 10
1133.99780273
 20
705.17797852
 30
0.0
  0
VERTEX
  8
0
 10
1133.04455566
 20
706.00079346
 30
0.0
  0
VERTEX
  8
0
 10
1132.99841309
 20
706.03833008
 30
0.0
  0
VERTEX
  8
0
 10
1132.00634766
 20
706.82293701
 30
0.0
  0
VERTEX
  8
0
 10
1131.79089355
 20
706.99395752
 30
0.0
  0
VERTEX
  8
0
 10
1131.00695801
 20
707.64782715
 30
0.0
  0
VERTEX
  8
0
 10
1130.58691406
 20
707.99316406
 30
0.0
  0
VERTEX
  8
0
 10
1130.00793457
 20
708.49053955
 30
0.0
  0
VERTEX
  8
0
 10
1129.4185791
 20
708.99822998
 30
0.0
  0
VERTEX
  8
0
 10
1128.99621582
 20
709.36315918
 30
0.0
  0
VERTEX
  8
0
 10
1128.23999023
 20
710.0012207
 30
0.0
  0
VERTEX
  8
0
 10
1127.99829102
 20
710.20092773
 30
0.0
  0
VERTEX
  8
0
 10
1127.02758789
 20
711.00018311
 30
0.0
  0
VERTEX
  8
0
 10
1126.99963379
 20
711.02264404
 30
0.0
  0
VERTEX
  8
0
 10
1126.00720215
 20
711.82086182
 30
0.0
  0
VERTEX
  8
0
 10
1125.79089355
 20
711.98809814
 30
0.0
  0
VERTEX
  8
0
 10
1125.00964355
 20
712.60620117
 30
0.0
  0
VERTEX
  8
0
 10
1124.54089355
 20
713.02264404
 30
0.0
  0
VERTEX
  8
0
 10
1123.97094727
 20
713.54669189
 30
0.0
  0
VERTEX
  8
0
 10
1123.44299316
 20
713.97424316
 30
0.0
  0
VERTEX
  8
0
 10
1123.01989746
 20
714.28344727
 30
0.0
  0
VERTEX
  8
0
 10
1122.02954102
 20
715.00128174
 30
0.0
  0
VERTEX
  8
0
 10
1121.99902344
 20
715.0246582
 30
0.0
  0
VERTEX
  8
0
 10
1121.00598145
 20
715.8057251
 30
0.0
  0
VERTEX
  8
0
 10
1120.76660156
 20
715.99359131
 30
0.0
  0
VERTEX
  8
0
 10
1120.00708008
 20
716.61547852
 30
0.0
  0
VERTEX
  8
0
 10
1119.5411377
 20
716.99591064
 30
0.0
  0
VERTEX
  8
0
 10
1119.00158691
 20
717.44903564
 30
0.0
  0
VERTEX
  8
0
 10
1118.34033203
 20
718.00054932
 30
0.0
  0
VERTEX
  8
0
 10
1117.99572754
 20
718.28149414
 30
0.0
  0
VERTEX
  8
0
 10
1117.09375
 20
719.0
 30
0.0
  0
VERTEX
  8
0
 10
1116.99731445
 20
719.06988525
 30
0.0
  0
VERTEX
  8
0
 10
1116.01330566
 20
719.75775146
 30
0.0
  0
VERTEX
  8
0
 10
1115.70690918
 20
720.00927734
 30
0.0
  0
VERTEX
  8
0
 10
1114.98815918
 20
720.68548584
 30
0.0
  0
VERTEX
  8
0
 10
1114.62646484
 20
720.97772217
 30
0.0
  0
VERTEX
  8
0
 10
1114.0
 20
721.40002441
 30
0.0
  0
VERTEX
  8
0
 10
1113.03723145
 20
722.00042725
 30
0.0
  0
VERTEX
  8
0
 10
1113.00024414
 20
722.02453613
 30
0.0
  0
VERTEX
  8
0
 10
1112.01013184
 20
722.71862793
 30
0.0
  0
VERTEX
  8
0
 10
1111.62646484
 20
722.98925781
 30
0.0
  0
VERTEX
  8
0
 10
1111.00732422
 20
723.45349121
 30
0.0
  0
VERTEX
  8
0
 10
1110.27490234
 20
724.00042725
 30
0.0
  0
VERTEX
  8
0
 10
1109.99035645
 20
724.19689941
 30
0.0
  0
VERTEX
  8
0
 10
1109.00939941
 20
724.83563232
 30
0.0
  0
VERTEX
  8
0
 10
1108.76928711
 20
724.98931885
 30
0.0
  0
VERTEX
  8
0
 10
1108.01269531
 20
725.5256958
 30
0.0
  0
VERTEX
  8
0
 10
1107.35681152
 20
725.99572754
 30
0.0
  0
VERTEX
  8
0
 10
1106.99707031
 20
726.25671387
 30
0.0
  0
VERTEX
  8
0
 10
1106.00183105
 20
726.95062256
 30
0.0
  0
VERTEX
  8
0
 10
1105.93310547
 20
726.99554443
 30
0.0
  0
VERTEX
  8
0
 10
1105.01501465
 20
727.60180664
 30
0.0
  0
VERTEX
  8
0
 10
1104.44152832
 20
727.99133301
 30
0.0
  0
VERTEX
  8
0
 10
1103.9967041
 20
728.29986572
 30
0.0
  0
VERTEX
  8
0
 10
1103.00231934
 20
728.95257568
 30
0.0
  0
VERTEX
  8
0
 10
1102.9342041
 20
728.99597168
 30
0.0
  0
VERTEX
  8
0
 10
1102.01403809
 20
729.6081543
 30
0.0
  0
VERTEX
  8
0
 10
1101.45202637
 20
729.99121094
 30
0.0
  0
VERTEX
  8
0
 10
1100.99511719
 20
730.30456543
 30
0.0
  0
VERTEX
  8
0
 10
1100.00280762
 20
730.94439697
 30
0.0
  0
VERTEX
  8
0
 10
1099.92077637
 20
730.99438477
 30
0.0
  0
VERTEX
  8
0
 10
1099.01501465
 20
731.56829834
 30
0.0
  0
VERTEX
  8
0
 10
1098.36816406
 20
731.99591064
 30
0.0
  0
VERTEX
  8
0
 10
1097.99230957
 20
732.24072266
 30
0.0
  0
VERTEX
  8
0
 10
1097.00805664
 20
732.84674072
 30
0.0
  0
VERTEX
  8
0
 10
1096.77038574
 20
732.98791504
 30
0.0
  0
VERTEX
  8
0
 10
1096.00952148
 20
733.47497559
 30
0.0
  0
VERTEX
  8
0
 10
1095.19616699
 20
734.00061035
 30
0.0
  0
VERTEX
  8
0
 10
1094.99401855
 20
734.12255859
 30
0.0
  0
VERTEX
  8
0
 10
1094.01806641
 20
734.69732666
 30
0.0
  0
VERTEX
  8
0
 10
1093.54248047
 20
734.98809814
 30
0.0
  0
VERTEX
  8
0
 10
1092.99829102
 20
735.34729004
 30
0.0
  0
VERTEX
  8
0
 10
1092.00109863
 20
735.97119141
 30
0.0
  0
VERTEX
  8
0
 10
1091.95727539
 20
735.99707031
 30
0.0
  0
VERTEX
  8
0
 10
1091.01672363
 20
736.56164551
 30
0.0
  0
VERTEX
  8
0
 10
1090.33422852
 20
736.99609375
 30
0.0
  0
VERTEX
  8
0
 10
1089.9901123
 20
737.20465088
 30
0.0
  0
VERTEX
  8
0
 10
1089.01586914
 20
737.76116943
 30
0.0
  0
VERTEX
  8
0
 10
1088.62683105
 20
737.98718262
 30
0.0
  0
VERTEX
  8
0
 10
1088.00964355
 20
738.40307617
 30
0.0
  0
VERTEX
  8
0
 10
1087.12487793
 20
739.00177002
 30
0.0
  0
VERTEX
  8
0
 10
1086.99267578
 20
739.074646
 30
0.0
  0
VERTEX
  8
0
 10
1086.0234375
 20
739.55053711
 30
0.0
  0
VERTEX
  8
0
 10
1085.18518066
 20
740.00201416
 30
0.0
  0
VERTEX
  8
0
 10
1084.99523926
 20
740.10858154
 30
0.0
  0
VERTEX
  8
0
 10
1084.01757813
 20
740.65887451
 30
0.0
  0
VERTEX
  8
0
 10
1083.45617676
 20
740.99328613
 30
0.0
  0
VERTEX
  8
0
 10
1082.98986816
 20
741.27209473
 30
0.0
  0
VERTEX
  8
0
 10
1082.01147461
 20
741.82287598
 30
0.0
  0
VERTEX
  8
0
 10
1081.71606445
 20
741.98510742
 30
0.0
  0
VERTEX
  8
0
 10
1080.99938965
 20
742.40441895
 30
0.0
  0
VERTEX
  8
0
 10
1080.00195313
 20
742.96307373
 30
0.0
  0
VERTEX
  8
0
 10
1079.94104004
 20
742.99481201
 30
0.0
  0
VERTEX
  8
0
 10
1079.01330566
 20
743.48364258
 30
0.0
  0
VERTEX
  8
0
 10
1078.08239746
 20
744.00158691
 30
0.0
  0
VERTEX
  8
0
 10
1077.99731445
 20
744.04681396
 30
0.0
  0
VERTEX
  8
0
 10
1077.01635742
 20
744.55889893
 30
0.0
  0
VERTEX
  8
0
 10
1076.22961426
 20
744.99969482
 30
0.0
  0
VERTEX
  8
0
 10
1075.99353027
 20
745.1262207
 30
0.0
  0
VERTEX
  8
0
 10
1075.01647949
 20
745.62902832
 30
0.0
  0
VERTEX
  8
0
 10
1074.33850098
 20
745.99505615
 30
0.0
  0
VERTEX
  8
0
 10
1073.9909668
 20
746.17254639
 30
0.0
  0
VERTEX
  8
0
 10
1073.02282715
 20
746.64953613
 30
0.0
  0
VERTEX
  8
0
 10
1072.37487793
 20
746.99298096
 30
0.0
  0
VERTEX
  8
0
 10
1071.98962402
 20
747.19549561
 30
0.0
  0
VERTEX
  8
0
 10
1071.01940918
 20
747.67370605
 30
0.0
  0
VERTEX
  8
0
 10
1070.40100098
 20
747.98907471
 30
0.0
  0
VERTEX
  8
0
 10
1069.99707031
 20
748.20825195
 30
0.0
  0
VERTEX
  8
0
 10
1069.01086426
 20
748.72009277
 30
0.0
  0
VERTEX
  8
0
 10
1068.49707031
 20
748.98217773
 30
0.0
  0
VERTEX
  8
0
 10
1068.02026367
 20
749.27160645
 30
0.0
  0
VERTEX
  8
0
 10
1066.98913574
 20
749.90380859
 30
0.0
  0
VERTEX
  8
0
 10
1066.80737305
 20
749.9887085
 30
0.0
  0
VERTEX
  8
0
 10
1065.99902344
 20
750.22741699
 30
0.0
  0
VERTEX
  8
0
 10
1065.03234863
 20
750.58221436
 30
0.0
  0
VERTEX
  8
0
 10
1064.12939453
 20
751.00250244
 30
0.0
  0
VERTEX
  8
0
 10
1063.99499512
 20
751.06768799
 30
0.0
  0
VERTEX
  8
0
 10
1063.0222168
 20
751.52581787
 30
0.0
  0
VERTEX
  8
0
 10
1062.10473633
 20
752.0022583
 30
0.0
  0
VERTEX
  8
0
 10
1061.99560547
 20
752.0557251
 30
0.0
  0
VERTEX
  8
0
 10
1061.01831055
 20
752.50628662
 30
0.0
  0
VERTEX
  8
0
 10
1060.02429199
 20
753.00097656
 30
0.0
  0
VERTEX
  8
0
 10
1059.99890137
 20
753.01275635
 30
0.0
  0
VERTEX
  8
0
 10
1059.00708008
 20
753.41955566
 30
0.0
  0
VERTEX
  8
0
 10
1058.00866699
 20
753.86773682
 30
0.0
  0
VERTEX
  8
0
 10
1057.75878906
 20
753.98303223
 30
0.0
  0
VERTEX
  8
0
 10
1056.99572754
 20
754.33789063
 30
0.0
  0
VERTEX
  8
0
 10
1056.01293945
 20
754.78863525
 30
0.0
  0
VERTEX
  8
0
 10
1055.59326172
 20
754.98120117
 30
0.0
  0
VERTEX
  8
0
 10
1054.99133301
 20
755.25073242
 30
0.0
  0
VERTEX
  8
0
 10
1054.0213623
 20
755.67089844
 30
0.0
  0
VERTEX
  8
0
 10
1053.33435059
 20
755.9942627
 30
0.0
  0
VERTEX
  8
0
 10
1052.98986816
 20
756.14703369
 30
0.0
  0
VERTEX
  8
0
 10
1052.02502441
 20
756.54980469
 30
0.0
  0
VERTEX
  8
0
 10
1051.0369873
 20
757.00152588
 30
0.0
  0
VERTEX
  8
0
 10
1050.99841309
 20
757.0189209
 30
0.0
  0
VERTEX
  8
0
 10
1049.99987793
 20
757.39709473
 30
0.0
  0
VERTEX
  8
0
 10
1049.01403809
 20
757.80377197
 30
0.0
  0
VERTEX
  8
0
 10
1048.60742188
 20
757.98205566
 30
0.0
  0
VERTEX
  8
0
 10
1047.98779297
 20
758.24462891
 30
0.0
  0
VERTEX
  8
0
 10
1047.02368164
 20
758.63562012
 30
0.0
  0
VERTEX
  8
0
 10
1046.20117188
 20
759.00219727
 30
0.0
  0
VERTEX
  8
0
 10
1045.99291992
 20
759.09197998
 30
0.0
  0
VERTEX
  8
0
 10
1045.00878906
 20
759.46466064
 30
0.0
  0
VERTEX
  8
0
 10
1044.00488281
 20
759.86242676
 30
0.0
  0
VERTEX
  8
0
 10
1043.70007324
 20
759.98266602
 30
0.0
  0
VERTEX
  8
0
 10
1042.99645996
 20
760.24078369
 30
0.0
  0
VERTEX
  8
0
 10
1042.01708984
 20
760.60772705
 30
0.0
  0
VERTEX
  8
0
 10
1041.0793457
 20
761.01611328
 30
0.0
  0
VERTEX
  8
0
 10
1041.01269531
 20
761.08044434
 30
0.0
  0
VERTEX
  8
0
 10
1040.83789063
 20
762.00457764
 30
0.0
  0
VERTEX
  8
0
 10
1040.99658203
 20
762.80975342
 30
0.0
  0
VERTEX
  8
0
 10
1041.03613281
 20
762.99798584
 30
0.0
  0
VERTEX
  8
0
 10
1040.96899414
 20
763.25720215
 30
0.0
  0
VERTEX
  8
0
 10
1040.40576172
 20
763.94250488
 30
0.0
  0
VERTEX
  8
0
 10
1039.97729492
 20
764.1751709
 30
0.0
  0
VERTEX
  8
0
 10
1039.02026367
 20
764.19732666
 30
0.0
  0
VERTEX
  8
0
 10
1038.22973633
 20
763.98327637
 30
0.0
  0
VERTEX
  8
0
 10
1038.00097656
 20
763.86242676
 30
0.0
  0
VERTEX
  8
0
 10
1036.94042969
 20
763.39440918
 30
0.0
  0
VERTEX
  8
0
 10
1036.0057373
 20
763.24554443
 30
0.0
  0
VERTEX
  8
0
 10
1035.00805664
 20
763.38586426
 30
0.0
  0
VERTEX
  8
0
 10
1034.01696777
 20
763.70178223
 30
0.0
  0
VERTEX
  8
0
 10
1033.30065918
 20
763.99530029
 30
0.0
  0
VERTEX
  8
0
 10
1032.99316406
 20
764.1138916
 30
0.0
  0
VERTEX
  8
0
 10
1032.00292969
 20
764.4239502
 30
0.0
  0
VERTEX
  8
0
 10
1031.01501465
 20
764.7645874
 30
0.0
  0
VERTEX
  8
0
 10
1030.45581055
 20
764.987854
 30
0.0
  0
VERTEX
  8
0
 10
1029.99108887
 20
765.16607666
 30
0.0
  0
VERTEX
  8
0
 10
1029.00500488
 20
765.47827148
 30
0.0
  0
VERTEX
  8
0
 10
1028.01147461
 20
765.81439209
 30
0.0
  0
VERTEX
  8
0
 10
1027.56689453
 20
765.98443604
 30
0.0
  0
VERTEX
  8
0
 10
1026.99951172
 20
766.22454834
 30
0.0
  0
VERTEX
  8
0
 10
1026.00244141
 20
766.61914063
 30
0.0
  0
VERTEX
  8
0
 10
1025.05419922
 20
767.00140381
 30
0.0
  0
VERTEX
  8
0
 10
1024.99853516
 20
767.01947021
 30
0.0
  0
VERTEX
  8
0
 10
1023.99658203
 20
767.25305176
 30
0.0
  0
VERTEX
  8
0
 10
1023.00933838
 20
767.49987793
 30
0.0
  0
VERTEX
  8
0
 10
1022.01019287
 20
767.80371094
 30
0.0
  0
VERTEX
  8
0
 10
1021.51171875
 20
767.98498535
 30
0.0
  0
VERTEX
  8
0
 10
1020.99310303
 20
768.1619873
 30
0.0
  0
VERTEX
  8
0
 10
1020.00531006
 20
768.44555664
 30
0.0
  0
VERTEX
  8
0
 10
1019.01184082
 20
768.76141357
 30
0.0
  0
VERTEX
  8
0
 10
1018.40020752
 20
768.99237061
 30
0.0
  0
VERTEX
  8
0
 10
1017.9932251
 20
769.13781738
 30
0.0
  0
VERTEX
  8
0
 10
1016.99920654
 20
769.41821289
 30
0.0
  0
VERTEX
  8
0
 10
1016.01385498
 20
769.71502686
 30
0.0
  0
VERTEX
  8
0
 10
1015.20294189
 20
769.99829102
 30
0.0
  0
VERTEX
  8
0
 10
1014.99645996
 20
770.06622314
 30
0.0
  0
VERTEX
  8
0
 10
1013.99938965
 20
770.3225708
 30
0.0
  0
VERTEX
  8
0
 10
1013.01660156
 20
770.61395264
 30
0.0
  0
VERTEX
  8
0
 10
1012.00085449
 20
770.97229004
 30
0.0
  0
VERTEX
  8
0
 10
1011.93725586
 20
770.99517822
 30
0.0
  0
VERTEX
  8
0
 10
1010.98822021
 20
771.2401123
 30
0.0
  0
VERTEX
  8
0
 10
1010.00524902
 20
771.46160889
 30
0.0
  0
VERTEX
  8
0
 10
1009.01391602
 20
771.7076416
 30
0.0
  0
VERTEX
  8
0
 10
1008.13470459
 20
772.00018311
 30
0.0
  0
VERTEX
  8
0
 10
1007.99749756
 20
772.04260254
 30
0.0
  0
VERTEX
  8
0
 10
1006.99816895
 20
772.27166748
 30
0.0
  0
VERTEX
  8
0
 10
1006.00189209
 20
772.48944092
 30
0.0
  0
VERTEX
  8
0
 10
1005.00994873
 20
772.74371338
 30
0.0
  0
VERTEX
  8
0
 10
1004.17724609
 20
772.99841309
 30
0.0
  0
VERTEX
  8
0
 10
1003.99780273
 20
773.04949951
 30
0.0
  0
VERTEX
  8
0
 10
1002.99816895
 20
773.26544189
 30
0.0
  0
VERTEX
  8
0
 10
1002.00372314
 20
773.47888184
 30
0.0
  0
VERTEX
  8
0
 10
1001.00836182
 20
773.73223877
 30
0.0
  0
VERTEX
  8
0
 10
1000.1361084
 20
773.99920654
 30
0.0
  0
VERTEX
  8
0
 10
999.99835205
 20
774.03753662
 30
0.0
  0
VERTEX
  8
0
 10
998.99737549
 20
774.24407959
 30
0.0
  0
VERTEX
  8
0
 10
998.00341797
 20
774.44500732
 30
0.0
  0
VERTEX
  8
0
 10
997.00622559
 20
774.67523193
 30
0.0
  0
VERTEX
  8
0
 10
996.00109863
 20
774.95507813
 30
0.0
  0
VERTEX
  8
0
 10
995.86297607
 20
774.99230957
 30
0.0
  0
VERTEX
  8
0
 10
994.99505615
 20
775.17755127
 30
0.0
  0
VERTEX
  8
0
 10
994.00085449
 20
775.35705566
 30
0.0
  0
VERTEX
  8
0
 10
993.00488281
 20
775.54034424
 30
0.0
  0
VERTEX
  8
0
 10
992.00506592
 20
775.77502441
 30
0.0
  0
VERTEX
  8
0
 10
991.20977783
 20
775.99749756
 30
0.0
  0
VERTEX
  8
0
 10
990.99835205
 20
776.05133057
 30
0.0
  0
VERTEX
  8
0
 10
989.99707031
 20
776.24249268
 30
0.0
  0
VERTEX
  8
0
 10
989.00085449
 20
776.41290283
 30
0.0
  0
VERTEX
  8
0
 10
988.00213623
 20
776.58392334
 30
0.0
  0
VERTEX
  8
0
 10
987.00756836
 20
776.80383301
 30
0.0
  0
VERTEX
  8
0
 10
986.28790283
 20
776.99481201
 30
0.0
  0
VERTEX
  8
0
 10
985.99731445
 20
777.06506348
 30
0.0
  0
VERTEX
  8
0
 10
984.99816895
 20
777.23138428
 30
0.0
  0
VERTEX
  8
0
 10
984.00238037
 20
777.38537598
 30
0.0
  0
VERTEX
  8
0
 10
983.00097656
 20
777.54888916
 30
0.0
  0
VERTEX
  8
0
 10
982.00604248
 20
777.7600708
 30
0.0
  0
VERTEX
  8
0
 10
981.02935791
 20
777.99987793
 30
0.0
  0
VERTEX
  8
0
 10
980.99981689
 20
778.0067749
 30
0.0
  0
VERTEX
  8
0
 10
979.99621582
 20
778.17382813
 30
0.0
  0
VERTEX
  8
0
 10
979.00054932
 20
778.31756592
 30
0.0
  0
VERTEX
  8
0
 10
978.00012207
 20
778.4418335
 30
0.0
  0
VERTEX
  8
0
 10
977.00384521
 20
778.59454346
 30
0.0
  0
VERTEX
  8
0
 10
976.00286865
 20
778.78601074
 30
0.0
  0
VERTEX
  8
0
 10
975.06884766
 20
778.99938965
 30
0.0
  0
VERTEX
  8
0
 10
974.99969482
 20
779.01367188
 30
0.0
  0
VERTEX
  8
0
 10
973.99780273
 20
779.17126465
 30
0.0
  0
VERTEX
  8
0
 10
972.99926758
 20
779.30493164
 30
0.0
  0
VERTEX
  8
0
 10
971.99987793
 20
779.41601563
 30
0.0
  0
VERTEX
  8
0
 10
971.00231934
 20
779.53747559
 30
0.0
  0
VERTEX
  8
0
 10
970.00073242
 20
779.68133545
 30
0.0
  0
VERTEX
  8
0
 10
969.00408936
 20
779.86846924
 30
0.0
  0
VERTEX
  8
0
 10
968.4119873
 20
779.99237061
 30
0.0
  0
VERTEX
  8
0
 10
967.99780273
 20
780.07116699
 30
0.0
  0
VERTEX
  8
0
 10
966.99932861
 20
780.20513916
 30
0.0
  0
VERTEX
  8
0
 10
966.0
 20
780.31738281
 30
0.0
  0
VERTEX
  8
0
 10
964.99981689
 20
780.42138672
 30
0.0
  0
VERTEX
  8
0
 10
964.00042725
 20
780.52716064
 30
0.0
  0
VERTEX
  8
0
 10
963.0010376
 20
780.64337158
 30
0.0
  0
VERTEX
  8
0
 10
962.00067139
 20
780.77716064
 30
0.0
  0
VERTEX
  8
0
 10
961.00054932
 20
780.92785645
 30
0.0
  0
VERTEX
  8
0
 10
960.55462646
 20
780.99383545
 30
0.0
  0
VERTEX
  8
0
 10
960.00927734
 20
781.11016846
 30
0.0
  0
VERTEX
  8
0
 10
959.04364014
 20
781.46710205
 30
0.0
  0
VERTEX
  8
0
 10
958.03363037
 20
782.0020752
 30
0.0
  0
VERTEX
  8
0
 10
958.00067139
 20
782.00909424
 30
0.0
  0
VERTEX
  8
0
 10
957.95721436
 20
782.00213623
 30
0.0
  0
VERTEX
  8
0
 10
956.96337891
 20
781.62231445
 30
0.0
  0
VERTEX
  8
0
 10
955.99743652
 20
781.43096924
 30
0.0
  0
VERTEX
  8
0
 10
955.00097656
 20
781.42364502
 30
0.0
  0
VERTEX
  8
0
 10
954.00170898
 20
781.50109863
 30
0.0
  0
VERTEX
  8
0
 10
952.99859619
 20
781.60174561
 30
0.0
  0
VERTEX
  8
0
 10
952.00134277
 20
781.7175293
 30
0.0
  0
VERTEX
  8
0
 10
951.00085449
 20
781.83953857
 30
0.0
  0
VERTEX
  8
0
 10
950.00030518
 20
781.9822998
 30
0.0
  0
VERTEX
  8
0
 10
949.89434814
 20
781.99713135
 30
0.0
  0
VERTEX
  8
0
 10
948.9979248
 20
782.09643555
 30
0.0
  0
VERTEX
  8
0
 10
948.00158691
 20
782.19830322
 30
0.0
  0
VERTEX
  8
0
 10
946.99804688
 20
782.27178955
 30
0.0
  0
VERTEX
  8
0
 10
945.99969482
 20
782.32385254
 30
0.0
  0
VERTEX
  8
0
 10
945.00036621
 20
782.35351563
 30
0.0
  0
VERTEX
  8
0
 10
943.99975586
 20
782.3795166
 30
0.0
  0
VERTEX
  8
0
 10
943.00030518
 20
782.42327881
 30
0.0
  0
VERTEX
  8
0
 10
941.99987793
 20
782.46691895
 30
0.0
  0
VERTEX
  8
0
 10
941.00012207
 20
782.51818848
 30
0.0
  0
VERTEX
  8
0
 10
939.99987793
 20
782.56671143
 30
0.0
  0
VERTEX
  8
0
 10
939.00024414
 20
782.61932373
 30
0.0
  0
VERTEX
  8
0
 10
937.99945068
 20
782.66027832
 30
0.0
  0
VERTEX
  8
0
 10
937.00012207
 20
782.69628906
 30
0.0
  0
VERTEX
  8
0
 10
936.00048828
 20
782.73260498
 30
0.0
  0
VERTEX
  8
0
 10
935.00048828
 20
782.7901001
 30
0.0
  0
VERTEX
  8
0
 10
934.00280762
 20
782.88891602
 30
0.0
  0
VERTEX
  8
0
 10
933.16638184
 20
782.99810791
 30
0.0
  0
VERTEX
  8
0
 10
932.99963379
 20
783.01422119
 30
0.0
  0
VERTEX
  8
0
 10
932.00012207
 20
783.02862549
 30
0.0
  0
VERTEX
  8
0
 10
931.00085449
 20
783.05187988
 30
0.0
  0
VERTEX
  8
0
 10
929.99926758
 20
783.08184814
 30
0.0
  0
VERTEX
  8
0
 10
928.99975586
 20
783.13604736
 30
0.0
  0
VERTEX
  8
0
 10
928.0
 20
783.17382813
 30
0.0
  0
VERTEX
  8
0
 10
926.99981689
 20
783.19854736
 30
0.0
  0
VERTEX
  8
0
 10
926.00006104
 20
783.22058105
 30
0.0
  0
VERTEX
  8
0
 10
925.00012207
 20
783.24420166
 30
0.0
  0
VERTEX
  8
0
 10
923.99981689
 20
783.27142334
 30
0.0
  0
VERTEX
  8
0
 10
923.0
 20
783.29815674
 30
0.0
  0
VERTEX
  8
0
 10
921.99993896
 20
783.31500244
 30
0.0
  0
VERTEX
  8
0
 10
921.0
 20
783.3293457
 30
0.0
  0
VERTEX
  8
0
 10
920.00006104
 20
783.34332275
 30
0.0
  0
VERTEX
  8
0
 10
918.99993896
 20
783.35839844
 30
0.0
  0
VERTEX
  8
0
 10
918.0
 20
783.37402344
 30
0.0
  0
VERTEX
  8
0
 10
916.99993896
 20
783.38201904
 30
0.0
  0
VERTEX
  8
0
 10
916.0
 20
783.39068604
 30
0.0
  0
VERTEX
  8
0
 10
915.0
 20
783.39178467
 30
0.0
  0
VERTEX
  8
0
 10
914.0
 20
783.39520264
 30
0.0
  0
VERTEX
  8
0
 10
913.00006104
 20
783.40093994
 30
0.0
  0
VERTEX
  8
0
 10
912.00024414
 20
783.42382813
 30
0.0
  0
VERTEX
  8
0
 10
910.99969482
 20
783.44903564
 30
0.0
  0
VERTEX
  8
0
 10
910.0
 20
783.47265625
 30
0.0
  0
VERTEX
  8
0
 10
909.00012207
 20
783.49169922
 30
0.0
  0
VERTEX
  8
0
 10
907.99987793
 20
783.51147461
 30
0.0
  0
VERTEX
  8
0
 10
907.00048828
 20
783.54437256
 30
0.0
  0
VERTEX
  8
0
 10
905.99951172
 20
783.56359863
 30
0.0
  0
VERTEX
  8
0
 10
905.0
 20
783.57958984
 30
0.0
  0
VERTEX
  8
0
 10
904.00030518
 20
783.59173584
 30
0.0
  0
VERTEX
  8
0
 10
902.99993896
 20
783.61993408
 30
0.0
  0
VERTEX
  8
0
 10
902.00073242
 20
783.67169189
 30
0.0
  0
VERTEX
  8
0
 10
900.99914551
 20
783.70245361
 30
0.0
  0
VERTEX
  8
0
 10
900.00006104
 20
783.7109375
 30
0.0
  0
VERTEX
  8
0
 10
898.99993896
 20
783.70251465
 30
0.0
  0
VERTEX
  8
0
 10
898.00030518
 20
783.71655273
 30
0.0
  0
VERTEX
  8
0
 10
897.00115967
 20
783.77264404
 30
0.0
  0
VERTEX
  8
0
 10
895.99841309
 20
783.82098389
 30
0.0
  0
VERTEX
  8
0
 10
895.0
 20
783.85540771
 30
0.0
  0
VERTEX
  8
0
 10
894.00109863
 20
783.88452148
 30
0.0
  0
VERTEX
  8
0
 10
892.99902344
 20
783.90490723
 30
0.0
  0
VERTEX
  8
0
 10
892.00036621
 20
783.94152832
 30
0.0
  0
VERTEX
  8
0
 10
890.99957275
 20
783.95800781
 30
0.0
  0
VERTEX
  8
0
 10
890.00006104
 20
783.99145508
 30
0.0
  0
VERTEX
  8
0
 10
889.66668701
 20
783.99920654
 30
0.0
  0
VERTEX
  8
0
 10
889.00012207
 20
784.02050781
 30
0.0
  0
VERTEX
  8
0
 10
887.99981689
 20
784.05151367
 30
0.0
  0
VERTEX
  8
0
 10
886.99993896
 20
784.07653809
 30
0.0
  0
VERTEX
  8
0
 10
886.00006104
 20
784.09637451
 30
0.0
  0
VERTEX
  8
0
 10
884.99993896
 20
784.11346436
 30
0.0
  0
VERTEX
  8
0
 10
884.00006104
 20
784.13592529
 30
0.0
  0
VERTEX
  8
0
 10
882.99987793
 20
784.15319824
 30
0.0
  0
VERTEX
  8
0
 10
882.00006104
 20
784.17248535
 30
0.0
  0
VERTEX
  8
0
 10
881.00006104
 20
784.19219971
 30
0.0
  0
VERTEX
  8
0
 10
879.99987793
 20
784.21203613
 30
0.0
  0
VERTEX
  8
0
 10
879.00006104
 20
784.2322998
 30
0.0
  0
VERTEX
  8
0
 10
878.00006104
 20
784.25299072
 30
0.0
  0
VERTEX
  8
0
 10
876.99987793
 20
784.27526855
 30
0.0
  0
VERTEX
  8
0
 10
875.99993896
 20
784.28967285
 30
0.0
  0
VERTEX
  8
0
 10
875.0
 20
784.29370117
 30
0.0
  0
VERTEX
  8
0
 10
874.00042725
 20
784.30957031
 30
0.0
  0
VERTEX
  8
0
 10
872.99987793
 20
784.33917236
 30
0.0
  0
VERTEX
  8
0
 10
872.00262451
 20
784.41394043
 30
0.0
  0
VERTEX
  8
0
 10
870.99865723
 20
784.43951416
 30
0.0
  0
VERTEX
  8
0
 10
869.99835205
 20
784.44744873
 30
0.0
  0
VERTEX
  8
0
 10
869.0
 20
784.40893555
 30
0.0
  0
VERTEX
  8
0
 10
868.00006104
 20
784.40948486
 30
0.0
  0
VERTEX
  8
0
 10
867.00030518
 20
784.42919922
 30
0.0
  0
VERTEX
  8
0
 10
865.99981689
 20
784.46325684
 30
0.0
  0
VERTEX
  8
0
 10
864.99981689
 20
784.48468018
 30
0.0
  0
VERTEX
  8
0
 10
864.00006104
 20
784.49908447
 30
0.0
  0
VERTEX
  8
0
 10
862.99987793
 20
784.50488281
 30
0.0
  0
VERTEX
  8
0
 10
862.0
 20
784.52160645
 30
0.0
  0
VERTEX
  8
0
 10
861.0
 20
784.53442383
 30
0.0
  0
VERTEX
  8
0
 10
860.00006104
 20
784.55157471
 30
0.0
  0
VERTEX
  8
0
 10
858.99987793
 20
784.56378174
 30
0.0
  0
VERTEX
  8
0
 10
858.00018311
 20
784.5814209
 30
0.0
  0
VERTEX
  8
0
 10
856.99987793
 20
784.59539795
 30
0.0
  0
VERTEX
  8
0
 10
856.0
 20
784.60760498
 30
0.0
  0
VERTEX
  8
0
 10
855.00024414
 20
784.62268066
 30
0.0
  0
VERTEX
  8
0
 10
854.00012207
 20
784.64886475
 30
0.0
  0
VERTEX
  8
0
 10
852.99975586
 20
784.68499756
 30
0.0
  0
VERTEX
  8
0
 10
852.00006104
 20
784.71875
 30
0.0
  0
VERTEX
  8
0
 10
851.0
 20
784.74707031
 30
0.0
  0
VERTEX
  8
0
 10
849.99987793
 20
784.77069092
 30
0.0
  0
VERTEX
  8
0
 10
849.00006104
 20
784.79034424
 30
0.0
  0
VERTEX
  8
0
 10
848.00018311
 20
784.81243896
 30
0.0
  0
VERTEX
  8
0
 10
846.99987793
 20
784.8404541
 30
0.0
  0
VERTEX
  8
0
 10
845.99993896
 20
784.86743164
 30
0.0
  0
VERTEX
  8
0
 10
845.0010376
 20
784.90924072
 30
0.0
  0
VERTEX
  8
0
 10
843.9989624
 20
784.94915771
 30
0.0
  0
VERTEX
  8
0
 10
843.0
 20
784.98980713
 30
0.0
  0
VERTEX
  8
0
 10
842.5
 20
784.99914551
 30
0.0
  0
VERTEX
  8
0
 10
842.00006104
 20
785.01116943
 30
0.0
  0
VERTEX
  8
0
 10
840.99993896
 20
785.03601074
 30
0.0
  0
VERTEX
  8
0
 10
839.99993896
 20
785.05328369
 30
0.0
  0
VERTEX
  8
0
 10
839.0
 20
785.0645752
 30
0.0
  0
VERTEX
  8
0
 10
838.00006104
 20
785.07537842
 30
0.0
  0
VERTEX
  8
0
 10
836.99993896
 20
785.09069824
 30
0.0
  0
VERTEX
  8
0
 10
836.00030518
 20
785.08721924
 30
0.0
  0
VERTEX
  8
0
 10
835.01391602
 20
785.17272949
 30
0.0
  0
VERTEX
  8
0
 10
833.98760986
 20
785.22247314
 30
0.0
  0
VERTEX
  8
0
 10
832.99810791
 20
785.27441406
 30
0.0
  0
VERTEX
  8
0
 10
831.99987793
 20
785.22924805
 30
0.0
  0
VERTEX
  8
0
 10
831.00006104
 20
785.21514893
 30
0.0
  0
VERTEX
  8
0
 10
830.0012207
 20
785.23797607
 30
0.0
  0
VERTEX
  8
0
 10
829.00091553
 20
785.29986572
 30
0.0
  0
VERTEX
  8
0
 10
828.00006104
 20
785.32830811
 30
0.0
  0
VERTEX
  8
0
 10
826.99780273
 20
785.32440186
 30
0.0
  0
VERTEX
  8
0
 10
826.00006104
 20
785.28930664
 30
0.0
  0
VERTEX
  8
0
 10
825.00024414
 20
785.30761719
 30
0.0
  0
VERTEX
  8
0
 10
823.99969482
 20
785.3347168
 30
0.0
  0
VERTEX
  8
0
 10
823.0647583
 20
785.54998779
 30
0.0
  0
VERTEX
  8
0
 10
822.04693604
 20
786.01855469
 30
0.0
  0
VERTEX
  8
0
 10
821.98901367
 20
786.06585693
 30
0.0
  0
VERTEX
  8
0
 10
821.04766846
 20
786.99487305
 30
0.0
  0
VERTEX
  8
0
 10
820.99865723
 20
787.01092529
 30
0.0
  0
VERTEX
  8
0
 10
820.96697998
 20
787.00024414
 30
0.0
  0
VERTEX
  8
0
 10
819.99163818
 20
786.11535645
 30
0.0
  0
VERTEX
  8
0
 10
819.840271
 20
786.01672363
 30
0.0
  0
VERTEX
  8
0
 10
818.98071289
 20
785.70318604
 30
0.0
  0
VERTEX
  8
0
 10
817.99359131
 20
785.50439453
 30
0.0
  0
VERTEX
  8
0
 10
817.0043335
 20
785.49035645
 30
0.0
  0
VERTEX
  8
0
 10
816.02185059
 20
785.67193604
 30
0.0
  0
VERTEX
  8
0
 10
815.01733398
 20
786.00030518
 30
0.0
  0
VERTEX
  8
0
 10
814.99981689
 20
786.00427246
 30
0.0
  0
VERTEX
  8
0
 10
814.00543213
 20
786.09924316
 30
0.0
  0
VERTEX
  8
0
 10
812.99432373
 20
786.1864624
 30
0.0
  0
VERTEX
  8
0
 10
812.00695801
 20
786.18884277
 30
0.0
  0
VERTEX
  8
0
 10
811.00378418
 20
786.04260254
 30
0.0
  0
VERTEX
  8
0
 10
810.88317871
 20
786.00177002
 30
0.0
  0
VERTEX
  8
0
 10
809.96942139
 20
785.70172119
 30
0.0
  0
VERTEX
  8
0
 10
808.99951172
 20
785.55023193
 30
0.0
  0
VERTEX
  8
0
 10
807.99987793
 20
785.54766846
 30
0.0
  0
VERTEX
  8
0
 10
806.99993896
 20
785.5682373
 30
0.0
  0
VERTEX
  8
0
 10
806.00018311
 20
785.58874512
 30
0.0
  0
VERTEX
  8
0
 10
805.0
 20
785.61352539
 30
0.0
  0
VERTEX
  8
0
 10
803.99981689
 20
785.64117432
 30
0.0
  0
VERTEX
  8
0
 10
803.0
 20
785.66247559
 30
0.0
  0
VERTEX
  8
0
 10
802.00006104
 20
785.68084717
 30
0.0
  0
VERTEX
  8
0
 10
800.99987793
 20
785.69763184
 30
0.0
  0
VERTEX
  8
0
 10
800.00006104
 20
785.71661377
 30
0.0
  0
VERTEX
  8
0
 10
799.00012207
 20
785.73748779
 30
0.0
  0
VERTEX
  8
0
 10
798.00006104
 20
785.76861572
 30
0.0
  0
VERTEX
  8
0
 10
797.0
 20
785.80578613
 30
0.0
  0
VERTEX
  8
0
 10
796.00006104
 20
785.84619141
 30
0.0
  0
VERTEX
  8
0
 10
794.99975586
 20
785.87963867
 30
0.0
  0
VERTEX
  8
0
 10
794.00006104
 20
785.9085083
 30
0.0
  0
VERTEX
  8
0
 10
792.99987793
 20
785.92327881
 30
0.0
  0
VERTEX
  8
0
 10
792.00097656
 20
785.95837402
 30
0.0
  0
VERTEX
  8
0
 10
791.29974365
 20
785.99737549
 30
0.0
  0
VERTEX
  8
0
 10
790.99975586
 20
786.01635742
 30
0.0
  0
VERTEX
  8
0
 10
790.00073242
 20
786.06671143
 30
0.0
  0
VERTEX
  8
0
 10
789.00128174
 20
786.13897705
 30
0.0
  0
VERTEX
  8
0
 10
787.99908447
 20
786.17224121
 30
0.0
  0
VERTEX
  8
0
 10
786.99871826
 20
786.17584229
 30
0.0
  0
VERTEX
  8
0
 10
786.00012207
 20
786.15075684
 30
0.0
  0
VERTEX
  8
0
 10
785.0
 20
786.16375732
 30
0.0
  0
VERTEX
  8
0
 10
783.99993896
 20
786.18768311
 30
0.0
  0
VERTEX
  8
0
 10
782.99993896
 20
786.20336914
 30
0.0
  0
VERTEX
  8
0
 10
782.0
 20
786.21014404
 30
0.0
  0
VERTEX
  8
0
 10
781.00006104
 20
786.21801758
 30
0.0
  0
VERTEX
  8
0
 10
780.00006104
 20
786.23388672
 30
0.0
  0
VERTEX
  8
0
 10
778.99987793
 20
786.25311279
 30
0.0
  0
VERTEX
  8
0
 10
778.0
 20
786.26672363
 30
0.0
  0
VERTEX
  8
0
 10
777.00006104
 20
786.27612305
 30
0.0
  0
VERTEX
  8
0
 10
776.00006104
 20
786.28942871
 30
0.0
  0
VERTEX
  8
0
 10
775.0
 20
786.30773926
 30
0.0
  0
VERTEX
  8
0
 10
773.99993896
 20
786.32507324
 30
0.0
  0
VERTEX
  8
0
 10
773.00006104
 20
786.34210205
 30
0.0
  0
VERTEX
  8
0
 10
771.99993896
 20
786.35552979
 30
0.0
  0
VERTEX
  8
0
 10
771.00006104
 20
786.37121582
 30
0.0
  0
VERTEX
  8
0
 10
770.0
 20
786.387146
 30
0.0
  0
VERTEX
  8
0
 10
769.0
 20
786.40686035
 30
0.0
  0
VERTEX
  8
0
 10
768.00006104
 20
786.42877197
 30
0.0
  0
VERTEX
  8
0
 10
766.99993896
 20
786.45007324
 30
0.0
  0
VERTEX
  8
0
 10
766.00006104
 20
786.47338867
 30
0.0
  0
VERTEX
  8
0
 10
764.99987793
 20
786.48608398
 30
0.0
  0
VERTEX
  8
0
 10
764.00012207
 20
786.50115967
 30
0.0
  0
VERTEX
  8
0
 10
763.0
 20
786.51574707
 30
0.0
  0
VERTEX
  8
0
 10
762.0
 20
786.53985596
 30
0.0
  0
VERTEX
  8
0
 10
760.99993896
 20
786.55883789
 30
0.0
  0
VERTEX
  8
0
 10
760.0
 20
786.57110596
 30
0.0
  0
VERTEX
  8
0
 10
759.0
 20
786.58081055
 30
0.0
  0
VERTEX
  8
0
 10
758.0
 20
786.59063721
 30
0.0
  0
VERTEX
  8
0
 10
757.0
 20
786.60003662
 30
0.0
  0
VERTEX
  8
0
 10
756.00006104
 20
786.60998535
 30
0.0
  0
VERTEX
  8
0
 10
755.0
 20
786.61230469
 30
0.0
  0
VERTEX
  8
0
 10
754.0
 20
786.61376953
 30
0.0
  0
VERTEX
  8
0
 10
753.00006104
 20
786.61700439
 30
0.0
  0
VERTEX
  8
0
 10
751.99993896
 20
786.62030029
 30
0.0
  0
VERTEX
  8
0
 10
751.0
 20
786.62823486
 30
0.0
  0
VERTEX
  8
0
 10
750.00006104
 20
786.63677979
 30
0.0
  0
VERTEX
  8
0
 10
749.00018311
 20
786.66253662
 30
0.0
  0
VERTEX
  8
0
 10
747.99975586
 20
786.68615723
 30
0.0
  0
VERTEX
  8
0
 10
747.00030518
 20
786.71716309
 30
0.0
  0
VERTEX
  8
0
 10
746.00036621
 20
786.7567749
 30
0.0
  0
VERTEX
  8
0
 10
744.99957275
 20
786.80767822
 30
0.0
  0
VERTEX
  8
0
 10
743.99987793
 20
786.85394287
 30
0.0
  0
VERTEX
  8
0
 10
743.00012207
 20
786.8927002
 30
0.0
  0
VERTEX
  8
0
 10
741.99981689
 20
786.92724609
 30
0.0
  0
VERTEX
  8
0
 10
741.00012207
 20
786.96429443
 30
0.0
  0
VERTEX
  8
0
 10
740.00061035
 20
787.01123047
 30
0.0
  0
VERTEX
  8
0
 10
738.99920654
 20
787.05749512
 30
0.0
  0
VERTEX
  8
0
 10
738.0010376
 20
787.06262207
 30
0.0
  0
VERTEX
  8
0
 10
736.9989624
 20
787.05328369
 30
0.0
  0
VERTEX
  8
0
 10
735.99993896
 20
787.04223633
 30
0.0
  0
VERTEX
  8
0
 10
735.00024414
 20
787.07440186
 30
0.0
  0
VERTEX
  8
0
 10
734.00012207
 20
787.11376953
 30
0.0
  0
VERTEX
  8
0
 10
732.99969482
 20
787.15545654
 30
0.0
  0
VERTEX
  8
0
 10
731.99993896
 20
787.18737793
 30
0.0
  0
VERTEX
  8
0
 10
730.99993896
 20
787.20135498
 30
0.0
  0
VERTEX
  8
0
 10
730.00006104
 20
787.21191406
 30
0.0
  0
VERTEX
  8
0
 10
729.0
 20
787.22186279
 30
0.0
  0
VERTEX
  8
0
 10
727.99993896
 20
787.23425293
 30
0.0
  0
VERTEX
  8
0
 10
727.00012207
 20
787.24902344
 30
0.0
  0
VERTEX
  8
0
 10
725.99987793
 20
787.26037598
 30
0.0
  0
VERTEX
  8
0
 10
725.00012207
 20
787.27996826
 30
0.0
  0
VERTEX
  8
0
 10
723.99987793
 20
787.2911377
 30
0.0
  0
VERTEX
  8
0
 10
723.0
 20
787.30413818
 30
0.0
  0
VERTEX
  8
0
 10
722.0
 20
787.30688477
 30
0.0
  0
VERTEX
  8
0
 10
721.00018311
 20
787.32037354
 30
0.0
  0
VERTEX
  8
0
 10
720.00115967
 20
787.36047363
 30
0.0
  0
VERTEX
  8
0
 10
718.99969482
 20
787.42718506
 30
0.0
  0
VERTEX
  8
0
 10
718.00036621
 20
787.45300293
 30
0.0
  0
VERTEX
  8
0
 10
716.99871826
 20
787.44256592
 30
0.0
  0
VERTEX
  8
0
 10
716.0
 20
787.41088867
 30
0.0
  0
VERTEX
  8
0
 10
715.0
 20
787.4105835
 30
0.0
  0
VERTEX
  8
0
 10
714.0
 20
787.41546631
 30
0.0
  0
VERTEX
  8
0
 10
713.0
 20
787.41973877
 30
0.0
  0
VERTEX
  8
0
 10
712.0
 20
787.42657471
 30
0.0
  0
VERTEX
  8
0
 10
711.0
 20
787.43719482
 30
0.0
  0
VERTEX
  8
0
 10
710.00006104
 20
787.44927979
 30
0.0
  0
VERTEX
  8
0
 10
709.00042725
 20
787.47546387
 30
0.0
  0
VERTEX
  8
0
 10
707.99957275
 20
787.49334717
 30
0.0
  0
VERTEX
  8
0
 10
706.99993896
 20
787.50457764
 30
0.0
  0
VERTEX
  8
0
 10
706.0
 20
787.49676514
 30
0.0
  0
VERTEX
  8
0
 10
705.0
 20
787.49359131
 30
0.0
  0
VERTEX
  8
0
 10
704.0
 20
787.49468994
 30
0.0
  0
VERTEX
  8
0
 10
703.0
 20
787.50109863
 30
0.0
  0
VERTEX
  8
0
 10
702.00018311
 20
787.51983643
 30
0.0
  0
VERTEX
  8
0
 10
701.00006104
 20
787.54760742
 30
0.0
  0
VERTEX
  8
0
 10
699.99975586
 20
787.57208252
 30
0.0
  0
VERTEX
  8
0
 10
699.00018311
 20
787.59606934
 30
0.0
  0
VERTEX
  8
0
 10
697.99981689
 20
787.60876465
 30
0.0
  0
VERTEX
  8
0
 10
697.00018311
 20
787.63153076
 30
0.0
  0
VERTEX
  8
0
 10
696.00158691
 20
787.67779541
 30
0.0
  0
VERTEX
  8
0
 10
695.01947021
 20
787.84521484
 30
0.0
  0
VERTEX
  8
0
 10
694.60656738
 20
787.98962402
 30
0.0
  0
VERTEX
  8
0
 10
694.00067139
 20
788.12469482
 30
0.0
  0
VERTEX
  8
0
 10
693.00042725
 20
788.04241943
 30
0.0
  0
VERTEX
  8
0
 10
692.85675049
 20
788.00128174
 30
0.0
  0
VERTEX
  8
0
 10
691.9888916
 20
787.84454346
 30
0.0
  0
VERTEX
  8
0
 10
691.00006104
 20
787.76843262
 30
0.0
  0
VERTEX
  8
0
 10
690.00012207
 20
787.78955078
 30
0.0
  0
VERTEX
  8
0
 10
689.00036621
 20
787.82507324
 30
0.0
  0
VERTEX
  8
0
 10
688.00012207
 20
787.87451172
 30
0.0
  0
VERTEX
  8
0
 10
687.00012207
 20
787.93536377
 30
0.0
  0
VERTEX
  8
0
 10
686.00415039
 20
788.03485107
 30
0.0
  0
VERTEX
  8
0
 10
685.00628662
 20
788.20141602
 30
0.0
  0
VERTEX
  8
0
 10
684.00177002
 20
788.25408936
 30
0.0
  0
VERTEX
  8
0
 10
682.98699951
 20
788.24090576
 30
0.0
  0
VERTEX
  8
0
 10
681.99993896
 20
788.14190674
 30
0.0
  0
VERTEX
  8
0
 10
681.0
 20
788.13690186
 30
0.0
  0
VERTEX
  8
0
 10
680.00006104
 20
788.14465332
 30
0.0
  0
VERTEX
  8
0
 10
679.0
 20
788.16217041
 30
0.0
  0
VERTEX
  8
0
 10
678.00006104
 20
788.18695068
 30
0.0
  0
VERTEX
  8
0
 10
676.99987793
 20
788.20697021
 30
0.0
  0
VERTEX
  8
0
 10
676.0
 20
788.22094727
 30
0.0
  0
VERTEX
  8
0
 10
675.00018311
 20
788.23687744
 30
0.0
  0
VERTEX
  8
0
 10
673.99981689
 20
788.25372314
 30
0.0
  0
VERTEX
  8
0
 10
673.00006104
 20
788.27752686
 30
0.0
  0
VERTEX
  8
0
 10
671.99987793
 20
788.29364014
 30
0.0
  0
VERTEX
  8
0
 10
671.0
 20
788.3092041
 30
0.0
  0
VERTEX
  8
0
 10
670.00006104
 20
788.32202148
 30
0.0
  0
VERTEX
  8
0
 10
669.0
 20
788.33807373
 30
0.0
  0
VERTEX
  8
0
 10
668.00036621
 20
788.36785889
 30
0.0
  0
VERTEX
  8
0
 10
667.00036621
 20
788.41448975
 30
0.0
  0
VERTEX
  8
0
 10
666.00262451
 20
788.50183105
 30
0.0
  0
VERTEX
  8
0
 10
664.99664307
 20
788.56799316
 30
0.0
  0
VERTEX
  8
0
 10
664.0
 20
788.60583496
 30
0.0
  0
SEQEND
  0
ENDSEC
  0
SECTION
  2
OBJECTS
  0
ENDSEC
  0
EOF
